{
copyright = "Copyright (c) 2018 by Vladimir Nikolic. All rights reserved.";
designer = "Vladimir Nikolic";
designerURL = "https://www.coroflot.com/vladimirnikolic";
familyName = Ana;
customParameters = (
{
name = glyphOrder;
value = (
.notdef,
NULL,
CR,
space,
F,
G,
H,
I,
J,
K,
L,
M,
N,
O,
P,
R,
Q,
S,
T,
U,
V,
W,
X,
Y,
Z,
zero,
one,
two,
three,
four,
five,
six,
seven,
eight,
nine,
question,
exclam,
comma,
period,
quotesingle,
E,
colon,
semicolon,
a,
c,
d,
e,
f,
h,
i,
j,
k,
l,
m,
n,
o,
p,
q,
r,
s,
t,
u,
v,
w,
x,
y,
z,
b,
C,
g,
B,
D,
A,
at,
quotedbl,
bar,
numbersign,
percent,
slash,
hyphen,
equal,
Euro,
perthousand,
Scaron,
germandbls,
ellipsis,
caron,
Dcaron,
hungarumlaut,
Uhungarumlaut,
uhungarumlaut,
dieresis,
udieresis,
acute,
Lslash,
cedilla,
ogonek,
aogonek,
Racute,
racute,
Aacute,
aacute,
plus,
Lacute,
lacute,
Adieresis,
adieresis,
Ccaron,
ccaron,
Ccedilla,
ccedilla,
Cacute,
cacute,
eacute,
Eacute,
eogonek,
Edieresis,
edieresis,
Ecaron,
ecaron,
Iacute,
iacute,
ohungarumlaut,
Ohungarumlaut,
odieresis,
Odieresis,
rcaron,
Rcaron,
Udieresis,
Yacute,
yacute,
scaron,
dcaron,
nacute,
Nacute,
ncaron,
Ncaron,
oacute,
Oacute,
scedilla,
Scedilla,
trademark,
braceleft,
bracketleft,
dotaccent,
zdotaccent,
endash,
emdash,
bullet,
sacute,
Sacute,
Tcaron,
Zcaron,
Zacute,
tcaron,
zcaron,
zacute,
lslash,
dcroat,
Dcroat,
less,
greater,
Zdotaccent,
uacute,
Uacute,
parenleft,
registered,
copyright,
breve,
Abreve,
abreve,
quoteleft,
quoteright,
quotedblright,
quotedblleft,
divide,
underscore,
asciitilde,
asciicircum,
multiply,
guilsinglleft,
guillemotright,
lcaron,
parenright,
asterisk,
ampersand,
plusminus,
section,
uni00AD,
currency,
degree,
periodcentered,
quotedblbase,
braceright,
bracketright,
Lcaron,
quotesinglbase,
exclamdown,
gcircumflex,
Itilde,
IJ,
eng,
OE,
circumflex,
ring,
tilde,
figuredash,
exclamdbl,
fraction,
estimated,
minus,
infinity,
approxequal,
notequal,
lessequal,
greaterequal,
uni037E,
uring,
Uring,
ocircumflex,
Ocircumflex,
acircumflex,
Acircumflex,

glyphs = (
{
glyphname = F;
layers = (
{
layerId = "CD1C2F27-7B64-400F-B9B0-689659144D44";
paths = (
{
nodes = (
"18 0 LINE",
"18 13 LINE",
"35 19 OFFCURVE",
"64 42 OFFCURVE",
"64 62 QCURVE SMOOTH",
"64 617 LINE SMOOTH",
"64 637 OFFCURVE",
"35 660 OFFCURVE",
"18 666 QCURVE",
"18 679 LINE",
"632 679 LINE",
"632 456 LINE",
"616 456 LINE",
"606 473 OFFCURVE",
"576 494 OFFCURVE",
"556 494 QCURVE SMOOTH",
"291 494 LINE",
"291 401 LINE",
"443 401 LINE SMOOTH",
"463 401 OFFCURVE",
"492 422 OFFCURVE",
"502 439 QCURVE",
"518 439 LINE",
"518 240 LINE",
"502 240 LINE",
"492 257 OFFCURVE",
"463 278 OFFCURVE",
"443 278 QCURVE SMOOTH",
"291 278 LINE",
"291 62 LINE SMOOTH",
"291 42 OFFCURVE",
"321 19 OFFCURVE",
"337 13 QCURVE",
"337 0 LINE"
);
}
);
width = 659;
}
);
unicode = 0046;
},
{
glyphname = G;
layers = (
{
layerId = "CD1C2F27-7B64-400F-B9B0-689659144D44";
paths = (
{
nodes = (
"315 401 LINE",
"656 401 LINE",
"656 93 LINE SMOOTH",
"656 63 OFFCURVE",
"626 26 OFFCURVE",
"581 6 OFFCURVE",
"528 0 OFFCURVE",
"504 0 QCURVE SMOOTH",
"201 0 LINE SMOOTH",
"177 0 OFFCURVE",
"124 6 OFFCURVE",
"79 26 OFFCURVE",
"50 63 OFFCURVE",
"50 93 QCURVE SMOOTH",
"50 587 LINE SMOOTH",
"50 617 OFFCURVE",
"80 654 OFFCURVE",
"125 673 OFFCURVE",
"178 679 OFFCURVE",
"201 679 QCURVE SMOOTH",
"504 679 LINE SMOOTH",
"527 679 OFFCURVE",
"581 673 OFFCURVE",
"626 654 OFFCURVE",
"656 617 OFFCURVE",
"656 587 QCURVE SMOOTH",
"656 432 LINE",
"382 432 LINE",
"382 445 LINE",
"398 451 OFFCURVE",
"429 474 OFFCURVE",
"429 494 QCURVE",
"277 494 LINE",
"277 185 LINE",
"429 185 LINE",
"429 278 LINE",
"391 278 LINE SMOOTH",
"371 278 OFFCURVE",
"342 257 OFFCURVE",
"331 240 QCURVE",
"315 240 LINE"
);
}
);
width = 705;
}
);
unicode = 0047;
},
{
glyphname = H;
layers = (
{
layerId = "CD1C2F27-7B64-400F-B9B0-689659144D44";
paths = (
{
nodes = (
"338 666 LINE",
"322 660 OFFCURVE",
"292 636 OFFCURVE",
"292 617 QCURVE SMOOTH",
"292 401 LINE",
"444 401 LINE",
"444 617 LINE SMOOTH",
"444 637 OFFCURVE",
"414 660 OFFCURVE",
"398 666 QCURVE",
"398 679 LINE",
"717 679 LINE",
"717 666 LINE",
"701 660 OFFCURVE",
"671 637 OFFCURVE",
"671 617 QCURVE SMOOTH",
"671 61 LINE SMOOTH",
"671 41 OFFCURVE",
"701 19 OFFCURVE",
"717 13 QCURVE",
"717 0 LINE",
"398 0 LINE",
"398 13 LINE",
"414 19 OFFCURVE",
"444 41 OFFCURVE",
"444 61 QCURVE SMOOTH",
"444 278 LINE",
"292 278 LINE",
"292 61 LINE SMOOTH",
"292 42 OFFCURVE",
"323 19 OFFCURVE",
"338 13 QCURVE",
"338 0 LINE",
"19 0 LINE",
"19 13 LINE",
"35 19 OFFCURVE",
"65 41 OFFCURVE",
"65 61 QCURVE SMOOTH",
"65 617 LINE SMOOTH",
"65 637 OFFCURVE",
"35 660 OFFCURVE",
"19 666 QCURVE",
"19 679 LINE",
"338 679 LINE"
);
}
);
width = 733;
}
);
unicode = 0048;
},
{
glyphname = I;
layers = (
{
layerId = "CD1C2F27-7B64-400F-B9B0-689659144D44";
paths = (
{
nodes = (
"342 679 LINE",
"342 666 LINE",
"326 660 OFFCURVE",
"296 638 OFFCURVE",
"296 618 QCURVE SMOOTH",
"296 62 LINE SMOOTH",
"296 42 OFFCURVE",
"326 20 OFFCURVE",
"342 14 QCURVE",
"342 0 LINE",
"22 0 LINE",
"22 14 LINE",
"38 20 OFFCURVE",
"68 42 OFFCURVE",
"68 62 QCURVE SMOOTH",
"68 618 LINE SMOOTH",
"68 638 OFFCURVE",
"38 660 OFFCURVE",
"22 666 QCURVE",
"22 679 LINE"
);
}
);
width = 359;
}
);
unicode = 0049;
},
{
glyphname = J;
layers = (
{
layerId = "CD1C2F27-7B64-400F-B9B0-689659144D44";
paths = (
{
nodes = (
"124 493 LINE SMOOTH",
"104 493 OFFCURVE",
"74 473 OFFCURVE",
"64 456 QCURVE",
"48 456 LINE",
"48 678 LINE",
"621 678 LINE",
"621 92 LINE SMOOTH",
"621 62 OFFCURVE",
"592 25 OFFCURVE",
"547 6 OFFCURVE",
"494 0 OFFCURVE",
"470 0 QCURVE SMOOTH",
"199 0 LINE SMOOTH",
"175 0 OFFCURVE",
"122 6 OFFCURVE",
"77 25 OFFCURVE",
"48 61 OFFCURVE",
"48 92 QCURVE SMOOTH",
"48 246 LINE",
"321 246 LINE",
"321 233 LINE",
"305 227 OFFCURVE",
"275 205 OFFCURVE",
"275 185 QCURVE",
"394 185 LINE",
"394 493 LINE"
);
}
);
width = 683;
}
);
unicode = 004A;
},
{
glyphname = K;
layers = (
{
layerId = "CD1C2F27-7B64-400F-B9B0-689659144D44";
paths = (
{
nodes = (
"339 666 LINE",
"323 660 OFFCURVE",
"293 637 OFFCURVE",
"293 617 QCURVE SMOOTH",
"293 401 LINE",
"445 401 LINE",
"445 617 LINE SMOOTH",
"445 637 OFFCURVE",
"414 660 OFFCURVE",
"398 666 QCURVE",
"398 679 LINE",
"718 679 LINE",
"718 666 LINE",
"701 660 OFFCURVE",
"672 637 OFFCURVE",
"672 617 QCURVE SMOOTH",
"672 489 LINE SMOOTH",
"672 464 OFFCURVE",
"653 411 OFFCURVE",
"620 368 OFFCURVE",
"574 340 OFFCURVE",
"547 340 QCURVE",
"575 340 OFFCURVE",
"621 308 OFFCURVE",
"654 260 OFFCURVE",
"672 203 OFFCURVE",
"672 179 QCURVE SMOOTH",
"672 62 LINE SMOOTH",
"672 42 OFFCURVE",
"701 19 OFFCURVE",
"718 13 QCURVE",
"718 0 LINE",
"398 0 LINE",
"398 13 LINE",
"414 19 OFFCURVE",
"445 42 OFFCURVE",
"445 62 QCURVE SMOOTH",
"445 278 LINE",
"293 278 LINE",
"293 62 LINE SMOOTH",
"293 42 OFFCURVE",
"323 19 OFFCURVE",
"339 13 QCURVE",
"339 0 LINE",
"20 0 LINE",
"20 13 LINE",
"37 19 OFFCURVE",
"66 42 OFFCURVE",
"66 62 QCURVE SMOOTH",
"66 617 LINE SMOOTH",
"66 637 OFFCURVE",
"37 660 OFFCURVE",
"20 666 QCURVE",
"20 679 LINE",
"339 679 LINE"
);
}
);
width = 738;
}
);
unicode = 004B;
},
{
glyphname = L;
layers = (
{
layerId = "CD1C2F27-7B64-400F-B9B0-689659144D44";
paths = (
{
nodes = (
"540 222 LINE",
"540 0 LINE",
"17 0 LINE",
"17 13 LINE",
"32 19 OFFCURVE",
"63 42 OFFCURVE",
"63 61 QCURVE SMOOTH",
"63 617 LINE SMOOTH",
"63 636 OFFCURVE",
"33 660 OFFCURVE",
"17 666 QCURVE",
"17 679 LINE",
"336 679 LINE",
"336 666 LINE",
"320 660 OFFCURVE",
"290 637 OFFCURVE",
"290 617 QCURVE SMOOTH",
"290 185 LINE",
"464 185 LINE SMOOTH",
"484 185 OFFCURVE",
"513 205 OFFCURVE",
"524 222 QCURVE"
);
}
);
width = 574;
}
);
unicode = 004C;
},
{
glyphname = M;
layers = (
{
layerId = "CD1C2F27-7B64-400F-B9B0-689659144D44";
paths = (
{
nodes = (
"787 62 LINE SMOOTH",
"787 42 OFFCURVE",
"816 19 OFFCURVE",
"833 13 QCURVE",
"833 0 LINE",
"513 0 LINE",
"513 13 LINE",
"530 19 OFFCURVE",
"559 42 OFFCURVE",
"559 62 QCURVE SMOOTH",
"559 359 LINE",
"427 162 LINE",
"394 212 OFFCURVE",
"328 310 OFFCURVE",
"294 359 QCURVE",
"294 62 LINE SMOOTH",
"294 42 OFFCURVE",
"325 19 OFFCURVE",
"341 13 QCURVE",
"341 0 LINE",
"21 0 LINE",
"21 13 LINE",
"38 19 OFFCURVE",
"67 42 OFFCURVE",
"67 62 QCURVE SMOOTH",
"67 617 LINE SMOOTH",
"67 637 OFFCURVE",
"38 660 OFFCURVE",
"21 666 QCURVE",
"21 679 LINE",
"341 679 LINE",
"341 666 LINE",
"325 660 OFFCURVE",
"294 637 OFFCURVE",
"294 617 QCURVE",
"427 419 LINE",
"559 617 LINE",
"559 637 OFFCURVE",
"530 660 OFFCURVE",
"513 666 QCURVE",
"513 679 LINE",
"833 679 LINE",
"833 666 LINE",
"816 660 OFFCURVE",
"787 637 OFFCURVE",
"787 617 QCURVE SMOOTH"
);
}
);
width = 851;
}
);
unicode = 004D;
},
{
glyphname = N;
layers = (
{
layerId = "CD1C2F27-7B64-400F-B9B0-689659144D44";
paths = (
{
nodes = (
"17 13 LINE",
"34 19 OFFCURVE",
"63 42 OFFCURVE",
"63 62 QCURVE SMOOTH",
"63 617 LINE SMOOTH",
"63 637 OFFCURVE",
"34 660 OFFCURVE",
"17 666 QCURVE",
"17 679 LINE",
"336 679 LINE",
"336 666 LINE",
"320 660 OFFCURVE",
"290 637 OFFCURVE",
"290 617 QCURVE SMOOTH",
"290 494 LINE",
"442 344 LINE",
"442 617 LINE SMOOTH",
"442 637 OFFCURVE",
"413 660 OFFCURVE",
"396 666 QCURVE",
"396 679 LINE",
"715 679 LINE",
"715 666 LINE",
"698 660 OFFCURVE",
"669 637 OFFCURVE",
"669 617 QCURVE SMOOTH",
"669 62 LINE SMOOTH",
"669 42 OFFCURVE",
"698 19 OFFCURVE",
"715 13 QCURVE",
"715 0 LINE",
"396 0 LINE",
"396 13 LINE",
"413 19 OFFCURVE",
"442 42 OFFCURVE",
"442 62 QCURVE SMOOTH",
"442 150 LINE",
"290 300 LINE",
"290 62 LINE SMOOTH",
"290 42 OFFCURVE",
"320 19 OFFCURVE",
"336 13 QCURVE",
"336 0 LINE",
"17 0 LINE"
);
}
);
width = 727;
}
);
unicode = 004E;
},
{
glyphname = O;
layers = (
{
layerId = "CD1C2F27-7B64-400F-B9B0-689659144D44";
paths = (
{
nodes = (
"654 92 LINE SMOOTH",
"654 62 OFFCURVE",
"624 25 OFFCURVE",
"579 6 OFFCURVE",
"526 0 OFFCURVE",
"502 0 QCURVE SMOOTH",
"199 0 LINE SMOOTH",
"175 0 OFFCURVE",
"122 6 OFFCURVE",
"77 25 OFFCURVE",
"48 62 OFFCURVE",
"48 92 QCURVE SMOOTH",
"48 586 LINE SMOOTH",
"48 616 OFFCURVE",
"77 653 OFFCURVE",
"122 672 OFFCURVE",
"175 678 OFFCURVE",
"199 678 QCURVE SMOOTH",
"502 678 LINE SMOOTH",
"526 678 OFFCURVE",
"579 672 OFFCURVE",
"624 653 OFFCURVE",
"654 616 OFFCURVE",
"654 586 QCURVE SMOOTH"
);
},
{
nodes = (
"426 185 LINE",
"426 493 LINE",
"275 493 LINE",
"275 185 LINE"
);
}
);
width = 700;
}
);
unicode = 004F;
},
{
glyphname = P;
layers = (
{
layerId = "CD1C2F27-7B64-400F-B9B0-689659144D44";
paths = (
{
nodes = (
"293 61 LINE SMOOTH",
"293 41 OFFCURVE",
"323 19 OFFCURVE",
"339 13 QCURVE",
"339 0 LINE",
"20 0 LINE",
"20 13 LINE",
"35 19 OFFCURVE",
"66 42 OFFCURVE",
"66 61 QCURVE SMOOTH",
"66 617 LINE SMOOTH",
"66 636 OFFCURVE",
"36 660 OFFCURVE",
"20 666 QCURVE",
"20 679 LINE",
"480 679 LINE SMOOTH",
"504 679 OFFCURVE",
"557 673 OFFCURVE",
"602 653 OFFCURVE",
"632 616 OFFCURVE",
"632 586 QCURVE SMOOTH",
"632 370 LINE SMOOTH",
"632 343 OFFCURVE",
"608 308 OFFCURVE",
"569 287 OFFCURVE",
"520 278 OFFCURVE",
"469 276 OFFCURVE",
"421 277 OFFCURVE",
"404 277 QCURVE SMOOTH",
"293 277 LINE"
);
},
{
nodes = (
"404 401 LINE",
"404 494 LINE",
"293 494 LINE",
"293 401 LINE"
);
}
);
width = 656;
}
);
unicode = 0050;
},
{
glyphname = R;
layers = (
{
layerId = "CD1C2F27-7B64-400F-B9B0-689659144D44";
paths = (
{
nodes = (
"15 678 LINE",
"493 678 LINE SMOOTH",
"520 678 OFFCURVE",
"573 666 OFFCURVE",
"617 640 OFFCURVE",
"644 597 OFFCURVE",
"644 566 QCURVE SMOOTH",
"644 455 LINE SMOOTH",
"644 429 OFFCURVE",
"624 386 OFFCURVE",
"589 356 OFFCURVE",
"544 339 OFFCURVE",
"519 339 QCURVE",
"544 339 OFFCURVE",
"590 321 OFFCURVE",
"624 289 OFFCURVE",
"644 245 OFFCURVE",
"644 219 QCURVE SMOOTH",
"644 189 LINE",
"644 61 LINE SMOOTH",
"644 41 OFFCURVE",
"675 18 OFFCURVE",
"691 13 QCURVE",
"691 0 LINE",
"371 0 LINE",
"371 13 LINE",
"387 19 OFFCURVE",
"417 41 OFFCURVE",
"417 61 QCURVE SMOOTH",
"417 277 LINE",
"288 277 LINE",
"288 61 LINE SMOOTH",
"288 41 OFFCURVE",
"318 19 OFFCURVE",
"334 13 QCURVE",
"334 0 LINE",
"15 0 LINE",
"15 13 LINE",
"31 19 OFFCURVE",
"61 42 OFFCURVE",
"61 61 QCURVE SMOOTH",
"61 617 LINE SMOOTH",
"61 636 OFFCURVE",
"30 659 OFFCURVE",
"15 665 QCURVE"
);
},
{
nodes = (
"417 401 LINE",
"417 493 LINE",
"288 493 LINE",
"288 401 LINE"
);
}
);
width = 705;
}
);
unicode = 0052;
},
{
glyphname = Q;
layers = (
{
layerId = "CD1C2F27-7B64-400F-B9B0-689659144D44";
paths = (
{
nodes = (
"513 -86 LINE",
"193 -86 LINE",
"193 -73 LINE",
"209 -67 OFFCURVE",
"228 -54 OFFCURVE",
"237 -38 OFFCURVE",
"239 -16 OFFCURVE",
"239 0 QCURVE",
"213 0 OFFCURVE",
"148 1 OFFCURVE",
"90 18 OFFCURVE",
"50 56 OFFCURVE",
"50 93 QCURVE SMOOTH",
"50 586 LINE SMOOTH",
"50 616 OFFCURVE",
"79 653 OFFCURVE",
"124 673 OFFCURVE",
"177 679 OFFCURVE",
"201 679 QCURVE SMOOTH",
"504 679 LINE SMOOTH",
"528 679 OFFCURVE",
"581 673 OFFCURVE",
"626 653 OFFCURVE",
"656 616 OFFCURVE",
"656 586 QCURVE SMOOTH",
"656 93 LINE SMOOTH",
"656 57 OFFCURVE",
"616 18 OFFCURVE",
"557 2 OFFCURVE",
"491 0 OFFCURVE",
"466 0 QCURVE",
"466 -24 LINE SMOOTH",
"466 -44 OFFCURVE",
"497 -67 OFFCURVE",
"513 -73 QCURVE"
);
},
{
nodes = (
"429 185 LINE",
"429 494 LINE",
"277 494 LINE",
"277 185 LINE"
);
}
);
width = 703;
}
);
unicode = 0051;
},
{
glyphname = S;
layers = (
{
layerId = "CD1C2F27-7B64-400F-B9B0-689659144D44";
paths = (
{
nodes = (
"622 92 LINE SMOOTH",
"622 62 OFFCURVE",
"593 25 OFFCURVE",
"548 6 OFFCURVE",
"495 0 OFFCURVE",
"471 0 QCURVE SMOOTH",
"197 0 LINE SMOOTH",
"173 0 OFFCURVE",
"120 6 OFFCURVE",
"75 25 OFFCURVE",
"46 62 OFFCURVE",
"46 92 QCURVE SMOOTH",
"46 246 LINE",
"319 246 LINE",
"319 233 LINE",
"303 228 OFFCURVE",
"273 205 OFFCURVE",
"273 185 QCURVE",
"395 185 LINE",
"395 277 LINE",
"273 277 LINE SMOOTH",
"246 277 OFFCURVE",
"169 275 OFFCURVE",
"97 289 OFFCURVE",
"46 329 OFFCURVE",
"46 370 QCURVE SMOOTH",
"46 586 LINE SMOOTH",
"46 616 OFFCURVE",
"75 653 OFFCURVE",
"120 672 OFFCURVE",
"173 678 OFFCURVE",
"197 678 QCURVE SMOOTH",
"471 678 LINE SMOOTH",
"495 678 OFFCURVE",
"548 672 OFFCURVE",
"593 653 OFFCURVE",
"622 616 OFFCURVE",
"622 586 QCURVE SMOOTH",
"622 431 LINE",
"349 431 LINE",
"349 445 LINE",
"365 451 OFFCURVE",
"395 474 OFFCURVE",
"395 493 QCURVE",
"273 493 LINE",
"273 401 LINE",
"395 401 LINE SMOOTH",
"422 401 OFFCURVE",
"499 403 OFFCURVE",
"571 389 OFFCURVE",
"622 349 OFFCURVE",
"622 308 QCURVE SMOOTH"
);
}
);
width = 673;
}
);
unicode = 0053;
},
{
glyphname = T;
layers = (
{
layerId = "CD1C2F27-7B64-400F-B9B0-689659144D44";
paths = (
{
nodes = (
"19 679 LINE",
"544 679 LINE",
"544 456 LINE",
"528 456 LINE",
"518 473 OFFCURVE",
"489 494 OFFCURVE",
"469 494 QCURVE SMOOTH",
"396 494 LINE",
"396 62 LINE SMOOTH",
"396 42 OFFCURVE",
"425 19 OFFCURVE",
"442 13 QCURVE",
"442 0 LINE",
"123 0 LINE",
"123 13 LINE",
"139 19 OFFCURVE",
"169 42 OFFCURVE",
"169 62 QCURVE SMOOTH",
"169 494 LINE",
"95 494 LINE SMOOTH",
"75 494 OFFCURVE",
"46 473 OFFCURVE",
"36 456 QCURVE",
"19 456 LINE"
);
}
);
width = 565;
}
);
unicode = 0054;
},
{
glyphname = U;
layers = (
{
layerId = "CD1C2F27-7B64-400F-B9B0-689659144D44";
paths = (
{
nodes = (
"331 679 LINE",
"331 666 LINE",
"315 660 OFFCURVE",
"285 637 OFFCURVE",
"285 617 QCURVE SMOOTH",
"285 185 LINE",
"413 185 LINE",
"413 617 LINE SMOOTH",
"413 637 OFFCURVE",
"383 660 OFFCURVE",
"367 666 QCURVE",
"367 679 LINE",
"687 679 LINE",
"687 666 LINE",
"671 660 OFFCURVE",
"640 637 OFFCURVE",
"640 617 QCURVE SMOOTH",
"640 97 LINE SMOOTH",
"640 67 OFFCURVE",
"611 29 OFFCURVE",
"566 8 OFFCURVE",
"513 0 OFFCURVE",
"489 0 QCURVE SMOOTH",
"209 0 LINE SMOOTH",
"185 0 OFFCURVE",
"131 8 OFFCURVE",
"87 30 OFFCURVE",
"58 68 OFFCURVE",
"58 99 QCURVE SMOOTH",
"58 617 LINE SMOOTH",
"58 636 OFFCURVE",
"28 660 OFFCURVE",
"12 666 QCURVE",
"12 679 LINE"
);
}
);
width = 704;
}
);
unicode = 0055;
},
{
glyphname = V;
layers = (
{
layerId = "CD1C2F27-7B64-400F-B9B0-689659144D44";
paths = (
{
nodes = (
"543 0 LINE",
"177 0 LINE",
"177 13 LINE",
"187 17 OFFCURVE",
"210 32 OFFCURVE",
"210 44 QCURVE SMOOTH",
"210 51 OFFCURVE",
"187 86 OFFCURVE",
"153 135 OFFCURVE",
"114 193 OFFCURVE",
"80 251 OFFCURVE",
"57 305 OFFCURVE",
"57 325 QCURVE SMOOTH",
"57 617 LINE SMOOTH",
"57 637 OFFCURVE",
"27 660 OFFCURVE",
"11 666 QCURVE",
"11 679 LINE",
"330 679 LINE",
"330 666 LINE",
"314 660 OFFCURVE",
"284 637 OFFCURVE",
"284 617 QCURVE SMOOTH",
"284 387 LINE SMOOTH",
"284 350 OFFCURVE",
"293 303 OFFCURVE",
"311 265 OFFCURVE",
"340 226 OFFCURVE",
"360 197 QCURVE",
"382 230 OFFCURVE",
"412 271 OFFCURVE",
"429 309 OFFCURVE",
"436 358 OFFCURVE",
"436 400 QCURVE SMOOTH",
"436 617 LINE SMOOTH",
"436 636 OFFCURVE",
"406 660 OFFCURVE",
"390 666 QCURVE",
"390 679 LINE",
"709 679 LINE",
"709 666 LINE",
"693 660 OFFCURVE",
"663 637 OFFCURVE",
"663 617 QCURVE SMOOTH",
"663 325 LINE SMOOTH",
"663 305 OFFCURVE",
"640 252 OFFCURVE",
"606 194 OFFCURVE",
"567 136 OFFCURVE",
"533 87 OFFCURVE",
"510 52 OFFCURVE",
"510 45 QCURVE SMOOTH",
"510 32 OFFCURVE",
"533 17 OFFCURVE",
"543 13 QCURVE"
);
}
);
width = 720;
}
);
unicode = 0056;
},
{
glyphname = W;
layers = (
{
layerId = "CD1C2F27-7B64-400F-B9B0-689659144D44";
paths = (
{
nodes = (
"1084 679 LINE",
"1084 666 LINE",
"1062 657 OFFCURVE",
"1042 637 OFFCURVE",
"1036 611 OFFCURVE",
"1038 578 OFFCURVE",
"1038 556 QCURVE SMOOTH",
"1038 326 LINE SMOOTH",
"1038 278 OFFCURVE",
"1010 236 QCURVE SMOOTH",
"1005 229 OFFCURVE",
"984 199 OFFCURVE",
"956 159 OFFCURVE",
"926 116 OFFCURVE",
"902 78 OFFCURVE",
"886 49 OFFCURVE",
"886 45 QCURVE SMOOTH",
"886 32 OFFCURVE",
"908 17 OFFCURVE",
"919 13 QCURVE",
"919 0 LINE",
"552 0 LINE",
"552 13 LINE",
"563 17 OFFCURVE",
"585 32 OFFCURVE",
"585 45 QCURVE SMOOTH",
"585 51 OFFCURVE",
"576 70 OFFCURVE",
"563 89 OFFCURVE",
"550 106 OFFCURVE",
"546 111 QCURVE",
"542 106 OFFCURVE",
"529 89 OFFCURVE",
"516 70 OFFCURVE",
"507 51 OFFCURVE",
"507 45 QCURVE SMOOTH",
"507 32 OFFCURVE",
"529 17 OFFCURVE",
"540 13 QCURVE",
"540 0 LINE",
"174 0 LINE",
"174 13 LINE",
"184 17 OFFCURVE",
"207 32 OFFCURVE",
"207 45 QCURVE SMOOTH",
"207 51 OFFCURVE",
"173 105 OFFCURVE",
"130 169 OFFCURVE",
"89 226 OFFCURVE",
"83 236 QCURVE SMOOTH",
"69 257 OFFCURVE",
"54 300 OFFCURVE",
"54 326 QCURVE SMOOTH",
"54 556 LINE SMOOTH",
"54 578 OFFCURVE",
"56 611 OFFCURVE",
"50 637 OFFCURVE",
"30 657 OFFCURVE",
"8 666 QCURVE",
"8 679 LINE",
"327 679 LINE",
"327 666 LINE",
"310 660 OFFCURVE",
"281 637 OFFCURVE",
"281 617 QCURVE SMOOTH",
"281 357 LINE SMOOTH",
"281 334 OFFCURVE",
"295 292 OFFCURVE",
"317 253 OFFCURVE",
"344 216 OFFCURVE",
"357 198 QCURVE",
"370 217 OFFCURVE",
"396 253 OFFCURVE",
"418 292 OFFCURVE",
"432 333 OFFCURVE",
"432 357 QCURVE SMOOTH",
"432 617 LINE SMOOTH",
"432 637 OFFCURVE",
"403 659 OFFCURVE",
"387 666 QCURVE",
"387 679 LINE",
"706 679 LINE",
"706 666 LINE",
"689 660 OFFCURVE",
"660 637 OFFCURVE",
"660 617 QCURVE SMOOTH",
"660 357 LINE SMOOTH",
"660 333 OFFCURVE",
"674 291 OFFCURVE",
"696 253 OFFCURVE",
"722 217 OFFCURVE",
"735 198 QCURVE",
"748 217 OFFCURVE",
"775 254 OFFCURVE",
"797 292 OFFCURVE",
"811 333 OFFCURVE",
"811 357 QCURVE SMOOTH",
"811 617 LINE SMOOTH",
"811 637 OFFCURVE",
"782 660 OFFCURVE",
"765 666 QCURVE",
"765 679 LINE"
);
}
);
width = 1091;
}
);
unicode = 0057;
},
{
glyphname = X;
layers = (
{
layerId = "CD1C2F27-7B64-400F-B9B0-689659144D44";
paths = (
{
nodes = (
"414 617 LINE SMOOTH",
"414 637 OFFCURVE",
"383 660 OFFCURVE",
"367 666 QCURVE",
"367 679 LINE",
"687 679 LINE",
"687 666 LINE",
"671 660 OFFCURVE",
"641 637 OFFCURVE",
"641 617 QCURVE SMOOTH",
"641 478 LINE SMOOTH",
"641 452 OFFCURVE",
"621 403 OFFCURVE",
"586 363 OFFCURVE",
"539 339 OFFCURVE",
"512 339 QCURVE",
"538 339 OFFCURVE",
"585 317 OFFCURVE",
"620 280 OFFCURVE",
"641 232 OFFCURVE",
"641 207 QCURVE SMOOTH",
"641 62 LINE SMOOTH",
"641 42 OFFCURVE",
"670 19 OFFCURVE",
"687 13 QCURVE",
"687 0 LINE",
"367 0 LINE",
"367 13 LINE",
"383 19 OFFCURVE",
"414 42 OFFCURVE",
"414 62 QCURVE SMOOTH",
"414 278 LINE",
"284 278 LINE",
"284 62 LINE SMOOTH",
"284 42 OFFCURVE",
"313 19 OFFCURVE",
"330 13 QCURVE",
"330 0 LINE",
"11 0 LINE",
"11 13 LINE",
"27 19 OFFCURVE",
"57 42 OFFCURVE",
"57 62 QCURVE SMOOTH",
"57 202 LINE SMOOTH",
"57 227 OFFCURVE",
"76 276 OFFCURVE",
"109 315 OFFCURVE",
"155 339 OFFCURVE",
"181 339 QCURVE",
"155 339 OFFCURVE",
"109 361 OFFCURVE",
"76 397 OFFCURVE",
"57 444 OFFCURVE",
"57 470 QCURVE SMOOTH",
"57 617 LINE SMOOTH",
"57 636 OFFCURVE",
"27 660 OFFCURVE",
"11 666 QCURVE",
"11 679 LINE",
"330 679 LINE",
"330 666 LINE",
"314 660 OFFCURVE",
"284 637 OFFCURVE",
"284 617 QCURVE SMOOTH",
"284 401 LINE",
"414 401 LINE"
);
}
);
width = 704;
}
);
unicode = 0058;
},
{
glyphname = Y;
layers = (
{
layerId = "CD1C2F27-7B64-400F-B9B0-689659144D44";
paths = (
{
nodes = (
"452 278 LINE",
"452 62 LINE SMOOTH",
"452 42 OFFCURVE",
"481 19 OFFCURVE",
"498 13 QCURVE",
"498 0 LINE",
"178 0 LINE",
"178 13 LINE",
"194 19 OFFCURVE",
"225 42 OFFCURVE",
"225 62 QCURVE SMOOTH",
"225 278 LINE",
"172 278 LINE SMOOTH",
"120 278 OFFCURVE",
"72 330 OFFCURVE",
"55 406 OFFCURVE",
"58 492 OFFCURVE",
"58 525 QCURVE SMOOTH",
"58 617 LINE SMOOTH",
"58 637 OFFCURVE",
"29 660 OFFCURVE",
"12 666 QCURVE",
"12 679 LINE",
"331 679 LINE",
"331 666 LINE",
"315 660 OFFCURVE",
"285 637 OFFCURVE",
"285 617 QCURVE SMOOTH",
"285 401 LINE",
"401 401 LINE",
"401 617 LINE SMOOTH",
"401 637 OFFCURVE",
"371 660 OFFCURVE",
"355 666 QCURVE",
"355 679 LINE",
"674 679 LINE",
"674 666 LINE",
"657 660 OFFCURVE",
"628 637 OFFCURVE",
"628 617 QCURVE SMOOTH",
"628 525 LINE SMOOTH",
"628 492 OFFCURVE",
"631 406 OFFCURVE",
"614 330 OFFCURVE",
"566 278 OFFCURVE",
"514 278 QCURVE SMOOTH"
);
}
);
width = 688;
}
);
unicode = 0059;
},
{
glyphname = Z;
layers = (
{
layerId = "CD1C2F27-7B64-400F-B9B0-689659144D44";
paths = (
{
nodes = (
"642 0 LINE",
"36 0 LINE",
"381 494 LINE",
"111 494 LINE SMOOTH",
"91 494 OFFCURVE",
"62 473 OFFCURVE",
"52 456 QCURVE",
"36 456 LINE",
"36 679 LINE",
"642 679 LINE",
"642 494 LINE",
"426 185 LINE",
"566 185 LINE SMOOTH",
"586 185 OFFCURVE",
"615 205 OFFCURVE",
"626 222 QCURVE",
"642 222 LINE"
);
}
);
width = 683;
}
);
unicode = 005A;
},
{
glyphname = zero;
layers = (
{
layerId = "CD1C2F27-7B64-400F-B9B0-689659144D44";
paths = (
{
nodes = (
"654 92 LINE SMOOTH",
"654 62 OFFCURVE",
"624 25 OFFCURVE",
"579 6 OFFCURVE",
"526 0 OFFCURVE",
"502 0 QCURVE SMOOTH",
"199 0 LINE SMOOTH",
"175 0 OFFCURVE",
"122 6 OFFCURVE",
"77 25 OFFCURVE",
"48 62 OFFCURVE",
"48 92 QCURVE SMOOTH",
"48 586 LINE SMOOTH",
"48 616 OFFCURVE",
"77 653 OFFCURVE",
"122 672 OFFCURVE",
"175 678 OFFCURVE",
"199 678 QCURVE SMOOTH",
"502 678 LINE SMOOTH",
"526 678 OFFCURVE",
"579 672 OFFCURVE",
"624 653 OFFCURVE",
"654 616 OFFCURVE",
"654 586 QCURVE SMOOTH"
);
},
{
nodes = (
"426 185 LINE",
"426 493 LINE",
"275 493 LINE",
"275 185 LINE"
);
}
);
width = 700;
}
);
unicode = 0030;
},
{
glyphname = one;
layers = (
{
layerId = "CD1C2F27-7B64-400F-B9B0-689659144D44";
paths = (
{
nodes = (
"346 62 LINE SMOOTH",
"346 42 OFFCURVE",
"375 19 OFFCURVE",
"392 13 QCURVE",
"392 0 LINE",
"73 0 LINE",
"73 13 LINE",
"90 19 OFFCURVE",
"119 42 OFFCURVE",
"119 62 QCURVE SMOOTH",
"119 445 LINE",
"89 445 LINE SMOOTH",
"69 445 OFFCURVE",
"44 424 OFFCURVE",
"34 408 QCURVE",
"18 408 LINE",
"18 551 LINE",
"59 586 OFFCURVE",
"147 652 OFFCURVE",
"194 679 QCURVE",
"392 679 LINE",
"392 666 LINE",
"375 660 OFFCURVE",
"346 637 OFFCURVE",
"346 617 QCURVE SMOOTH"
);
}
);
width = 408;
}
);
unicode = 0031;
},
{
glyphname = two;
layers = (
{
layerId = "CD1C2F27-7B64-400F-B9B0-689659144D44";
paths = (
{
nodes = (
"279 494 LINE",
"279 474 OFFCURVE",
"308 451 OFFCURVE",
"325 445 QCURVE",
"325 432 LINE",
"57 432 LINE",
"57 587 LINE SMOOTH",
"57 617 OFFCURVE",
"87 654 OFFCURVE",
"132 673 OFFCURVE",
"186 679 OFFCURVE",
"209 679 QCURVE SMOOTH",
"463 679 LINE SMOOTH",
"486 679 OFFCURVE",
"539 673 OFFCURVE",
"584 654 OFFCURVE",
"614 617 OFFCURVE",
"614 587 QCURVE SMOOTH",
"614 370 LINE SMOOTH",
"614 343 OFFCURVE",
"590 308 OFFCURVE",
"551 288 OFFCURVE",
"502 279 OFFCURVE",
"451 277 OFFCURVE",
"404 278 OFFCURVE",
"387 278 QCURVE SMOOTH",
"279 278 LINE",
"279 185 LINE",
"539 185 LINE SMOOTH",
"559 185 OFFCURVE",
"589 206 OFFCURVE",
"598 223 QCURVE",
"614 223 LINE",
"614 0 LINE",
"57 0 LINE",
"57 309 LINE SMOOTH",
"57 349 OFFCURVE",
"107 388 OFFCURVE",
"177 402 OFFCURVE",
"253 401 OFFCURVE",
"279 401 QCURVE SMOOTH",
"387 401 LINE",
"387 494 LINE"
);
}
);
width = 662;
}
);
unicode = 0032;
},
{
glyphname = three;
layers = (
{
layerId = "CD1C2F27-7B64-400F-B9B0-689659144D44";
paths = (
{
nodes = (
"290 247 LINE",
"290 234 LINE",
"273 228 OFFCURVE",
"244 205 OFFCURVE",
"244 185 QCURVE",
"359 185 LINE",
"359 278 LINE",
"244 278 LINE",
"244 401 LINE",
"359 401 LINE",
"359 494 LINE",
"244 494 LINE",
"244 474 OFFCURVE",
"273 451 OFFCURVE",
"290 445 QCURVE",
"290 432 LINE",
"47 432 LINE",
"47 586 LINE SMOOTH",
"47 616 OFFCURVE",
"77 653 OFFCURVE",
"122 673 OFFCURVE",
"175 679 OFFCURVE",
"199 679 QCURVE SMOOTH",
"435 679 LINE SMOOTH",
"459 679 OFFCURVE",
"512 673 OFFCURVE",
"557 653 OFFCURVE",
"586 616 OFFCURVE",
"586 586 QCURVE SMOOTH",
"586 432 LINE SMOOTH",
"586 379 OFFCURVE",
"521 339 OFFCURVE",
"473 339 QCURVE",
"497 339 OFFCURVE",
"538 330 OFFCURVE",
"569 309 OFFCURVE",
"586 274 OFFCURVE",
"586 247 QCURVE SMOOTH",
"586 93 LINE SMOOTH",
"586 63 OFFCURVE",
"557 26 OFFCURVE",
"512 6 OFFCURVE",
"459 0 OFFCURVE",
"435 0 QCURVE SMOOTH",
"313 0 LINE",
"331 0 LINE",
"199 0 LINE SMOOTH",
"175 0 OFFCURVE",
"122 6 OFFCURVE",
"77 26 OFFCURVE",
"47 63 OFFCURVE",
"47 93 QCURVE SMOOTH",
"47 247 LINE"
);
}
);
width = 636;
}
);
unicode = 0033;
},
{
glyphname = four;
layers = (
{
layerId = "CD1C2F27-7B64-400F-B9B0-689659144D44";
paths = (
{
nodes = (
"659 346 LINE",
"659 185 LINE",
"643 185 LINE",
"637 195 OFFCURVE",
"632 210 OFFCURVE",
"625 218 OFFCURVE",
"612 222 OFFCURVE",
"598 222 QCURVE SMOOTH",
"585 222 LINE",
"585 62 LINE SMOOTH",
"585 43 OFFCURVE",
"615 20 OFFCURVE",
"631 14 QCURVE",
"631 0 LINE",
"326 0 LINE",
"326 14 LINE",
"342 20 OFFCURVE",
"372 42 OFFCURVE",
"372 62 QCURVE SMOOTH",
"372 222 LINE",
"20 222 LINE",
"23 232 OFFCURVE",
"39 282 OFFCURVE",
"60 347 OFFCURVE",
"82 417 OFFCURVE",
"101 479 OFFCURVE",
"113 524 OFFCURVE",
"113 530 QCURVE SMOOTH",
"113 550 OFFCURVE",
"84 576 OFFCURVE",
"68 584 QCURVE",
"68 597 LINE",
"348 597 LINE",
"270 346 LINE",
"372 346 LINE",
"372 618 LINE SMOOTH",
"372 638 OFFCURVE",
"342 660 OFFCURVE",
"326 666 QCURVE",
"326 679 LINE",
"631 679 LINE",
"631 666 LINE",
"616 660 OFFCURVE",
"585 637 OFFCURVE",
"585 618 QCURVE SMOOTH",
"585 346 LINE"
);
}
);
width = 675;
}
);
unicode = 0034;
},
{
glyphname = five;
layers = (
{
layerId = "CD1C2F27-7B64-400F-B9B0-689659144D44";
paths = (
{
nodes = (
"620 678 LINE",
"620 456 LINE",
"604 456 LINE",
"594 473 OFFCURVE",
"565 493 OFFCURVE",
"545 493 QCURVE SMOOTH",
"279 493 LINE",
"279 401 LINE",
"393 401 LINE SMOOTH",
"419 401 OFFCURVE",
"497 403 OFFCURVE",
"569 389 OFFCURVE",
"620 349 OFFCURVE",
"620 308 QCURVE SMOOTH",
"620 92 LINE SMOOTH",
"620 62 OFFCURVE",
"591 25 OFFCURVE",
"546 6 OFFCURVE",
"493 0 OFFCURVE",
"469 0 QCURVE SMOOTH",
"203 0 LINE SMOOTH",
"179 0 OFFCURVE",
"126 6 OFFCURVE",
"81 25 OFFCURVE",
"52 62 OFFCURVE",
"52 92 QCURVE SMOOTH",
"52 246 LINE",
"325 246 LINE",
"325 233 LINE",
"309 228 OFFCURVE",
"279 205 OFFCURVE",
"279 185 QCURVE",
"393 185 LINE",
"393 277 LINE",
"52 277 LINE",
"52 678 LINE"
);
}
);
width = 667;
}
);
unicode = 0035;
},
{
glyphname = six;
layers = (
{
layerId = "CD1C2F27-7B64-400F-B9B0-689659144D44";
paths = (
{
nodes = (
"609 92 LINE SMOOTH",
"609 62 OFFCURVE",
"579 25 OFFCURVE",
"534 6 OFFCURVE",
"480 0 OFFCURVE",
"457 0 QCURVE SMOOTH",
"197 0 LINE SMOOTH",
"174 0 OFFCURVE",
"121 6 OFFCURVE",
"76 25 OFFCURVE",
"46 62 OFFCURVE",
"46 92 QCURVE SMOOTH",
"46 586 LINE SMOOTH",
"46 616 OFFCURVE",
"75 653 OFFCURVE",
"120 673 OFFCURVE",
"173 679 OFFCURVE",
"197 679 QCURVE SMOOTH",
"457 679 LINE SMOOTH",
"481 679 OFFCURVE",
"534 673 OFFCURVE",
"579 653 OFFCURVE",
"609 616 OFFCURVE",
"609 586 QCURVE SMOOTH",
"609 432 LINE",
"335 432 LINE",
"335 445 LINE",
"351 451 OFFCURVE",
"382 474 OFFCURVE",
"382 494 QCURVE",
"273 494 LINE",
"273 401 LINE",
"382 401 LINE SMOOTH",
"408 401 OFFCURVE",
"486 403 OFFCURVE",
"558 388 OFFCURVE",
"609 349 OFFCURVE",
"609 308 QCURVE SMOOTH"
);
},
{
nodes = (
"382 185 LINE",
"382 277 LINE",
"273 277 LINE",
"273 185 LINE"
);
}
);
width = 657;
}
);
unicode = 0036;
},
{
glyphname = seven;
layers = (
{
layerId = "CD1C2F27-7B64-400F-B9B0-689659144D44";
paths = (
{
nodes = (
"34 679 LINE",
"577 679 LINE",
"577 494 LINE",
"345 0 LINE",
"92 0 LINE",
"325 494 LINE",
"110 494 LINE SMOOTH",
"89 494 OFFCURVE",
"61 473 OFFCURVE",
"50 456 QCURVE",
"34 456 LINE"
);
}
);
width = 612;
}
);
unicode = 0037;
},
{
glyphname = eight;
layers = (
{
layerId = "CD1C2F27-7B64-400F-B9B0-689659144D44";
paths = (
{
nodes = (
"274 278 LINE",
"274 185 LINE",
"374 185 LINE",
"374 278 LINE"
);
},
{
nodes = (
"46 247 LINE SMOOTH",
"46 273 OFFCURVE",
"64 309 OFFCURVE",
"95 330 OFFCURVE",
"136 339 OFFCURVE",
"160 339 QCURVE",
"136 339 OFFCURVE",
"94 348 OFFCURVE",
"64 370 OFFCURVE",
"46 405 OFFCURVE",
"46 432 QCURVE SMOOTH",
"46 586 LINE SMOOTH",
"46 616 OFFCURVE",
"76 653 OFFCURVE",
"121 673 OFFCURVE",
"174 679 OFFCURVE",
"198 679 QCURVE SMOOTH",
"450 679 LINE SMOOTH",
"474 679 OFFCURVE",
"527 673 OFFCURVE",
"572 653 OFFCURVE",
"601 616 OFFCURVE",
"601 586 QCURVE SMOOTH",
"601 432 LINE SMOOTH",
"601 406 OFFCURVE",
"583 370 OFFCURVE",
"553 348 OFFCURVE",
"512 339 OFFCURVE",
"488 339 QCURVE",
"512 339 OFFCURVE",
"553 330 OFFCURVE",
"583 309 OFFCURVE",
"601 273 OFFCURVE",
"601 247 QCURVE SMOOTH",
"601 92 LINE SMOOTH",
"601 62 OFFCURVE",
"571 25 OFFCURVE",
"526 6 OFFCURVE",
"473 0 OFFCURVE",
"450 0 QCURVE SMOOTH",
"374 0 LINE",
"379 0 LINE",
"198 0 LINE SMOOTH",
"175 0 OFFCURVE",
"121 6 OFFCURVE",
"76 25 OFFCURVE",
"46 62 OFFCURVE",
"46 92 QCURVE SMOOTH"
);
},
{
nodes = (
"374 401 LINE",
"374 494 LINE",
"274 494 LINE",
"274 401 LINE"
);
}
);
width = 644;
}
);
unicode = 0038;
},
{
glyphname = nine;
layers = (
{
layerId = "CD1C2F27-7B64-400F-B9B0-689659144D44";
paths = (
{
nodes = (
"274 401 LINE",
"386 401 LINE",
"386 494 LINE",
"274 494 LINE"
);
},
{
nodes = (
"320 234 LINE",
"305 228 OFFCURVE",
"274 205 OFFCURVE",
"274 186 QCURVE",
"386 186 LINE",
"386 278 LINE",
"274 278 LINE SMOOTH",
"248 278 OFFCURVE",
"171 276 OFFCURVE",
"99 290 OFFCURVE",
"47 329 OFFCURVE",
"47 370 QCURVE SMOOTH",
"47 587 LINE SMOOTH",
"47 617 OFFCURVE",
"77 653 OFFCURVE",
"122 673 OFFCURVE",
"175 679 OFFCURVE",
"198 679 QCURVE SMOOTH",
"461 679 LINE SMOOTH",
"484 679 OFFCURVE",
"538 673 OFFCURVE",
"583 654 OFFCURVE",
"613 617 OFFCURVE",
"613 587 QCURVE SMOOTH",
"613 93 LINE SMOOTH",
"613 63 OFFCURVE",
"583 26 OFFCURVE",
"538 6 OFFCURVE",
"485 0 OFFCURVE",
"461 0 QCURVE SMOOTH",
"198 0 LINE SMOOTH",
"174 0 OFFCURVE",
"121 6 OFFCURVE",
"76 26 OFFCURVE",
"47 63 OFFCURVE",
"47 93 QCURVE SMOOTH",
"47 247 LINE",
"320 247 LINE"
);
}
);
width = 657;
}
);
unicode = 0039;
},
{
glyphname = question;
layers = (
{
layerId = "CD1C2F27-7B64-400F-B9B0-689659144D44";
paths = (
{
nodes = (
"322 185 OFFCURVE",
"363 173 OFFCURVE",
"396 149 OFFCURVE",
"417 115 OFFCURVE",
"417 93 QCURVE SMOOTH",
"417 71 OFFCURVE",
"396 36 OFFCURVE",
"363 12 OFFCURVE",
"323 0 OFFCURVE",
"303 0 QCURVE SMOOTH",
"283 0 OFFCURVE",
"243 12 OFFCURVE",
"210 36 OFFCURVE",
"190 71 OFFCURVE",
"190 93 QCURVE SMOOTH",
"190 115 OFFCURVE",
"210 149 OFFCURVE",
"243 173 OFFCURVE",
"283 185 OFFCURVE",
"303 185 QCURVE SMOOTH"
);
},
{
nodes = (
"32 432 LINE",
"32 587 LINE SMOOTH",
"32 617 OFFCURVE",
"62 654 OFFCURVE",
"107 673 OFFCURVE",
"161 679 OFFCURVE",
"184 679 QCURVE SMOOTH",
"487 679 LINE SMOOTH",
"510 679 OFFCURVE",
"563 673 OFFCURVE",
"608 654 OFFCURVE",
"638 617 OFFCURVE",
"638 587 QCURVE SMOOTH",
"638 370 LINE SMOOTH",
"638 330 OFFCURVE",
"589 292 OFFCURVE",
"519 277 OFFCURVE",
"444 278 OFFCURVE",
"417 278 QCURVE",
"417 258 OFFCURVE",
"447 235 OFFCURVE",
"463 229 QCURVE",
"463 216 LINE",
"143 216 LINE",
"143 229 LINE",
"161 236 OFFCURVE",
"180 250 OFFCURVE",
"189 268 OFFCURVE",
"190 292 OFFCURVE",
"190 309 QCURVE SMOOTH",
"190 349 OFFCURVE",
"239 387 OFFCURVE",
"309 402 OFFCURVE",
"384 401 OFFCURVE",
"411 401 QCURVE",
"411 494 LINE",
"259 494 LINE",
"259 474 OFFCURVE",
"290 451 OFFCURVE",
"306 445 QCURVE",
"306 432 LINE"
);
}
);
width = 670;
}
);
unicode = 003F;
},
{
glyphname = exclam;
layers = (
{
layerId = "CD1C2F27-7B64-400F-B9B0-689659144D44";
paths = (
{
nodes = (
"331 216 LINE",
"12 216 LINE",
"12 230 LINE",
"28 236 OFFCURVE",
"58 259 OFFCURVE",
"58 278 QCURVE SMOOTH",
"58 618 LINE SMOOTH",
"58 637 OFFCURVE",
"27 660 OFFCURVE",
"12 666 QCURVE",
"12 679 LINE",
"331 679 LINE",
"331 666 LINE",
"316 660 OFFCURVE",
"285 637 OFFCURVE",
"285 618 QCURVE SMOOTH",
"285 278 LINE SMOOTH",
"285 259 OFFCURVE",
"315 236 OFFCURVE",
"331 230 QCURVE"
);
},
{
nodes = (
"285 71 OFFCURVE",
"264 37 OFFCURVE",
"232 13 OFFCURVE",
"191 0 OFFCURVE",
"172 0 QCURVE SMOOTH",
"152 0 OFFCURVE",
"112 12 OFFCURVE",
"79 36 OFFCURVE",
"58 71 OFFCURVE",
"58 93 QCURVE SMOOTH",
"58 115 OFFCURVE",
"79 150 OFFCURVE",
"112 174 OFFCURVE",
"152 186 OFFCURVE",
"172 186 QCURVE SMOOTH",
"191 186 OFFCURVE",
"232 173 OFFCURVE",
"264 149 OFFCURVE",
"285 115 OFFCURVE",
"285 93 QCURVE SMOOTH"
);
}
);
width = 343;
}
);
unicode = 0021;
},
{
glyphname = comma;
layers = (
{
layerId = "CD1C2F27-7B64-400F-B9B0-689659144D44";
paths = (
{
nodes = (
"101 1 LINE",
"71 10 OFFCURVE",
"25 55 OFFCURVE",
"25 88 QCURVE SMOOTH",
"25 110 OFFCURVE",
"45 145 OFFCURVE",
"78 169 OFFCURVE",
"118 181 OFFCURVE",
"138 181 QCURVE SMOOTH",
"158 181 OFFCURVE",
"198 169 OFFCURVE",
"231 145 OFFCURVE",
"252 110 OFFCURVE",
"252 88 QCURVE SMOOTH",
"252 61 OFFCURVE",
"234 15 OFFCURVE",
"202 -23 OFFCURVE",
"161 -54 OFFCURVE",
"139 -66 QCURVE",
"101 -66 LINE"
);
}
);
width = 283;
}
);
unicode = 002C;
},
{
glyphname = period;
layers = (
{
layerId = "CD1C2F27-7B64-400F-B9B0-689659144D44";
paths = (
{
nodes = (
"158 185 OFFCURVE",
"199 172 OFFCURVE",
"231 148 OFFCURVE",
"252 114 OFFCURVE",
"252 92 QCURVE SMOOTH",
"252 70 OFFCURVE",
"231 36 OFFCURVE",
"199 12 OFFCURVE",
"158 0 OFFCURVE",
"139 0 QCURVE SMOOTH",
"119 0 OFFCURVE",
"79 12 OFFCURVE",
"46 36 OFFCURVE",
"25 70 OFFCURVE",
"25 92 QCURVE SMOOTH",
"25 114 OFFCURVE",
"46 149 OFFCURVE",
"79 173 OFFCURVE",
"119 185 OFFCURVE",
"139 185 QCURVE SMOOTH"
);
}
);
width = 280;
}
);
unicode = 002E;
},
{
glyphname = quotesingle;
layers = (
{
layerId = "CD1C2F27-7B64-400F-B9B0-689659144D44";
paths = (
{
nodes = (
"86 532 LINE",
"62 539 OFFCURVE",
"25 575 OFFCURVE",
"25 602 QCURVE SMOOTH",
"25 619 OFFCURVE",
"41 647 OFFCURVE",
"67 666 OFFCURVE",
"99 676 OFFCURVE",
"115 676 QCURVE SMOOTH",
"131 676 OFFCURVE",
"163 666 OFFCURVE",
"190 646 OFFCURVE",
"207 619 OFFCURVE",
"207 601 QCURVE SMOOTH",
"207 579 OFFCURVE",
"193 532 OFFCURVE",
"169 489 OFFCURVE",
"135 453 OFFCURVE",
"116 442 QCURVE",
"86 442 LINE"
);
}
);
width = 225;
}
);
unicode = 0027;
},
{
glyphname = E;
layers = (
{
layerId = "CD1C2F27-7B64-400F-B9B0-689659144D44";
paths = (
{
nodes = (
"445 401 LINE SMOOTH",
"465 401 OFFCURVE",
"495 421 OFFCURVE",
"505 438 QCURVE",
"521 438 LINE",
"521 240 LINE",
"505 240 LINE",
"495 257 OFFCURVE",
"465 278 OFFCURVE",
"445 278 QCURVE SMOOTH",
"294 278 LINE",
"294 185 LINE",
"559 185 LINE SMOOTH",
"579 185 OFFCURVE",
"609 205 OFFCURVE",
"619 222 QCURVE",
"635 222 LINE",
"635 0 LINE",
"21 0 LINE",
"21 13 LINE",
"37 19 OFFCURVE",
"67 41 OFFCURVE",
"67 61 QCURVE SMOOTH",
"67 617 LINE SMOOTH",
"67 637 OFFCURVE",
"37 660 OFFCURVE",
"21 666 QCURVE",
"21 679 LINE",
"635 679 LINE",
"635 456 LINE",
"619 456 LINE",
"609 473 OFFCURVE",
"579 494 OFFCURVE",
"559 494 QCURVE SMOOTH",
"294 494 LINE",
"294 401 LINE"
);
}
);
width = 673;
}
);
unicode = 0045;
},
{
glyphname = colon;
layers = (
{
layerId = "CD1C2F27-7B64-400F-B9B0-689659144D44";
paths = (
{
nodes = (
"158 185 OFFCURVE",
"199 172 OFFCURVE",
"231 148 OFFCURVE",
"252 114 OFFCURVE",
"252 92 QCURVE SMOOTH",
"252 70 OFFCURVE",
"231 36 OFFCURVE",
"199 12 OFFCURVE",
"158 0 OFFCURVE",
"139 0 QCURVE SMOOTH",
"119 0 OFFCURVE",
"79 12 OFFCURVE",
"46 36 OFFCURVE",
"25 70 OFFCURVE",
"25 92 QCURVE SMOOTH",
"25 114 OFFCURVE",
"46 149 OFFCURVE",
"79 173 OFFCURVE",
"119 185 OFFCURVE",
"139 185 QCURVE SMOOTH"
);
},
{
nodes = (
"158 680 OFFCURVE",
"199 667 OFFCURVE",
"231 643 OFFCURVE",
"252 609 OFFCURVE",
"252 587 QCURVE SMOOTH",
"252 565 OFFCURVE",
"231 531 OFFCURVE",
"199 507 OFFCURVE",
"158 495 OFFCURVE",
"139 495 QCURVE SMOOTH",
"119 495 OFFCURVE",
"79 507 OFFCURVE",
"46 531 OFFCURVE",
"25 565 OFFCURVE",
"25 587 QCURVE SMOOTH",
"25 609 OFFCURVE",
"46 644 OFFCURVE",
"79 668 OFFCURVE",
"119 680 OFFCURVE",
"139 680 QCURVE SMOOTH"
);
}
);
width = 280;
}
);
unicode = 003A;
},
{
glyphname = semicolon;
layers = (
{
layerId = "CD1C2F27-7B64-400F-B9B0-689659144D44";
paths = (
{
nodes = (
"158 680 OFFCURVE",
"199 667 OFFCURVE",
"231 643 OFFCURVE",
"252 609 OFFCURVE",
"252 587 QCURVE SMOOTH",
"252 565 OFFCURVE",
"231 531 OFFCURVE",
"199 507 OFFCURVE",
"158 495 OFFCURVE",
"139 495 QCURVE SMOOTH",
"119 495 OFFCURVE",
"79 507 OFFCURVE",
"46 531 OFFCURVE",
"25 565 OFFCURVE",
"25 587 QCURVE SMOOTH",
"25 609 OFFCURVE",
"46 644 OFFCURVE",
"79 668 OFFCURVE",
"119 680 OFFCURVE",
"139 680 QCURVE SMOOTH"
);
},
{
nodes = (
"101 7 LINE",
"71 16 OFFCURVE",
"25 61 OFFCURVE",
"25 94 QCURVE SMOOTH",
"25 116 OFFCURVE",
"45 151 OFFCURVE",
"78 175 OFFCURVE",
"118 187 OFFCURVE",
"138 187 QCURVE SMOOTH",
"158 187 OFFCURVE",
"198 175 OFFCURVE",
"231 151 OFFCURVE",
"252 116 OFFCURVE",
"252 94 QCURVE SMOOTH",
"252 67 OFFCURVE",
"234 21 OFFCURVE",
"202 -17 OFFCURVE",
"161 -48 OFFCURVE",
"139 -60 QCURVE",
"101 -60 LINE"
);
}
);
width = 280;
}
);
unicode = 003B;
},
{
glyphname = a;
layers = (
{
layerId = "CD1C2F27-7B64-400F-B9B0-689659144D44";
paths = (
{
nodes = (
"545 665 LINE",
"534 661 OFFCURVE",
"512 646 OFFCURVE",
"512 633 QCURVE SMOOTH",
"512 626 OFFCURVE",
"535 591 OFFCURVE",
"569 542 OFFCURVE",
"608 484 OFFCURVE",
"642 427 OFFCURVE",
"665 374 OFFCURVE",
"665 354 QCURVE SMOOTH",
"665 61 LINE SMOOTH",
"665 41 OFFCURVE",
"695 19 OFFCURVE",
"711 13 QCURVE",
"711 0 LINE",
"391 0 LINE",
"391 13 LINE",
"407 19 OFFCURVE",
"437 41 OFFCURVE",
"437 61 QCURVE SMOOTH",
"437 185 LINE",
"286 185 LINE",
"286 61 LINE SMOOTH",
"286 41 OFFCURVE",
"316 19 OFFCURVE",
"332 13 QCURVE",
"332 0 LINE",
"13 0 LINE",
"13 13 LINE",
"28 19 OFFCURVE",
"59 42 OFFCURVE",
"59 61 QCURVE SMOOTH",
"59 256 LINE SMOOTH",
"59 281 OFFCURVE",
"58 330 OFFCURVE",
"59 354 QCURVE SMOOTH",
"60 375 OFFCURVE",
"83 429 OFFCURVE",
"117 487 OFFCURVE",
"156 544 OFFCURVE",
"189 591 OFFCURVE",
"211 626 OFFCURVE",
"211 633 QCURVE SMOOTH",
"211 646 OFFCURVE",
"190 661 OFFCURVE",
"179 665 QCURVE",
"179 679 LINE",
"545 679 LINE"
);
},
{
nodes = (
"437 308 LINE",
"437 322 LINE SMOOTH",
"437 347 OFFCURVE",
"423 388 OFFCURVE",
"401 425 OFFCURVE",
"375 461 OFFCURVE",
"362 481 QCURVE",
"346 458 OFFCURVE",
"318 421 OFFCURVE",
"298 382 OFFCURVE",
"286 338 OFFCURVE",
"286 308 QCURVE"
);
}
);
width = 722;
}
);
unicode = 0061;
},
{
glyphname = c;
layers = (
{
layerId = "CD1C2F27-7B64-400F-B9B0-689659144D44";
paths = (
{
nodes = (
"618 247 LINE",
"618 93 LINE SMOOTH",
"618 63 OFFCURVE",
"589 26 OFFCURVE",
"544 6 OFFCURVE",
"491 0 OFFCURVE",
"467 0 QCURVE SMOOTH",
"203 0 LINE SMOOTH",
"179 0 OFFCURVE",
"126 6 OFFCURVE",
"81 26 OFFCURVE",
"52 63 OFFCURVE",
"52 93 QCURVE SMOOTH",
"52 586 LINE SMOOTH",
"52 616 OFFCURVE",
"81 653 OFFCURVE",
"126 673 OFFCURVE",
"179 679 OFFCURVE",
"203 679 QCURVE SMOOTH",
"467 679 LINE SMOOTH",
"491 679 OFFCURVE",
"544 673 OFFCURVE",
"589 653 OFFCURVE",
"618 616 OFFCURVE",
"618 586 QCURVE SMOOTH",
"618 432 LINE",
"354 432 LINE",
"354 445 LINE",
"371 451 OFFCURVE",
"400 474 OFFCURVE",
"400 494 QCURVE",
"279 494 LINE",
"279 185 LINE",
"400 185 LINE",
"400 205 OFFCURVE",
"371 228 OFFCURVE",
"354 234 QCURVE",
"354 247 LINE"
);
}
);
width = 670;
}
);
unicode = 0063;
},
{
glyphname = d;
layers = (
{
layerId = "CD1C2F27-7B64-400F-B9B0-689659144D44";
paths = (
{
nodes = (
"336 0 LINE",
"17 0 LINE",
"17 13 LINE",
"32 19 OFFCURVE",
"63 42 OFFCURVE",
"63 61 QCURVE SMOOTH",
"63 617 LINE SMOOTH",
"63 636 OFFCURVE",
"33 659 OFFCURVE",
"17 665 QCURVE",
"17 678 LINE",
"336 678 LINE",
"326 678 LINE",
"489 678 LINE SMOOTH",
"513 678 OFFCURVE",
"566 672 OFFCURVE",
"611 653 OFFCURVE",
"641 616 OFFCURVE",
"641 586 QCURVE SMOOTH",
"641 92 LINE SMOOTH",
"641 62 OFFCURVE",
"611 25 OFFCURVE",
"566 6 OFFCURVE",
"513 0 OFFCURVE",
"489 0 QCURVE SMOOTH",
"326 0 LINE"
);
},
{
nodes = (
"414 185 LINE",
"414 493 LINE",
"290 493 LINE",
"290 185 LINE"
);
}
);
width = 700;
}
);
unicode = 0064;
},
{
glyphname = e;
layers = (
{
layerId = "CD1C2F27-7B64-400F-B9B0-689659144D44";
paths = (
{
nodes = (
"445 401 LINE SMOOTH",
"465 401 OFFCURVE",
"495 421 OFFCURVE",
"505 438 QCURVE",
"521 438 LINE",
"521 240 LINE",
"505 240 LINE",
"495 257 OFFCURVE",
"465 278 OFFCURVE",
"445 278 QCURVE SMOOTH",
"294 278 LINE",
"294 185 LINE",
"559 185 LINE SMOOTH",
"579 185 OFFCURVE",
"609 205 OFFCURVE",
"619 222 QCURVE",
"635 222 LINE",
"635 0 LINE",
"21 0 LINE",
"21 13 LINE",
"37 19 OFFCURVE",
"67 41 OFFCURVE",
"67 61 QCURVE SMOOTH",
"67 617 LINE SMOOTH",
"67 637 OFFCURVE",
"37 660 OFFCURVE",
"21 666 QCURVE",
"21 679 LINE",
"635 679 LINE",
"635 456 LINE",
"619 456 LINE",
"609 473 OFFCURVE",
"579 494 OFFCURVE",
"559 494 QCURVE SMOOTH",
"294 494 LINE",
"294 401 LINE"
);
}
);
width = 673;
}
);
unicode = 0065;
},
{
glyphname = f;
layers = (
{
layerId = "CD1C2F27-7B64-400F-B9B0-689659144D44";
paths = (
{
nodes = (
"18 0 LINE",
"18 13 LINE",
"35 19 OFFCURVE",
"64 42 OFFCURVE",
"64 62 QCURVE SMOOTH",
"64 617 LINE SMOOTH",
"64 637 OFFCURVE",
"35 660 OFFCURVE",
"18 666 QCURVE",
"18 679 LINE",
"632 679 LINE",
"632 456 LINE",
"616 456 LINE",
"606 473 OFFCURVE",
"576 494 OFFCURVE",
"556 494 QCURVE SMOOTH",
"291 494 LINE",
"291 401 LINE",
"443 401 LINE SMOOTH",
"463 401 OFFCURVE",
"492 422 OFFCURVE",
"502 439 QCURVE",
"518 439 LINE",
"518 240 LINE",
"502 240 LINE",
"492 257 OFFCURVE",
"463 278 OFFCURVE",
"443 278 QCURVE SMOOTH",
"291 278 LINE",
"291 62 LINE SMOOTH",
"291 42 OFFCURVE",
"321 19 OFFCURVE",
"337 13 QCURVE",
"337 0 LINE"
);
}
);
width = 659;
}
);
unicode = 0066;
},
{
glyphname = h;
layers = (
{
layerId = "CD1C2F27-7B64-400F-B9B0-689659144D44";
paths = (
{
nodes = (
"338 666 LINE",
"322 660 OFFCURVE",
"292 636 OFFCURVE",
"292 617 QCURVE SMOOTH",
"292 401 LINE",
"444 401 LINE",
"444 617 LINE SMOOTH",
"444 637 OFFCURVE",
"414 660 OFFCURVE",
"398 666 QCURVE",
"398 679 LINE",
"717 679 LINE",
"717 666 LINE",
"701 660 OFFCURVE",
"671 637 OFFCURVE",
"671 617 QCURVE SMOOTH",
"671 61 LINE SMOOTH",
"671 41 OFFCURVE",
"701 19 OFFCURVE",
"717 13 QCURVE",
"717 0 LINE",
"398 0 LINE",
"398 13 LINE",
"414 19 OFFCURVE",
"444 41 OFFCURVE",
"444 61 QCURVE SMOOTH",
"444 278 LINE",
"292 278 LINE",
"292 61 LINE SMOOTH",
"292 42 OFFCURVE",
"323 19 OFFCURVE",
"338 13 QCURVE",
"338 0 LINE",
"19 0 LINE",
"19 13 LINE",
"35 19 OFFCURVE",
"65 41 OFFCURVE",
"65 61 QCURVE SMOOTH",
"65 617 LINE SMOOTH",
"65 637 OFFCURVE",
"35 660 OFFCURVE",
"19 666 QCURVE",
"19 679 LINE",
"338 679 LINE"
);
}
);
width = 733;
}
);
unicode = 0068;
},
{
glyphname = i;
layers = (
{
layerId = "CD1C2F27-7B64-400F-B9B0-689659144D44";
paths = (
{
nodes = (
"342 679 LINE",
"342 666 LINE",
"326 660 OFFCURVE",
"296 638 OFFCURVE",
"296 618 QCURVE SMOOTH",
"296 62 LINE SMOOTH",
"296 42 OFFCURVE",
"326 20 OFFCURVE",
"342 14 QCURVE",
"342 0 LINE",
"22 0 LINE",
"22 14 LINE",
"38 20 OFFCURVE",
"68 42 OFFCURVE",
"68 62 QCURVE SMOOTH",
"68 618 LINE SMOOTH",
"68 638 OFFCURVE",
"38 660 OFFCURVE",
"22 666 QCURVE",
"22 679 LINE"
);
}
);
width = 359;
}
);
unicode = 0069;
},
{
glyphname = j;
layers = (
{
layerId = "CD1C2F27-7B64-400F-B9B0-689659144D44";
paths = (
{
nodes = (
"124 493 LINE SMOOTH",
"104 493 OFFCURVE",
"74 473 OFFCURVE",
"64 456 QCURVE",
"48 456 LINE",
"48 678 LINE",
"621 678 LINE",
"621 92 LINE SMOOTH",
"621 62 OFFCURVE",
"592 25 OFFCURVE",
"547 6 OFFCURVE",
"494 0 OFFCURVE",
"470 0 QCURVE SMOOTH",
"199 0 LINE SMOOTH",
"175 0 OFFCURVE",
"122 6 OFFCURVE",
"77 25 OFFCURVE",
"48 61 OFFCURVE",
"48 92 QCURVE SMOOTH",
"48 246 LINE",
"321 246 LINE",
"321 233 LINE",
"305 227 OFFCURVE",
"275 205 OFFCURVE",
"275 185 QCURVE",
"394 185 LINE",
"394 493 LINE"
);
}
);
width = 683;
}
);
unicode = 006A;
},
{
glyphname = k;
layers = (
{
layerId = "CD1C2F27-7B64-400F-B9B0-689659144D44";
paths = (
{
nodes = (
"339 666 LINE",
"323 660 OFFCURVE",
"293 637 OFFCURVE",
"293 617 QCURVE SMOOTH",
"293 401 LINE",
"445 401 LINE",
"445 617 LINE SMOOTH",
"445 637 OFFCURVE",
"414 660 OFFCURVE",
"398 666 QCURVE",
"398 679 LINE",
"718 679 LINE",
"718 666 LINE",
"701 660 OFFCURVE",
"672 637 OFFCURVE",
"672 617 QCURVE SMOOTH",
"672 489 LINE SMOOTH",
"672 464 OFFCURVE",
"653 411 OFFCURVE",
"620 368 OFFCURVE",
"574 340 OFFCURVE",
"547 340 QCURVE",
"575 340 OFFCURVE",
"621 308 OFFCURVE",
"654 260 OFFCURVE",
"672 203 OFFCURVE",
"672 179 QCURVE SMOOTH",
"672 62 LINE SMOOTH",
"672 42 OFFCURVE",
"701 19 OFFCURVE",
"718 13 QCURVE",
"718 0 LINE",
"398 0 LINE",
"398 13 LINE",
"414 19 OFFCURVE",
"445 42 OFFCURVE",
"445 62 QCURVE SMOOTH",
"445 278 LINE",
"293 278 LINE",
"293 62 LINE SMOOTH",
"293 42 OFFCURVE",
"323 19 OFFCURVE",
"339 13 QCURVE",
"339 0 LINE",
"20 0 LINE",
"20 13 LINE",
"37 19 OFFCURVE",
"66 42 OFFCURVE",
"66 62 QCURVE SMOOTH",
"66 617 LINE SMOOTH",
"66 637 OFFCURVE",
"37 660 OFFCURVE",
"20 666 QCURVE",
"20 679 LINE",
"339 679 LINE"
);
}
);
width = 738;
}
);
unicode = 006B;
},
{
glyphname = l;
layers = (
{
layerId = "CD1C2F27-7B64-400F-B9B0-689659144D44";
paths = (
{
nodes = (
"540 222 LINE",
"540 0 LINE",
"17 0 LINE",
"17 13 LINE",
"32 19 OFFCURVE",
"63 42 OFFCURVE",
"63 61 QCURVE SMOOTH",
"63 617 LINE SMOOTH",
"63 636 OFFCURVE",
"33 660 OFFCURVE",
"17 666 QCURVE",
"17 679 LINE",
"336 679 LINE",
"336 666 LINE",
"320 660 OFFCURVE",
"290 637 OFFCURVE",
"290 617 QCURVE SMOOTH",
"290 185 LINE",
"464 185 LINE SMOOTH",
"484 185 OFFCURVE",
"513 205 OFFCURVE",
"524 222 QCURVE"
);
}
);
width = 574;
}
);
unicode = 006C;
},
{
glyphname = m;
layers = (
{
layerId = "CD1C2F27-7B64-400F-B9B0-689659144D44";
paths = (
{
nodes = (
"787 62 LINE SMOOTH",
"787 42 OFFCURVE",
"816 19 OFFCURVE",
"833 13 QCURVE",
"833 0 LINE",
"513 0 LINE",
"513 13 LINE",
"530 19 OFFCURVE",
"559 42 OFFCURVE",
"559 62 QCURVE SMOOTH",
"559 359 LINE",
"427 162 LINE",
"394 212 OFFCURVE",
"328 310 OFFCURVE",
"294 359 QCURVE",
"294 62 LINE SMOOTH",
"294 42 OFFCURVE",
"325 19 OFFCURVE",
"341 13 QCURVE",
"341 0 LINE",
"21 0 LINE",
"21 13 LINE",
"38 19 OFFCURVE",
"67 42 OFFCURVE",
"67 62 QCURVE SMOOTH",
"67 617 LINE SMOOTH",
"67 637 OFFCURVE",
"38 660 OFFCURVE",
"21 666 QCURVE",
"21 679 LINE",
"341 679 LINE",
"341 666 LINE",
"325 660 OFFCURVE",
"294 637 OFFCURVE",
"294 617 QCURVE",
"427 419 LINE",
"559 617 LINE",
"559 637 OFFCURVE",
"530 660 OFFCURVE",
"513 666 QCURVE",
"513 679 LINE",
"833 679 LINE",
"833 666 LINE",
"816 660 OFFCURVE",
"787 637 OFFCURVE",
"787 617 QCURVE SMOOTH"
);
}
);
width = 851;
}
);
unicode = 006D;
},
{
glyphname = n;
layers = (
{
layerId = "CD1C2F27-7B64-400F-B9B0-689659144D44";
paths = (
{
nodes = (
"17 13 LINE",
"34 19 OFFCURVE",
"63 42 OFFCURVE",
"63 62 QCURVE SMOOTH",
"63 617 LINE SMOOTH",
"63 637 OFFCURVE",
"34 660 OFFCURVE",
"17 666 QCURVE",
"17 679 LINE",
"336 679 LINE",
"336 666 LINE",
"320 660 OFFCURVE",
"290 637 OFFCURVE",
"290 617 QCURVE SMOOTH",
"290 494 LINE",
"442 344 LINE",
"442 617 LINE SMOOTH",
"442 637 OFFCURVE",
"413 660 OFFCURVE",
"396 666 QCURVE",
"396 679 LINE",
"715 679 LINE",
"715 666 LINE",
"698 660 OFFCURVE",
"669 637 OFFCURVE",
"669 617 QCURVE SMOOTH",
"669 62 LINE SMOOTH",
"669 42 OFFCURVE",
"698 19 OFFCURVE",
"715 13 QCURVE",
"715 0 LINE",
"396 0 LINE",
"396 13 LINE",
"413 19 OFFCURVE",
"442 42 OFFCURVE",
"442 62 QCURVE SMOOTH",
"442 150 LINE",
"290 300 LINE",
"290 62 LINE SMOOTH",
"290 42 OFFCURVE",
"320 19 OFFCURVE",
"336 13 QCURVE",
"336 0 LINE",
"17 0 LINE"
);
}
);
width = 727;
}
);
unicode = 006E;
},
{
glyphname = o;
layers = (
{
layerId = "CD1C2F27-7B64-400F-B9B0-689659144D44";
paths = (
{
nodes = (
"654 92 LINE SMOOTH",
"654 62 OFFCURVE",
"624 25 OFFCURVE",
"579 6 OFFCURVE",
"526 0 OFFCURVE",
"502 0 QCURVE SMOOTH",
"199 0 LINE SMOOTH",
"175 0 OFFCURVE",
"122 6 OFFCURVE",
"77 25 OFFCURVE",
"48 62 OFFCURVE",
"48 92 QCURVE SMOOTH",
"48 586 LINE SMOOTH",
"48 616 OFFCURVE",
"77 653 OFFCURVE",
"122 672 OFFCURVE",
"175 678 OFFCURVE",
"199 678 QCURVE SMOOTH",
"502 678 LINE SMOOTH",
"526 678 OFFCURVE",
"579 672 OFFCURVE",
"624 653 OFFCURVE",
"654 616 OFFCURVE",
"654 586 QCURVE SMOOTH"
);
},
{
nodes = (
"426 185 LINE",
"426 493 LINE",
"275 493 LINE",
"275 185 LINE"
);
}
);
width = 700;
}
);
unicode = 006F;
},
{
glyphname = p;
layers = (
{
layerId = "CD1C2F27-7B64-400F-B9B0-689659144D44";
paths = (
{
nodes = (
"293 61 LINE SMOOTH",
"293 41 OFFCURVE",
"323 19 OFFCURVE",
"339 13 QCURVE",
"339 0 LINE",
"20 0 LINE",
"20 13 LINE",
"35 19 OFFCURVE",
"66 42 OFFCURVE",
"66 61 QCURVE SMOOTH",
"66 617 LINE SMOOTH",
"66 636 OFFCURVE",
"36 660 OFFCURVE",
"20 666 QCURVE",
"20 679 LINE",
"480 679 LINE SMOOTH",
"504 679 OFFCURVE",
"557 673 OFFCURVE",
"602 653 OFFCURVE",
"632 616 OFFCURVE",
"632 586 QCURVE SMOOTH",
"632 370 LINE SMOOTH",
"632 343 OFFCURVE",
"608 308 OFFCURVE",
"569 287 OFFCURVE",
"520 278 OFFCURVE",
"469 276 OFFCURVE",
"421 277 OFFCURVE",
"404 277 QCURVE SMOOTH",
"293 277 LINE"
);
},
{
nodes = (
"404 401 LINE",
"404 494 LINE",
"293 494 LINE",
"293 401 LINE"
);
}
);
width = 656;
}
);
unicode = 0070;
},
{
glyphname = q;
layers = (
{
layerId = "CD1C2F27-7B64-400F-B9B0-689659144D44";
paths = (
{
nodes = (
"513 -86 LINE",
"193 -86 LINE",
"193 -73 LINE",
"209 -67 OFFCURVE",
"228 -54 OFFCURVE",
"237 -38 OFFCURVE",
"239 -16 OFFCURVE",
"239 0 QCURVE",
"213 0 OFFCURVE",
"148 1 OFFCURVE",
"90 18 OFFCURVE",
"50 56 OFFCURVE",
"50 93 QCURVE SMOOTH",
"50 586 LINE SMOOTH",
"50 616 OFFCURVE",
"79 653 OFFCURVE",
"124 673 OFFCURVE",
"177 679 OFFCURVE",
"201 679 QCURVE SMOOTH",
"504 679 LINE SMOOTH",
"528 679 OFFCURVE",
"581 673 OFFCURVE",
"626 653 OFFCURVE",
"656 616 OFFCURVE",
"656 586 QCURVE SMOOTH",
"656 93 LINE SMOOTH",
"656 57 OFFCURVE",
"616 18 OFFCURVE",
"557 2 OFFCURVE",
"491 0 OFFCURVE",
"466 0 QCURVE",
"466 -24 LINE SMOOTH",
"466 -44 OFFCURVE",
"497 -67 OFFCURVE",
"513 -73 QCURVE"
);
},
{
nodes = (
"429 185 LINE",
"429 494 LINE",
"277 494 LINE",
"277 185 LINE"
);
}
);
width = 703;
}
);
unicode = 0071;
},
{
glyphname = r;
layers = (
{
layerId = "CD1C2F27-7B64-400F-B9B0-689659144D44";
paths = (
{
nodes = (
"15 678 LINE",
"493 678 LINE SMOOTH",
"520 678 OFFCURVE",
"573 666 OFFCURVE",
"617 640 OFFCURVE",
"644 597 OFFCURVE",
"644 566 QCURVE SMOOTH",
"644 455 LINE SMOOTH",
"644 429 OFFCURVE",
"624 386 OFFCURVE",
"589 356 OFFCURVE",
"544 339 OFFCURVE",
"519 339 QCURVE",
"544 339 OFFCURVE",
"590 321 OFFCURVE",
"624 289 OFFCURVE",
"644 245 OFFCURVE",
"644 219 QCURVE SMOOTH",
"644 189 LINE",
"644 61 LINE SMOOTH",
"644 41 OFFCURVE",
"675 18 OFFCURVE",
"691 13 QCURVE",
"691 0 LINE",
"371 0 LINE",
"371 13 LINE",
"387 19 OFFCURVE",
"417 41 OFFCURVE",
"417 61 QCURVE SMOOTH",
"417 277 LINE",
"288 277 LINE",
"288 61 LINE SMOOTH",
"288 41 OFFCURVE",
"318 19 OFFCURVE",
"334 13 QCURVE",
"334 0 LINE",
"15 0 LINE",
"15 13 LINE",
"31 19 OFFCURVE",
"61 42 OFFCURVE",
"61 61 QCURVE SMOOTH",
"61 617 LINE SMOOTH",
"61 636 OFFCURVE",
"30 659 OFFCURVE",
"15 665 QCURVE"
);
},
{
nodes = (
"417 401 LINE",
"417 493 LINE",
"288 493 LINE",
"288 401 LINE"
);
}
);
width = 705;
}
);
unicode = 0072;
},
{
glyphname = s;
layers = (
{
layerId = "CD1C2F27-7B64-400F-B9B0-689659144D44";
paths = (
{
nodes = (
"622 92 LINE SMOOTH",
"622 62 OFFCURVE",
"593 25 OFFCURVE",
"548 6 OFFCURVE",
"495 0 OFFCURVE",
"471 0 QCURVE SMOOTH",
"197 0 LINE SMOOTH",
"173 0 OFFCURVE",
"120 6 OFFCURVE",
"75 25 OFFCURVE",
"46 62 OFFCURVE",
"46 92 QCURVE SMOOTH",
"46 246 LINE",
"319 246 LINE",
"319 233 LINE",
"303 228 OFFCURVE",
"273 205 OFFCURVE",
"273 185 QCURVE",
"395 185 LINE",
"395 277 LINE",
"273 277 LINE SMOOTH",
"246 277 OFFCURVE",
"169 275 OFFCURVE",
"97 289 OFFCURVE",
"46 329 OFFCURVE",
"46 370 QCURVE SMOOTH",
"46 586 LINE SMOOTH",
"46 616 OFFCURVE",
"75 653 OFFCURVE",
"120 672 OFFCURVE",
"173 678 OFFCURVE",
"197 678 QCURVE SMOOTH",
"471 678 LINE SMOOTH",
"495 678 OFFCURVE",
"548 672 OFFCURVE",
"593 653 OFFCURVE",
"622 616 OFFCURVE",
"622 586 QCURVE SMOOTH",
"622 431 LINE",
"349 431 LINE",
"349 445 LINE",
"365 451 OFFCURVE",
"395 474 OFFCURVE",
"395 493 QCURVE",
"273 493 LINE",
"273 401 LINE",
"395 401 LINE SMOOTH",
"422 401 OFFCURVE",
"499 403 OFFCURVE",
"571 389 OFFCURVE",
"622 349 OFFCURVE",
"622 308 QCURVE SMOOTH"
);
}
);
width = 673;
}
);
unicode = 0073;
},
{
glyphname = t;
layers = (
{
layerId = "CD1C2F27-7B64-400F-B9B0-689659144D44";
paths = (
{
nodes = (
"19 679 LINE",
"544 679 LINE",
"544 456 LINE",
"528 456 LINE",
"518 473 OFFCURVE",
"489 494 OFFCURVE",
"469 494 QCURVE SMOOTH",
"396 494 LINE",
"396 62 LINE SMOOTH",
"396 42 OFFCURVE",
"425 19 OFFCURVE",
"442 13 QCURVE",
"442 0 LINE",
"123 0 LINE",
"123 13 LINE",
"139 19 OFFCURVE",
"169 42 OFFCURVE",
"169 62 QCURVE SMOOTH",
"169 494 LINE",
"95 494 LINE SMOOTH",
"75 494 OFFCURVE",
"46 473 OFFCURVE",
"36 456 QCURVE",
"19 456 LINE"
);
}
);
width = 565;
}
);
unicode = 0074;
},
{
glyphname = u;
layers = (
{
layerId = "CD1C2F27-7B64-400F-B9B0-689659144D44";
paths = (
{
nodes = (
"331 679 LINE",
"331 666 LINE",
"315 660 OFFCURVE",
"285 637 OFFCURVE",
"285 617 QCURVE SMOOTH",
"285 185 LINE",
"413 185 LINE",
"413 617 LINE SMOOTH",
"413 637 OFFCURVE",
"383 660 OFFCURVE",
"367 666 QCURVE",
"367 679 LINE",
"687 679 LINE",
"687 666 LINE",
"671 660 OFFCURVE",
"640 637 OFFCURVE",
"640 617 QCURVE SMOOTH",
"640 97 LINE SMOOTH",
"640 67 OFFCURVE",
"611 29 OFFCURVE",
"566 8 OFFCURVE",
"513 0 OFFCURVE",
"489 0 QCURVE SMOOTH",
"209 0 LINE SMOOTH",
"185 0 OFFCURVE",
"131 8 OFFCURVE",
"87 30 OFFCURVE",
"58 68 OFFCURVE",
"58 99 QCURVE SMOOTH",
"58 617 LINE SMOOTH",
"58 636 OFFCURVE",
"28 660 OFFCURVE",
"12 666 QCURVE",
"12 679 LINE"
);
}
);
width = 704;
}
);
unicode = 0075;
},
{
glyphname = v;
layers = (
{
layerId = "CD1C2F27-7B64-400F-B9B0-689659144D44";
paths = (
{
nodes = (
"543 0 LINE",
"177 0 LINE",
"177 13 LINE",
"187 17 OFFCURVE",
"210 32 OFFCURVE",
"210 44 QCURVE SMOOTH",
"210 51 OFFCURVE",
"187 86 OFFCURVE",
"153 135 OFFCURVE",
"114 193 OFFCURVE",
"80 251 OFFCURVE",
"57 305 OFFCURVE",
"57 325 QCURVE SMOOTH",
"57 617 LINE SMOOTH",
"57 637 OFFCURVE",
"27 660 OFFCURVE",
"11 666 QCURVE",
"11 679 LINE",
"330 679 LINE",
"330 666 LINE",
"314 660 OFFCURVE",
"284 637 OFFCURVE",
"284 617 QCURVE SMOOTH",
"284 387 LINE SMOOTH",
"284 350 OFFCURVE",
"293 303 OFFCURVE",
"311 265 OFFCURVE",
"340 226 OFFCURVE",
"360 197 QCURVE",
"382 230 OFFCURVE",
"412 271 OFFCURVE",
"429 309 OFFCURVE",
"436 358 OFFCURVE",
"436 400 QCURVE SMOOTH",
"436 617 LINE SMOOTH",
"436 636 OFFCURVE",
"406 660 OFFCURVE",
"390 666 QCURVE",
"390 679 LINE",
"709 679 LINE",
"709 666 LINE",
"693 660 OFFCURVE",
"663 637 OFFCURVE",
"663 617 QCURVE SMOOTH",
"663 325 LINE SMOOTH",
"663 305 OFFCURVE",
"640 252 OFFCURVE",
"606 194 OFFCURVE",
"567 136 OFFCURVE",
"533 87 OFFCURVE",
"510 52 OFFCURVE",
"510 45 QCURVE SMOOTH",
"510 32 OFFCURVE",
"533 17 OFFCURVE",
"543 13 QCURVE"
);
}
);
width = 720;
}
);
unicode = 0076;
},
{
glyphname = w;
layers = (
{
layerId = "CD1C2F27-7B64-400F-B9B0-689659144D44";
paths = (
{
nodes = (
"1084 679 LINE",
"1084 666 LINE",
"1062 657 OFFCURVE",
"1042 637 OFFCURVE",
"1036 611 OFFCURVE",
"1038 578 OFFCURVE",
"1038 556 QCURVE SMOOTH",
"1038 326 LINE SMOOTH",
"1038 278 OFFCURVE",
"1010 236 QCURVE SMOOTH",
"1005 229 OFFCURVE",
"984 199 OFFCURVE",
"956 159 OFFCURVE",
"926 116 OFFCURVE",
"902 78 OFFCURVE",
"886 49 OFFCURVE",
"886 45 QCURVE SMOOTH",
"886 32 OFFCURVE",
"908 17 OFFCURVE",
"919 13 QCURVE",
"919 0 LINE",
"552 0 LINE",
"552 13 LINE",
"563 17 OFFCURVE",
"585 32 OFFCURVE",
"585 45 QCURVE SMOOTH",
"585 51 OFFCURVE",
"576 70 OFFCURVE",
"563 89 OFFCURVE",
"550 106 OFFCURVE",
"546 111 QCURVE",
"542 106 OFFCURVE",
"529 89 OFFCURVE",
"516 70 OFFCURVE",
"507 51 OFFCURVE",
"507 45 QCURVE SMOOTH",
"507 32 OFFCURVE",
"529 17 OFFCURVE",
"540 13 QCURVE",
"540 0 LINE",
"174 0 LINE",
"174 13 LINE",
"184 17 OFFCURVE",
"207 32 OFFCURVE",
"207 45 QCURVE SMOOTH",
"207 51 OFFCURVE",
"173 105 OFFCURVE",
"130 169 OFFCURVE",
"89 226 OFFCURVE",
"83 236 QCURVE SMOOTH",
"69 257 OFFCURVE",
"54 300 OFFCURVE",
"54 326 QCURVE SMOOTH",
"54 556 LINE SMOOTH",
"54 578 OFFCURVE",
"56 611 OFFCURVE",
"50 637 OFFCURVE",
"30 657 OFFCURVE",
"8 666 QCURVE",
"8 679 LINE",
"327 679 LINE",
"327 666 LINE",
"310 660 OFFCURVE",
"281 637 OFFCURVE",
"281 617 QCURVE SMOOTH",
"281 357 LINE SMOOTH",
"281 334 OFFCURVE",
"295 292 OFFCURVE",
"317 253 OFFCURVE",
"344 216 OFFCURVE",
"357 198 QCURVE",
"370 217 OFFCURVE",
"396 253 OFFCURVE",
"418 292 OFFCURVE",
"432 333 OFFCURVE",
"432 357 QCURVE SMOOTH",
"432 617 LINE SMOOTH",
"432 637 OFFCURVE",
"403 659 OFFCURVE",
"387 666 QCURVE",
"387 679 LINE",
"706 679 LINE",
"706 666 LINE",
"689 660 OFFCURVE",
"660 637 OFFCURVE",
"660 617 QCURVE SMOOTH",
"660 357 LINE SMOOTH",
"660 333 OFFCURVE",
"674 291 OFFCURVE",
"696 253 OFFCURVE",
"722 217 OFFCURVE",
"735 198 QCURVE",
"748 217 OFFCURVE",
"775 254 OFFCURVE",
"797 292 OFFCURVE",
"811 333 OFFCURVE",
"811 357 QCURVE SMOOTH",
"811 617 LINE SMOOTH",
"811 637 OFFCURVE",
"782 660 OFFCURVE",
"765 666 QCURVE",
"765 679 LINE"
);
}
);
width = 1091;
}
);
unicode = 0077;
},
{
glyphname = x;
layers = (
{
layerId = "CD1C2F27-7B64-400F-B9B0-689659144D44";
paths = (
{
nodes = (
"414 617 LINE SMOOTH",
"414 637 OFFCURVE",
"383 660 OFFCURVE",
"367 666 QCURVE",
"367 679 LINE",
"687 679 LINE",
"687 666 LINE",
"671 660 OFFCURVE",
"641 637 OFFCURVE",
"641 617 QCURVE SMOOTH",
"641 478 LINE SMOOTH",
"641 452 OFFCURVE",
"621 403 OFFCURVE",
"586 363 OFFCURVE",
"539 339 OFFCURVE",
"512 339 QCURVE",
"538 339 OFFCURVE",
"585 317 OFFCURVE",
"620 280 OFFCURVE",
"641 232 OFFCURVE",
"641 207 QCURVE SMOOTH",
"641 62 LINE SMOOTH",
"641 42 OFFCURVE",
"670 19 OFFCURVE",
"687 13 QCURVE",
"687 0 LINE",
"367 0 LINE",
"367 13 LINE",
"383 19 OFFCURVE",
"414 42 OFFCURVE",
"414 62 QCURVE SMOOTH",
"414 278 LINE",
"284 278 LINE",
"284 62 LINE SMOOTH",
"284 42 OFFCURVE",
"313 19 OFFCURVE",
"330 13 QCURVE",
"330 0 LINE",
"11 0 LINE",
"11 13 LINE",
"27 19 OFFCURVE",
"57 42 OFFCURVE",
"57 62 QCURVE SMOOTH",
"57 202 LINE SMOOTH",
"57 227 OFFCURVE",
"76 276 OFFCURVE",
"109 315 OFFCURVE",
"155 339 OFFCURVE",
"181 339 QCURVE",
"155 339 OFFCURVE",
"109 361 OFFCURVE",
"76 397 OFFCURVE",
"57 444 OFFCURVE",
"57 470 QCURVE SMOOTH",
"57 617 LINE SMOOTH",
"57 636 OFFCURVE",
"27 660 OFFCURVE",
"11 666 QCURVE",
"11 679 LINE",
"330 679 LINE",
"330 666 LINE",
"314 660 OFFCURVE",
"284 637 OFFCURVE",
"284 617 QCURVE SMOOTH",
"284 401 LINE",
"414 401 LINE"
);
}
);
width = 704;
}
);
unicode = 0078;
},
{
glyphname = y;
layers = (
{
layerId = "CD1C2F27-7B64-400F-B9B0-689659144D44";
paths = (
{
nodes = (
"452 278 LINE",
"452 62 LINE SMOOTH",
"452 42 OFFCURVE",
"481 19 OFFCURVE",
"498 13 QCURVE",
"498 0 LINE",
"178 0 LINE",
"178 13 LINE",
"194 19 OFFCURVE",
"225 42 OFFCURVE",
"225 62 QCURVE SMOOTH",
"225 278 LINE",
"172 278 LINE SMOOTH",
"120 278 OFFCURVE",
"72 330 OFFCURVE",
"55 406 OFFCURVE",
"58 492 OFFCURVE",
"58 525 QCURVE SMOOTH",
"58 617 LINE SMOOTH",
"58 637 OFFCURVE",
"29 660 OFFCURVE",
"12 666 QCURVE",
"12 679 LINE",
"331 679 LINE",
"331 666 LINE",
"315 660 OFFCURVE",
"285 637 OFFCURVE",
"285 617 QCURVE SMOOTH",
"285 401 LINE",
"401 401 LINE",
"401 617 LINE SMOOTH",
"401 637 OFFCURVE",
"371 660 OFFCURVE",
"355 666 QCURVE",
"355 679 LINE",
"674 679 LINE",
"674 666 LINE",
"657 660 OFFCURVE",
"628 637 OFFCURVE",
"628 617 QCURVE SMOOTH",
"628 525 LINE SMOOTH",
"628 492 OFFCURVE",
"631 406 OFFCURVE",
"614 330 OFFCURVE",
"566 278 OFFCURVE",
"514 278 QCURVE SMOOTH"
);
}
);
width = 688;
}
);
unicode = 0079;
},
{
glyphname = z;
layers = (
{
layerId = "CD1C2F27-7B64-400F-B9B0-689659144D44";
paths = (
{
nodes = (
"642 0 LINE",
"36 0 LINE",
"381 494 LINE",
"111 494 LINE SMOOTH",
"91 494 OFFCURVE",
"62 473 OFFCURVE",
"52 456 QCURVE",
"36 456 LINE",
"36 679 LINE",
"642 679 LINE",
"642 494 LINE",
"426 185 LINE",
"566 185 LINE SMOOTH",
"586 185 OFFCURVE",
"615 205 OFFCURVE",
"626 222 QCURVE",
"642 222 LINE"
);
}
);
width = 683;
}
);
unicode = 007A;
},
{
glyphname = b;
layers = (
{
layerId = "CD1C2F27-7B64-400F-B9B0-689659144D44";
paths = (
{
nodes = (
"475 679 LINE SMOOTH",
"498 679 OFFCURVE",
"552 673 OFFCURVE",
"597 654 OFFCURVE",
"627 617 OFFCURVE",
"627 587 QCURVE SMOOTH",
"627 432 LINE SMOOTH",
"627 405 OFFCURVE",
"609 370 OFFCURVE",
"578 349 OFFCURVE",
"537 340 OFFCURVE",
"513 340 QCURVE",
"537 340 OFFCURVE",
"579 331 OFFCURVE",
"609 309 OFFCURVE",
"627 274 OFFCURVE",
"627 247 QCURVE SMOOTH",
"627 93 LINE SMOOTH",
"627 63 OFFCURVE",
"597 26 OFFCURVE",
"552 6 OFFCURVE",
"499 0 OFFCURVE",
"475 0 QCURVE SMOOTH",
"18 0 LINE",
"18 13 LINE",
"34 19 OFFCURVE",
"64 42 OFFCURVE",
"64 62 QCURVE SMOOTH",
"64 617 LINE SMOOTH",
"64 637 OFFCURVE",
"34 660 OFFCURVE",
"18 666 QCURVE",
"18 679 LINE"
);
},
{
nodes = (
"399 186 LINE",
"399 278 LINE",
"291 278 LINE",
"291 186 LINE"
);
},
{
nodes = (
"399 401 LINE",
"399 494 LINE",
"291 494 LINE",
"291 401 LINE"
);
}
);
width = 668;
}
);
unicode = 0062;
},
{
glyphname = C;
layers = (
{
layerId = "CD1C2F27-7B64-400F-B9B0-689659144D44";
paths = (
{
nodes = (
"618 247 LINE",
"618 93 LINE SMOOTH",
"618 63 OFFCURVE",
"589 26 OFFCURVE",
"544 6 OFFCURVE",
"491 0 OFFCURVE",
"467 0 QCURVE SMOOTH",
"203 0 LINE SMOOTH",
"179 0 OFFCURVE",
"126 6 OFFCURVE",
"81 26 OFFCURVE",
"52 63 OFFCURVE",
"52 93 QCURVE SMOOTH",
"52 586 LINE SMOOTH",
"52 616 OFFCURVE",
"81 653 OFFCURVE",
"126 673 OFFCURVE",
"179 679 OFFCURVE",
"203 679 QCURVE SMOOTH",
"467 679 LINE SMOOTH",
"491 679 OFFCURVE",
"544 673 OFFCURVE",
"589 653 OFFCURVE",
"618 616 OFFCURVE",
"618 586 QCURVE SMOOTH",
"618 432 LINE",
"354 432 LINE",
"354 445 LINE",
"371 451 OFFCURVE",
"400 474 OFFCURVE",
"400 494 QCURVE",
"279 494 LINE",
"279 185 LINE",
"400 185 LINE",
"400 205 OFFCURVE",
"371 228 OFFCURVE",
"354 234 QCURVE",
"354 247 LINE"
);
}
);
width = 670;
}
);
unicode = 0043;
},
{
glyphname = g;
layers = (
{
layerId = "CD1C2F27-7B64-400F-B9B0-689659144D44";
paths = (
{
nodes = (
"315 401 LINE",
"656 401 LINE",
"656 93 LINE SMOOTH",
"656 63 OFFCURVE",
"626 26 OFFCURVE",
"581 6 OFFCURVE",
"528 0 OFFCURVE",
"504 0 QCURVE SMOOTH",
"201 0 LINE SMOOTH",
"177 0 OFFCURVE",
"124 6 OFFCURVE",
"79 26 OFFCURVE",
"50 63 OFFCURVE",
"50 93 QCURVE SMOOTH",
"50 587 LINE SMOOTH",
"50 617 OFFCURVE",
"80 654 OFFCURVE",
"125 673 OFFCURVE",
"178 679 OFFCURVE",
"201 679 QCURVE SMOOTH",
"504 679 LINE SMOOTH",
"527 679 OFFCURVE",
"581 673 OFFCURVE",
"626 654 OFFCURVE",
"656 617 OFFCURVE",
"656 587 QCURVE SMOOTH",
"656 432 LINE",
"382 432 LINE",
"382 445 LINE",
"398 451 OFFCURVE",
"429 474 OFFCURVE",
"429 494 QCURVE",
"277 494 LINE",
"277 185 LINE",
"429 185 LINE",
"429 278 LINE",
"391 278 LINE SMOOTH",
"371 278 OFFCURVE",
"342 257 OFFCURVE",
"331 240 QCURVE",
"315 240 LINE"
);
}
);
width = 705;
}
);
unicode = 0067;
},
{
glyphname = B;
layers = (
{
layerId = "CD1C2F27-7B64-400F-B9B0-689659144D44";
paths = (
{
nodes = (
"475 679 LINE SMOOTH",
"498 679 OFFCURVE",
"552 673 OFFCURVE",
"597 654 OFFCURVE",
"627 617 OFFCURVE",
"627 587 QCURVE SMOOTH",
"627 432 LINE SMOOTH",
"627 405 OFFCURVE",
"609 370 OFFCURVE",
"578 349 OFFCURVE",
"537 340 OFFCURVE",
"513 340 QCURVE",
"537 340 OFFCURVE",
"579 331 OFFCURVE",
"609 309 OFFCURVE",
"627 274 OFFCURVE",
"627 247 QCURVE SMOOTH",
"627 93 LINE SMOOTH",
"627 63 OFFCURVE",
"597 26 OFFCURVE",
"552 6 OFFCURVE",
"499 0 OFFCURVE",
"475 0 QCURVE SMOOTH",
"18 0 LINE",
"18 13 LINE",
"34 19 OFFCURVE",
"64 42 OFFCURVE",
"64 62 QCURVE SMOOTH",
"64 617 LINE SMOOTH",
"64 637 OFFCURVE",
"34 660 OFFCURVE",
"18 666 QCURVE",
"18 679 LINE"
);
},
{
nodes = (
"399 186 LINE",
"399 278 LINE",
"291 278 LINE",
"291 186 LINE"
);
},
{
nodes = (
"399 401 LINE",
"399 494 LINE",
"291 494 LINE",
"291 401 LINE"
);
}
);
width = 668;
}
);
unicode = 0042;
},
{
glyphname = D;
layers = (
{
layerId = "CD1C2F27-7B64-400F-B9B0-689659144D44";
paths = (
{
nodes = (
"336 0 LINE",
"17 0 LINE",
"17 13 LINE",
"32 19 OFFCURVE",
"63 42 OFFCURVE",
"63 61 QCURVE SMOOTH",
"63 617 LINE SMOOTH",
"63 636 OFFCURVE",
"33 659 OFFCURVE",
"17 665 QCURVE",
"17 678 LINE",
"336 678 LINE",
"326 678 LINE",
"489 678 LINE SMOOTH",
"513 678 OFFCURVE",
"566 672 OFFCURVE",
"611 653 OFFCURVE",
"641 616 OFFCURVE",
"641 586 QCURVE SMOOTH",
"641 92 LINE SMOOTH",
"641 62 OFFCURVE",
"611 25 OFFCURVE",
"566 6 OFFCURVE",
"513 0 OFFCURVE",
"489 0 QCURVE SMOOTH",
"326 0 LINE"
);
},
{
nodes = (
"414 185 LINE",
"414 493 LINE",
"290 493 LINE",
"290 185 LINE"
);
}
);
width = 700;
}
);
unicode = 0044;
},
{
glyphname = A;
layers = (
{
layerId = "CD1C2F27-7B64-400F-B9B0-689659144D44";
paths = (
{
nodes = (
"545 665 LINE",
"534 661 OFFCURVE",
"512 646 OFFCURVE",
"512 633 QCURVE SMOOTH",
"512 626 OFFCURVE",
"535 591 OFFCURVE",
"569 542 OFFCURVE",
"608 484 OFFCURVE",
"642 427 OFFCURVE",
"665 374 OFFCURVE",
"665 354 QCURVE SMOOTH",
"665 61 LINE SMOOTH",
"665 41 OFFCURVE",
"695 19 OFFCURVE",
"711 13 QCURVE",
"711 0 LINE",
"391 0 LINE",
"391 13 LINE",
"407 19 OFFCURVE",
"437 41 OFFCURVE",
"437 61 QCURVE SMOOTH",
"437 185 LINE",
"286 185 LINE",
"286 61 LINE SMOOTH",
"286 41 OFFCURVE",
"316 19 OFFCURVE",
"332 13 QCURVE",
"332 0 LINE",
"13 0 LINE",
"13 13 LINE",
"28 19 OFFCURVE",
"59 42 OFFCURVE",
"59 61 QCURVE SMOOTH",
"59 256 LINE SMOOTH",
"59 281 OFFCURVE",
"58 330 OFFCURVE",
"59 354 QCURVE SMOOTH",
"60 375 OFFCURVE",
"83 429 OFFCURVE",
"117 487 OFFCURVE",
"156 544 OFFCURVE",
"189 591 OFFCURVE",
"211 626 OFFCURVE",
"211 633 QCURVE SMOOTH",
"211 646 OFFCURVE",
"190 661 OFFCURVE",
"179 665 QCURVE",
"179 679 LINE",
"545 679 LINE"
);
},
{
nodes = (
"437 308 LINE",
"437 322 LINE SMOOTH",
"437 347 OFFCURVE",
"423 388 OFFCURVE",
"401 425 OFFCURVE",
"375 461 OFFCURVE",
"362 481 QCURVE",
"346 458 OFFCURVE",
"318 421 OFFCURVE",
"298 382 OFFCURVE",
"286 338 OFFCURVE",
"286 308 QCURVE"
);
}
);
width = 722;
}
);
unicode = 0041;
},
{
glyphname = at;
layers = (
{
layerId = "CD1C2F27-7B64-400F-B9B0-689659144D44";
paths = (
{
nodes = (
"881 -84 LINE",
"138 -84 LINE SMOOTH",
"121 -84 OFFCURVE",
"81 -80 OFFCURVE",
"48 -66 OFFCURVE",
"27 -38 OFFCURVE",
"27 -16 QCURVE SMOOTH",
"27 679 LINE SMOOTH",
"27 702 OFFCURVE",
"48 729 OFFCURVE",
"81 743 OFFCURVE",
"121 747 OFFCURVE",
"138 747 QCURVE SMOOTH",
"768 747 LINE SMOOTH",
"786 747 OFFCURVE",
"825 743 OFFCURVE",
"858 729 OFFCURVE",
"881 702 OFFCURVE",
"881 679 QCURVE SMOOTH",
"881 111 LINE",
"356 111 LINE SMOOTH",
"338 111 OFFCURVE",
"299 115 OFFCURVE",
"266 129 OFFCURVE",
"244 157 OFFCURVE",
"244 179 QCURVE SMOOTH",
"244 487 LINE SMOOTH",
"244 509 OFFCURVE",
"266 536 OFFCURVE",
"299 551 OFFCURVE",
"338 555 OFFCURVE",
"356 555 QCURVE SMOOTH",
"532 555 LINE SMOOTH",
"550 555 OFFCURVE",
"589 551 OFFCURVE",
"622 536 OFFCURVE",
"644 509 OFFCURVE",
"644 487 QCURVE SMOOTH",
"644 248 LINE",
"712 248 LINE",
"712 610 LINE",
"195 610 LINE",
"195 53 LINE",
"881 53 LINE"
);
},
{
nodes = (
"476 248 LINE",
"476 418 LINE",
"412 418 LINE",
"412 248 LINE"
);
}
);
width = 909;
}
);
unicode = 0040;
},
{
glyphname = quotedbl;
layers = (
{
layerId = "CD1C2F27-7B64-400F-B9B0-689659144D44";
paths = (
{
nodes = (
"26 650 LINE",
"207 650 LINE",
"164 388 LINE",
"57 388 LINE"
);
},
{
nodes = (
"241 650 LINE",
"422 650 LINE",
"379 388 LINE",
"272 388 LINE"
);
}
);
width = 439;
}
);
unicode = 0022;
},
{
glyphname = bar;
layers = (
{
layerId = "CD1C2F27-7B64-400F-B9B0-689659144D44";
paths = (
{
nodes = (
"233 772 LINE",
"233 -91 LINE",
"51 -91 LINE",
"51 772 LINE"
);
}
);
width = 290;
}
);
unicode = 007C;
},
{
glyphname = numbersign;
layers = (
{
layerId = "CD1C2F27-7B64-400F-B9B0-689659144D44";
paths = (
{
nodes = (
"376 655 LINE",
"373 642 LINE",
"356 636 OFFCURVE",
"321 614 OFFCURVE",
"317 594 QCURVE SMOOTH",
"214 111 LINE SMOOTH",
"210 91 OFFCURVE",
"235 69 OFFCURVE",
"250 63 QCURVE",
"247 49 LINE",
"77 49 LINE",
"80 63 LINE",
"97 69 OFFCURVE",
"132 91 OFFCURVE",
"136 111 QCURVE SMOOTH",
"239 594 LINE SMOOTH",
"243 614 OFFCURVE",
"218 636 OFFCURVE",
"203 642 QCURVE",
"206 655 LINE"
);
},
{
nodes = (
"643 655 LINE",
"640 642 LINE",
"623 636 OFFCURVE",
"588 614 OFFCURVE",
"584 594 QCURVE SMOOTH",
"481 111 LINE SMOOTH",
"477 91 OFFCURVE",
"502 69 OFFCURVE",
"517 63 QCURVE",
"514 49 LINE",
"344 49 LINE",
"347 63 LINE",
"364 69 OFFCURVE",
"399 91 OFFCURVE",
"403 111 QCURVE SMOOTH",
"506 594 LINE SMOOTH",
"510 614 OFFCURVE",
"485 636 OFFCURVE",
"470 642 QCURVE",
"473 655 LINE"
);
},
{
nodes = (
"112 584 LINE",
"125 584 LINE",
"127 568 OFFCURVE",
"143 538 OFFCURVE",
"163 538 QCURVE SMOOTH",
"646 538 LINE SMOOTH",
"666 538 OFFCURVE",
"694 568 OFFCURVE",
"704 584 QCURVE",
"718 584 LINE",
"681 414 LINE",
"667 414 LINE",
"665 430 OFFCURVE",
"649 460 OFFCURVE",
"629 460 QCURVE SMOOTH",
"146 460 LINE SMOOTH",
"126 460 OFFCURVE",
"98 430 OFFCURVE",
"88 414 QCURVE",
"75 414 LINE"
);
},
{
nodes = (
"57 325 LINE",
"70 325 LINE",
"72 309 OFFCURVE",
"88 279 OFFCURVE",
"108 279 QCURVE SMOOTH",
"591 279 LINE SMOOTH",
"611 279 OFFCURVE",
"639 309 OFFCURVE",
"649 325 QCURVE",
"663 325 LINE",
"626 155 LINE",
"612 155 LINE",
"610 171 OFFCURVE",
"594 201 OFFCURVE",
"574 201 QCURVE SMOOTH",
"91 201 LINE SMOOTH",
"71 201 OFFCURVE",
"43 171 OFFCURVE",
"33 155 QCURVE",
"20 155 LINE"
);
}
);
width = 735;
}
);
unicode = 0023;
},
{
glyphname = percent;
layers = (
{
layerId = "CD1C2F27-7B64-400F-B9B0-689659144D44";
paths = (
{
nodes = (
"936 678 LINE",
"930 665 LINE",
"912 659 OFFCURVE",
"872 637 OFFCURVE",
"864 617 QCURVE SMOOTH",
"628 62 LINE",
"618 42 OFFCURVE",
"640 20 OFFCURVE",
"652 14 QCURVE",
"648 0 LINE",
"342 0 LINE",
"346 14 LINE",
"366 20 OFFCURVE",
"404 42 OFFCURVE",
"414 62 QCURVE",
"650 617 LINE SMOOTH",
"658 637 OFFCURVE",
"638 659 OFFCURVE",
"624 665 QCURVE",
"630 678 LINE"
);
},
{
nodes = (
"467 282 LINE SMOOTH",
"467 252 OFFCURVE",
"437 215 OFFCURVE",
"392 196 OFFCURVE",
"339 190 OFFCURVE",
"315 190 QCURVE SMOOTH",
"204 190 LINE SMOOTH",
"180 190 OFFCURVE",
"127 196 OFFCURVE",
"82 215 OFFCURVE",
"53 252 OFFCURVE",
"53 282 QCURVE SMOOTH",
"53 586 LINE SMOOTH",
"53 616 OFFCURVE",
"82 653 OFFCURVE",
"127 672 OFFCURVE",
"180 678 OFFCURVE",
"204 678 QCURVE SMOOTH",
"315 678 LINE SMOOTH",
"339 678 OFFCURVE",
"392 672 OFFCURVE",
"437 653 OFFCURVE",
"467 616 OFFCURVE",
"467 586 QCURVE SMOOTH"
);
},
{
nodes = (
"306 328 LINE",
"306 553 LINE",
"202 553 LINE",
"202 328 LINE"
);
},
{
nodes = (
"1253 92 LINE SMOOTH",
"1253 62 OFFCURVE",
"1223 25 OFFCURVE",
"1178 6 OFFCURVE",
"1125 0 OFFCURVE",
"1101 0 QCURVE SMOOTH",
"990 0 LINE SMOOTH",
"966 0 OFFCURVE",
"913 6 OFFCURVE",
"868 25 OFFCURVE",
"839 62 OFFCURVE",
"839 92 QCURVE SMOOTH",
"839 396 LINE SMOOTH",
"839 426 OFFCURVE",
"868 463 OFFCURVE",
"913 482 OFFCURVE",
"966 488 OFFCURVE",
"990 488 QCURVE SMOOTH",
"1101 488 LINE SMOOTH",
"1125 488 OFFCURVE",
"1178 482 OFFCURVE",
"1223 463 OFFCURVE",
"1253 426 OFFCURVE",
"1253 396 QCURVE SMOOTH"
);
},
{
nodes = (
"1092 138 LINE",
"1092 363 LINE",
"988 363 LINE",
"988 138 LINE"
);
}
);
width = 1297;
}
);
unicode = 0025;
},
{
glyphname = slash;
layers = (
{
layerId = "CD1C2F27-7B64-400F-B9B0-689659144D44";
paths = (
{
nodes = (
"409 678 LINE",
"194 0 LINE",
"38 0 LINE",
"253 678 LINE"
);
}
);
width = 444;
}
);
unicode = 002F;
},
{
glyphname = hyphen;
layers = (
{
layerId = "CD1C2F27-7B64-400F-B9B0-689659144D44";
paths = (
{
nodes = (
"27 432 LINE",
"379 432 LINE",
"379 264 LINE",
"27 264 LINE"
);
}
);
width = 412;
}
);
unicode = 002D;
},
{
glyphname = equal;
layers = (
{
layerId = "CD1C2F27-7B64-400F-B9B0-689659144D44";
paths = (
{
nodes = (
"44 486 LINE",
"449 486 LINE",
"449 359 LINE",
"44 359 LINE"
);
},
{
nodes = (
"44 301 LINE",
"449 301 LINE",
"449 174 LINE",
"44 174 LINE"
);
}
);
width = 486;
}
);
unicode = 003D;
},
{
glyphname = Euro;
layers = (
{
layerId = "CD1C2F27-7B64-400F-B9B0-689659144D44";
paths = (
{
nodes = (
"30 407 LINE",
"435 407 LINE",
"435 359 LINE",
"30 359 LINE"
);
},
{
nodes = (
"30 326 LINE",
"435 326 LINE",
"435 273 LINE",
"30 273 LINE"
);
},
{
nodes = (
"640 247 LINE",
"640 93 LINE SMOOTH",
"640 63 OFFCURVE",
"611 26 OFFCURVE",
"566 6 OFFCURVE",
"513 0 OFFCURVE",
"489 0 QCURVE SMOOTH",
"225 0 LINE SMOOTH",
"201 0 OFFCURVE",
"148 6 OFFCURVE",
"103 26 OFFCURVE",
"74 63 OFFCURVE",
"74 93 QCURVE SMOOTH",
"74 586 LINE SMOOTH",
"74 616 OFFCURVE",
"103 653 OFFCURVE",
"148 673 OFFCURVE",
"201 679 OFFCURVE",
"225 679 QCURVE SMOOTH",
"489 679 LINE SMOOTH",
"513 679 OFFCURVE",
"566 673 OFFCURVE",
"611 653 OFFCURVE",
"640 616 OFFCURVE",
"640 586 QCURVE SMOOTH",
"640 432 LINE",
"376 432 LINE",
"376 445 LINE",
"393 451 OFFCURVE",
"422 474 OFFCURVE",
"422 494 QCURVE",
"301 494 LINE",
"301 185 LINE",
"422 185 LINE",
"422 205 OFFCURVE",
"393 228 OFFCURVE",
"376 234 QCURVE",
"376 247 LINE"
);
}
);
width = 680;
}
);
unicode = 20AC;
},
{
glyphname = perthousand;
layers = (
{
layerId = "CD1C2F27-7B64-400F-B9B0-689659144D44";
paths = (
{
nodes = (
"936 678 LINE",
"930 665 LINE",
"912 659 OFFCURVE",
"872 637 OFFCURVE",
"864 617 QCURVE SMOOTH",
"628 62 LINE",
"618 42 OFFCURVE",
"640 20 OFFCURVE",
"652 14 QCURVE",
"648 0 LINE",
"342 0 LINE",
"346 14 LINE",
"366 20 OFFCURVE",
"404 42 OFFCURVE",
"414 62 QCURVE",
"650 617 LINE SMOOTH",
"658 637 OFFCURVE",
"638 659 OFFCURVE",
"624 665 QCURVE",
"630 678 LINE"
);
},
{
nodes = (
"467 282 LINE SMOOTH",
"467 252 OFFCURVE",
"437 215 OFFCURVE",
"392 196 OFFCURVE",
"339 190 OFFCURVE",
"315 190 QCURVE SMOOTH",
"204 190 LINE SMOOTH",
"180 190 OFFCURVE",
"127 196 OFFCURVE",
"82 215 OFFCURVE",
"53 252 OFFCURVE",
"53 282 QCURVE SMOOTH",
"53 586 LINE SMOOTH",
"53 616 OFFCURVE",
"82 653 OFFCURVE",
"127 672 OFFCURVE",
"180 678 OFFCURVE",
"204 678 QCURVE SMOOTH",
"315 678 LINE SMOOTH",
"339 678 OFFCURVE",
"392 672 OFFCURVE",
"437 653 OFFCURVE",
"467 616 OFFCURVE",
"467 586 QCURVE SMOOTH"
);
},
{
nodes = (
"306 328 LINE",
"306 553 LINE",
"202 553 LINE",
"202 328 LINE"
);
},
{
nodes = (
"1253 92 LINE SMOOTH",
"1253 62 OFFCURVE",
"1223 25 OFFCURVE",
"1178 6 OFFCURVE",
"1125 0 OFFCURVE",
"1101 0 QCURVE SMOOTH",
"990 0 LINE SMOOTH",
"966 0 OFFCURVE",
"913 6 OFFCURVE",
"868 25 OFFCURVE",
"839 62 OFFCURVE",
"839 92 QCURVE SMOOTH",
"839 396 LINE SMOOTH",
"839 426 OFFCURVE",
"868 463 OFFCURVE",
"913 482 OFFCURVE",
"966 488 OFFCURVE",
"990 488 QCURVE SMOOTH",
"1101 488 LINE SMOOTH",
"1125 488 OFFCURVE",
"1178 482 OFFCURVE",
"1223 463 OFFCURVE",
"1253 426 OFFCURVE",
"1253 396 QCURVE SMOOTH"
);
},
{
nodes = (
"1092 138 LINE",
"1092 363 LINE",
"988 363 LINE",
"988 138 LINE"
);
},
{
nodes = (
"1718 92 LINE SMOOTH",
"1718 62 OFFCURVE",
"1688 25 OFFCURVE",
"1643 6 OFFCURVE",
"1590 0 OFFCURVE",
"1566 0 QCURVE SMOOTH",
"1455 0 LINE SMOOTH",
"1431 0 OFFCURVE",
"1378 6 OFFCURVE",
"1333 25 OFFCURVE",
"1304 62 OFFCURVE",
"1304 92 QCURVE SMOOTH",
"1304 396 LINE SMOOTH",
"1304 426 OFFCURVE",
"1333 463 OFFCURVE",
"1378 482 OFFCURVE",
"1431 488 OFFCURVE",
"1455 488 QCURVE SMOOTH",
"1566 488 LINE SMOOTH",
"1590 488 OFFCURVE",
"1643 482 OFFCURVE",
"1688 463 OFFCURVE",
"1718 426 OFFCURVE",
"1718 396 QCURVE SMOOTH"
);
},
{
nodes = (
"1557 138 LINE",
"1557 363 LINE",
"1453 363 LINE",
"1453 138 LINE"
);
}
);
width = 1753;
}
);
unicode = 2030;
},
{
glyphname = Scaron;
layers = (
{
layerId = "CD1C2F27-7B64-400F-B9B0-689659144D44";
paths = (
{
nodes = (
"618 247 LINE",
"618 93 LINE SMOOTH",
"618 63 OFFCURVE",
"589 26 OFFCURVE",
"544 6 OFFCURVE",
"491 0 OFFCURVE",
"467 0 QCURVE SMOOTH",
"203 0 LINE SMOOTH",
"179 0 OFFCURVE",
"126 6 OFFCURVE",
"81 26 OFFCURVE",
"52 63 OFFCURVE",
"52 93 QCURVE SMOOTH",
"52 586 LINE SMOOTH",
"52 616 OFFCURVE",
"81 653 OFFCURVE",
"126 673 OFFCURVE",
"179 679 OFFCURVE",
"203 679 QCURVE SMOOTH",
"467 679 LINE SMOOTH",
"491 679 OFFCURVE",
"544 673 OFFCURVE",
"589 653 OFFCURVE",
"618 616 OFFCURVE",
"618 586 QCURVE SMOOTH",
"618 432 LINE",
"354 432 LINE",
"354 445 LINE",
"371 451 OFFCURVE",
"400 474 OFFCURVE",
"400 494 QCURVE",
"279 494 LINE",
"279 185 LINE",
"400 185 LINE",
"400 205 OFFCURVE",
"371 228 OFFCURVE",
"354 234 QCURVE",
"354 247 LINE"
);
}
);
width = 670;
}
);
unicode = 0160;
},
{
glyphname = germandbls;
layers = (
{
layerId = "CD1C2F27-7B64-400F-B9B0-689659144D44";
paths = (
{
nodes = (
"431 401 LINE",
"431 494 LINE",
"286 494 LINE",
"286 0 LINE",
"12 0 LINE",
"12 13 LINE",
"28 18 OFFCURVE",
"58 41 OFFCURVE",
"58 61 QCURVE SMOOTH",
"58 586 LINE SMOOTH",
"58 616 OFFCURVE",
"88 653 OFFCURVE",
"133 673 OFFCURVE",
"186 679 OFFCURVE",
"210 679 QCURVE SMOOTH",
"507 679 LINE SMOOTH",
"531 679 OFFCURVE",
"584 673 OFFCURVE",
"629 653 OFFCURVE",
"658 616 OFFCURVE",
"658 586 QCURVE SMOOTH",
"658 432 LINE SMOOTH",
"658 406 OFFCURVE",
"640 370 OFFCURVE",
"610 348 OFFCURVE",
"589 343 QCURVE SMOOTH",
"574 340 OFFCURVE",
"560 339 QCURVE",
"574 337 OFFCURVE",
"589 334 QCURVE SMOOTH",
"610 330 OFFCURVE",
"640 309 OFFCURVE",
"658 273 OFFCURVE",
"658 247 QCURVE SMOOTH",
"658 92 LINE SMOOTH",
"658 62 OFFCURVE",
"628 25 OFFCURVE",
"583 6 OFFCURVE",
"530 0 OFFCURVE",
"507 0 QCURVE SMOOTH",
"321 0 LINE",
"321 185 LINE",
"431 185 LINE",
"431 278 LINE",
"320 278 LINE",
"320 401 LINE"
);
}
);
width = 696;
}
);
unicode = 00DF;
},
{
glyphname = ellipsis;
layers = (
{
layerId = "CD1C2F27-7B64-400F-B9B0-689659144D44";
paths = (
{
nodes = (
"158 185 OFFCURVE",
"199 172 OFFCURVE",
"231 148 OFFCURVE",
"252 114 OFFCURVE",
"252 92 QCURVE SMOOTH",
"252 70 OFFCURVE",
"231 36 OFFCURVE",
"199 12 OFFCURVE",
"158 0 OFFCURVE",
"139 0 QCURVE SMOOTH",
"119 0 OFFCURVE",
"79 12 OFFCURVE",
"46 36 OFFCURVE",
"25 70 OFFCURVE",
"25 92 QCURVE SMOOTH",
"25 114 OFFCURVE",
"46 149 OFFCURVE",
"79 173 OFFCURVE",
"119 185 OFFCURVE",
"139 185 QCURVE SMOOTH"
);
},
{
nodes = (
"438 185 OFFCURVE",
"479 172 OFFCURVE",
"511 148 OFFCURVE",
"532 114 OFFCURVE",
"532 92 QCURVE SMOOTH",
"532 70 OFFCURVE",
"511 36 OFFCURVE",
"479 12 OFFCURVE",
"438 0 OFFCURVE",
"419 0 QCURVE SMOOTH",
"399 0 OFFCURVE",
"359 12 OFFCURVE",
"326 36 OFFCURVE",
"305 70 OFFCURVE",
"305 92 QCURVE SMOOTH",
"305 114 OFFCURVE",
"326 149 OFFCURVE",
"359 173 OFFCURVE",
"399 185 OFFCURVE",
"419 185 QCURVE SMOOTH"
);
},
{
nodes = (
"718 185 OFFCURVE",
"759 172 OFFCURVE",
"791 148 OFFCURVE",
"812 114 OFFCURVE",
"812 92 QCURVE SMOOTH",
"812 70 OFFCURVE",
"791 36 OFFCURVE",
"759 12 OFFCURVE",
"718 0 OFFCURVE",
"699 0 QCURVE SMOOTH",
"679 0 OFFCURVE",
"639 12 OFFCURVE",
"606 36 OFFCURVE",
"585 70 OFFCURVE",
"585 92 QCURVE SMOOTH",
"585 114 OFFCURVE",
"606 149 OFFCURVE",
"639 173 OFFCURVE",
"679 185 OFFCURVE",
"699 185 QCURVE SMOOTH"
);
}
);
width = 840;
}
);
unicode = 2026;
},
{
glyphname = caron;
layers = (
{
layerId = "CD1C2F27-7B64-400F-B9B0-689659144D44";
paths = (
{
nodes = (
"394 716 LINE",
"141 716 LINE",
"38 884 LINE",
"216 884 LINE",
"267 804 LINE",
"319 884 LINE",
"497 884 LINE"
);
}
);
width = 531;
}
);
unicode = 02C7;
},
{
glyphname = hungarumlaut;
layers = (
{
layerId = "CD1C2F27-7B64-400F-B9B0-689659144D44";
paths = (
{
nodes = (
"265 716 LINE",
"82 716 LINE",
"190 884 LINE",
"368 884 LINE"
);
},
{
nodes = (
"531 716 LINE",
"348 716 LINE",
"456 884 LINE",
"634 884 LINE"
);
}
);
width = 687;
}
);
unicode = 02DD;
},
{
glyphname = dieresis;
layers = (
{
layerId = "CD1C2F27-7B64-400F-B9B0-689659144D44";
paths = (
{
nodes = (
"173 870 OFFCURVE",
"209 858 OFFCURVE",
"238 837 OFFCURVE",
"257 807 OFFCURVE",
"257 787 QCURVE SMOOTH",
"257 768 OFFCURVE",
"238 738 OFFCURVE",
"209 717 OFFCURVE",
"173 706 OFFCURVE",
"156 706 QCURVE SMOOTH",
"138 706 OFFCURVE",
"102 717 OFFCURVE",
"73 738 OFFCURVE",
"54 768 OFFCURVE",
"54 787 QCURVE SMOOTH",
"54 807 OFFCURVE",
"73 838 OFFCURVE",
"102 859 OFFCURVE",
"138 870 OFFCURVE",
"156 870 QCURVE SMOOTH"
);
},
{
nodes = (
"428 870 OFFCURVE",
"465 858 OFFCURVE",
"493 837 OFFCURVE",
"512 807 OFFCURVE",
"512 787 QCURVE SMOOTH",
"512 768 OFFCURVE",
"493 738 OFFCURVE",
"465 717 OFFCURVE",
"428 706 OFFCURVE",
"411 706 QCURVE SMOOTH",
"393 706 OFFCURVE",
"357 717 OFFCURVE",
"328 738 OFFCURVE",
"309 768 OFFCURVE",
"309 787 QCURVE SMOOTH",
"309 807 OFFCURVE",
"328 838 OFFCURVE",
"357 859 OFFCURVE",
"393 870 OFFCURVE",
"411 870 QCURVE SMOOTH"
);
}
);
width = 547;
}
);
unicode = 00A8;
},
{
glyphname = acute;
layers = (
{
layerId = "CD1C2F27-7B64-400F-B9B0-689659144D44";
paths = (
{
nodes = (
"287 716 LINE",
"104 716 LINE",
"212 884 LINE",
"390 884 LINE"
);
}
);
width = 456;
}
);
unicode = 00B4;
},
{
glyphname = cedilla;
layers = (
{
layerId = "CD1C2F27-7B64-400F-B9B0-689659144D44";
paths = (
{
nodes = (
"329 -209 LINE SMOOTH",
"329 -222 OFFCURVE",
"316 -237 OFFCURVE",
"296 -245 OFFCURVE",
"274 -247 OFFCURVE",
"264 -247 QCURVE SMOOTH",
"98 -247 LINE",
"98 -157 LINE",
"232 -157 LINE",
"232 -125 LINE",
"97 -125 LINE",
"97 0 LINE",
"201 0 LINE",
"201 -44 LINE",
"265 -44 LINE SMOOTH",
"273 -44 OFFCURVE",
"295 -47 OFFCURVE",
"315 -55 OFFCURVE",
"329 -70 OFFCURVE",
"329 -82 QCURVE SMOOTH"
);
}
);
width = 415;
}
);
unicode = 00B8;
},
{
glyphname = ogonek;
layers = (
{
layerId = "CD1C2F27-7B64-400F-B9B0-689659144D44";
paths = (
{
nodes = (
"97 -82 LINE SMOOTH",
"97 -70 OFFCURVE",
"111 -55 OFFCURVE",
"131 -47 OFFCURVE",
"153 -44 OFFCURVE",
"161 -44 QCURVE SMOOTH",
"225 -44 LINE",
"225 0 LINE",
"329 0 LINE",
"329 -125 LINE",
"194 -125 LINE",
"194 -157 LINE",
"328 -157 LINE",
"328 -247 LINE",
"162 -247 LINE SMOOTH",
"152 -247 OFFCURVE",
"129 -245 OFFCURVE",
"110 -237 OFFCURVE",
"97 -222 OFFCURVE",
"97 -209 QCURVE SMOOTH"
);
}
);
width = 415;
}
);
unicode = 02DB;
},
{
glyphname = plus;
layers = (
{
layerId = "CD1C2F27-7B64-400F-B9B0-689659144D44";
paths = (
{
nodes = (
"27 432 LINE",
"492 432 LINE",
"492 264 LINE",
"27 264 LINE"
);
},
{
nodes = (
"171 111 LINE",
"171 576 LINE",
"339 576 LINE",
"339 111 LINE"
);
}
);
width = 527;
}
);
unicode = 002B;
},
{
glyphname = trademark;
layers = (
{
layerId = "CD1C2F27-7B64-400F-B9B0-689659144D44";
paths = (
{
nodes = (
"23 658 LINE",
"269 658 LINE",
"269 554 LINE",
"262 554 LINE",
"257 562 OFFCURVE",
"243 571 OFFCURVE",
"234 571 QCURVE SMOOTH",
"200 571 LINE",
"200 369 LINE SMOOTH",
"200 360 OFFCURVE",
"213 349 OFFCURVE",
"221 346 QCURVE",
"221 340 LINE",
"72 340 LINE",
"72 346 LINE",
"79 349 OFFCURVE",
"93 360 OFFCURVE",
"93 369 QCURVE SMOOTH",
"93 571 LINE",
"59 571 LINE SMOOTH",
"50 571 OFFCURVE",
"36 562 OFFCURVE",
"31 554 QCURVE",
"23 554 LINE"
);
},
{
nodes = (
"647 369 LINE SMOOTH",
"647 360 OFFCURVE",
"661 349 OFFCURVE",
"669 346 QCURVE",
"669 340 LINE",
"519 340 LINE",
"519 346 LINE",
"527 349 OFFCURVE",
"540 360 OFFCURVE",
"540 369 QCURVE SMOOTH",
"540 508 LINE",
"479 416 LINE",
"463 439 OFFCURVE",
"432 485 OFFCURVE",
"416 508 QCURVE",
"416 369 LINE SMOOTH",
"416 360 OFFCURVE",
"431 349 OFFCURVE",
"438 346 QCURVE",
"438 340 LINE",
"289 340 LINE",
"289 346 LINE",
"297 349 OFFCURVE",
"310 360 OFFCURVE",
"310 369 QCURVE SMOOTH",
"310 629 LINE SMOOTH",
"310 638 OFFCURVE",
"297 649 OFFCURVE",
"289 652 QCURVE",
"289 658 LINE",
"438 658 LINE",
"438 652 LINE",
"431 649 OFFCURVE",
"416 638 OFFCURVE",
"416 629 QCURVE",
"479 536 LINE",
"540 629 LINE",
"540 638 OFFCURVE",
"527 649 OFFCURVE",
"519 652 QCURVE",
"519 658 LINE",
"669 658 LINE",
"669 652 LINE",
"661 649 OFFCURVE",
"647 638 OFFCURVE",
"647 629 QCURVE SMOOTH"
);
}
);
width = 694;
}
);
unicode = 2122;
},
{
glyphname = braceleft;
layers = (
{
layerId = "CD1C2F27-7B64-400F-B9B0-689659144D44";
paths = (
{
nodes = (
"485 710 LINE",
"400 710 LINE",
"400 -35 LINE",
"485 -35 LINE",
"485 -220 LINE",
"328 -220 LINE SMOOTH",
"304 -220 OFFCURVE",
"251 -214 OFFCURVE",
"206 -195 OFFCURVE",
"177 -158 OFFCURVE",
"177 -128 QCURVE SMOOTH",
"177 193 LINE SMOOTH",
"177 223 OFFCURVE",
"148 260 OFFCURVE",
"103 279 OFFCURVE",
"50 285 OFFCURVE",
"26 285 QCURVE",
"26 367 LINE",
"50 367 OFFCURVE",
"103 373 OFFCURVE",
"148 392 OFFCURVE",
"177 429 OFFCURVE",
"177 459 QCURVE SMOOTH",
"177 803 LINE SMOOTH",
"177 833 OFFCURVE",
"205 870 OFFCURVE",
"248 889 OFFCURVE",
"300 895 OFFCURVE",
"324 895 QCURVE SMOOTH",
"485 895 LINE",
"485 711 LINE"
);
}
);
width = 446;
}
);
unicode = 007B;
},
{
glyphname = bracketleft;
layers = (
{
layerId = "CD1C2F27-7B64-400F-B9B0-689659144D44";
paths = (
{
nodes = (
"379 -241 LINE",
"63 -241 LINE",
"63 892 LINE",
"379 892 LINE",
"379 707 LINE",
"290 707 LINE",
"290 -56 LINE",
"379 -56 LINE"
);
}
);
width = 417;
}
);
unicode = 005B;
},
{
glyphname = dotaccent;
layers = (
{
layerId = "CD1C2F27-7B64-400F-B9B0-689659144D44";
paths = (
{
nodes = (
"167 870 OFFCURVE",
"204 858 OFFCURVE",
"232 837 OFFCURVE",
"251 807 OFFCURVE",
"251 787 QCURVE SMOOTH",
"251 768 OFFCURVE",
"232 738 OFFCURVE",
"204 717 OFFCURVE",
"167 706 OFFCURVE",
"150 706 QCURVE SMOOTH",
"132 706 OFFCURVE",
"96 717 OFFCURVE",
"67 738 OFFCURVE",
"48 768 OFFCURVE",
"48 787 QCURVE SMOOTH",
"48 807 OFFCURVE",
"67 838 OFFCURVE",
"96 859 OFFCURVE",
"132 870 OFFCURVE",
"150 870 QCURVE SMOOTH"
);
}
);
width = 297;
}
);
unicode = 02D9;
},
{
glyphname = endash;
layers = (
{
layerId = "CD1C2F27-7B64-400F-B9B0-689659144D44";
paths = (
{
nodes = (
"27 432 LINE",
"642 432 LINE",
"642 264 LINE",
"27 264 LINE"
);
}
);
width = 672;
}
);
unicode = 2013;
},
{
glyphname = emdash;
layers = (
{
layerId = "CD1C2F27-7B64-400F-B9B0-689659144D44";
paths = (
{
nodes = (
"27 432 LINE",
"739 432 LINE",
"739 264 LINE",
"27 264 LINE"
);
}
);
width = 833;
}
);
unicode = 2014;
},
{
glyphname = bullet;
layers = (
{
layerId = "CD1C2F27-7B64-400F-B9B0-689659144D44";
paths = (
{
nodes = (
"28 377 OFFCURVE",
"48 423 OFFCURVE",
"81 456 OFFCURVE",
"126 476 OFFCURVE",
"152 476 QCURVE SMOOTH",
"177 476 OFFCURVE",
"223 456 OFFCURVE",
"256 423 OFFCURVE",
"276 377 OFFCURVE",
"276 352 QCURVE SMOOTH",
"276 326 OFFCURVE",
"256 281 OFFCURVE",
"223 248 OFFCURVE",
"177 228 OFFCURVE",
"152 228 QCURVE SMOOTH",
"126 228 OFFCURVE",
"81 248 OFFCURVE",
"48 281 OFFCURVE",
"28 326 OFFCURVE",
"28 352 QCURVE SMOOTH"
);
}
);
width = 306;
}
);
unicode = 2022;
},
{
glyphname = tcaron;
layers = (
{
layerId = "CD1C2F27-7B64-400F-B9B0-689659144D44";
paths = (
{
nodes = (
"639 469 LINE",
"609 478 OFFCURVE",
"563 523 OFFCURVE",
"563 556 QCURVE SMOOTH",
"563 578 OFFCURVE",
"583 613 OFFCURVE",
"616 637 OFFCURVE",
"656 649 OFFCURVE",
"676 649 QCURVE SMOOTH",
"696 649 OFFCURVE",
"736 637 OFFCURVE",
"769 613 OFFCURVE",
"790 578 OFFCURVE",
"790 556 QCURVE SMOOTH",
"790 529 OFFCURVE",
"772 483 OFFCURVE",
"740 445 OFFCURVE",
"699 414 OFFCURVE",
"677 402 QCURVE",
"639 402 LINE"
);
},
{
nodes = (
"19 679 LINE",
"544 679 LINE",
"544 456 LINE",
"528 456 LINE",
"518 473 OFFCURVE",
"489 494 OFFCURVE",
"469 494 QCURVE SMOOTH",
"396 494 LINE",
"396 62 LINE SMOOTH",
"396 42 OFFCURVE",
"425 19 OFFCURVE",
"442 13 QCURVE",
"442 0 LINE",
"123 0 LINE",
"123 13 LINE",
"139 19 OFFCURVE",
"169 42 OFFCURVE",
"169 62 QCURVE SMOOTH",
"169 494 LINE",
"95 494 LINE SMOOTH",
"75 494 OFFCURVE",
"46 473 OFFCURVE",
"36 456 QCURVE",
"19 456 LINE"
);
}
);
width = 825;
}
);
unicode = 0165;
},
{
glyphname = less;
layers = (
{
layerId = "CD1C2F27-7B64-400F-B9B0-689659144D44";
paths = (
{
nodes = (
"25 344 LINE",
"289 572 LINE",
"372 476 LINE",
"220 344 LINE",
"373 211 LINE",
"290 115 LINE"
);
}
);
width = 400;
}
);
unicode = 003C;
},
{
glyphname = greater;
layers = (
{
layerId = "CD1C2F27-7B64-400F-B9B0-689659144D44";
paths = (
{
nodes = (
"108 115 LINE",
"25 211 LINE",
"178 344 LINE",
"26 476 LINE",
"109 572 LINE",
"373 344 LINE"
);
}
);
width = 400;
}
);
unicode = 003E;
},
{
glyphname = parenleft;
layers = (
{
layerId = "CD1C2F27-7B64-400F-B9B0-689659144D44";
paths = (
{
nodes = (
"106 -78 OFFCURVE",
"62 -62 OFFCURVE",
"34 -29 OFFCURVE",
"34 -2 QCURVE SMOOTH",
"34 698 LINE SMOOTH",
"34 724 OFFCURVE",
"62 758 OFFCURVE",
"106 774 OFFCURVE",
"157 780 OFFCURVE",
"181 780 QCURVE SMOOTH",
"337 780 LINE",
"337 617 LINE",
"255 617 LINE",
"255 81 LINE",
"337 81 LINE",
"337 -84 LINE",
"181 -84 LINE SMOOTH",
"157 -84 OFFCURVE",
"131 -81 QCURVE SMOOTH"
);
}
);
width = 373;
}
);
unicode = 0028;
},
{
glyphname = registered;
layers = (
{
layerId = "CD1C2F27-7B64-400F-B9B0-689659144D44";
paths = (
{
nodes = (
"146 544 LINE",
"290 544 LINE SMOOTH",
"298 544 OFFCURVE",
"314 541 OFFCURVE",
"327 533 OFFCURVE",
"335 520 OFFCURVE",
"335 511 QCURVE SMOOTH",
"335 477 LINE SMOOTH",
"335 470 OFFCURVE",
"329 457 OFFCURVE",
"319 447 OFFCURVE",
"306 442 OFFCURVE",
"298 442 QCURVE",
"306 442 OFFCURVE",
"319 437 OFFCURVE",
"329 427 OFFCURVE",
"335 414 OFFCURVE",
"335 407 QCURVE SMOOTH",
"335 398 LINE",
"335 359 LINE SMOOTH",
"335 353 OFFCURVE",
"345 346 OFFCURVE",
"349 345 QCURVE",
"349 341 LINE",
"254 341 LINE",
"254 345 LINE",
"258 347 OFFCURVE",
"267 353 OFFCURVE",
"267 359 QCURVE SMOOTH",
"267 424 LINE",
"228 424 LINE",
"228 359 LINE SMOOTH",
"228 353 OFFCURVE",
"237 347 OFFCURVE",
"243 345 QCURVE",
"243 341 LINE",
"146 341 LINE",
"146 345 LINE",
"151 347 OFFCURVE",
"160 353 OFFCURVE",
"160 359 QCURVE SMOOTH",
"160 526 LINE SMOOTH",
"160 532 OFFCURVE",
"151 539 OFFCURVE",
"146 541 QCURVE"
);
},
{
nodes = (
"267 461 LINE",
"267 489 LINE",
"228 489 LINE",
"228 461 LINE"
);
},
{
nodes = (
"286 658 OFFCURVE",
"364 624 OFFCURVE",
"423 565 OFFCURVE",
"457 487 OFFCURVE",
"457 442 QCURVE SMOOTH",
"457 397 OFFCURVE",
"423 318 OFFCURVE",
"364 260 OFFCURVE",
"286 226 OFFCURVE",
"241 226 QCURVE SMOOTH",
"196 226 OFFCURVE",
"117 260 OFFCURVE",
"58 318 OFFCURVE",
"24 397 OFFCURVE",
"24 442 QCURVE SMOOTH",
"24 487 OFFCURVE",
"58 565 OFFCURVE",
"117 624 OFFCURVE",
"196 658 OFFCURVE",
"241 658 QCURVE SMOOTH"
);
},
{
nodes = (
"273 276 OFFCURVE",
"332 302 OFFCURVE",
"377 346 OFFCURVE",
"403 405 OFFCURVE",
"403 439 QCURVE SMOOTH",
"403 473 OFFCURVE",
"377 532 OFFCURVE",
"332 577 OFFCURVE",
"273 603 OFFCURVE",
"239 603 QCURVE SMOOTH",
"205 603 OFFCURVE",
"145 577 OFFCURVE",
"101 532 OFFCURVE",
"76 473 OFFCURVE",
"76 439 QCURVE SMOOTH",
"76 405 OFFCURVE",
"101 346 OFFCURVE",
"145 302 OFFCURVE",
"205 276 OFFCURVE",
"239 276 QCURVE SMOOTH"
);
}
);
width = 478;
}
);
unicode = 00AE;
},
{
glyphname = copyright;
layers = (
{
layerId = "CD1C2F27-7B64-400F-B9B0-689659144D44";
paths = (
{
nodes = (
"312 565 OFFCURVE",
"375 530 OFFCURVE",
"395 501 QCURVE",
"324 443 LINE",
"316 454 OFFCURVE",
"292 469 OFFCURVE",
"278 469 QCURVE SMOOTH",
"255 469 OFFCURVE",
"223 438 OFFCURVE",
"223 415 QCURVE SMOOTH",
"223 392 OFFCURVE",
"255 361 OFFCURVE",
"278 361 QCURVE SMOOTH",
"298 361 OFFCURVE",
"315 376 QCURVE",
"379 317 LINE",
"359 296 OFFCURVE",
"306 271 OFFCURVE",
"275 271 QCURVE SMOOTH",
"244 271 OFFCURVE",
"190 294 OFFCURVE",
"150 335 OFFCURVE",
"127 388 OFFCURVE",
"127 418 QCURVE SMOOTH",
"127 448 OFFCURVE",
"150 502 OFFCURVE",
"190 542 OFFCURVE",
"244 565 OFFCURVE",
"275 565 QCURVE SMOOTH"
);
},
{
nodes = (
"318 657 OFFCURVE",
"404 620 OFFCURVE",
"467 556 OFFCURVE",
"504 470 OFFCURVE",
"504 422 QCURVE SMOOTH",
"504 372 OFFCURVE",
"467 286 OFFCURVE",
"404 223 OFFCURVE",
"318 186 OFFCURVE",
"270 186 QCURVE SMOOTH",
"222 186 OFFCURVE",
"136 223 OFFCURVE",
"72 286 OFFCURVE",
"35 372 OFFCURVE",
"35 422 QCURVE SMOOTH",
"35 470 OFFCURVE",
"72 556 OFFCURVE",
"136 620 OFFCURVE",
"222 657 OFFCURVE",
"270 657 QCURVE SMOOTH"
);
},
{
nodes = (
"305 241 OFFCURVE",
"370 269 OFFCURVE",
"419 317 OFFCURVE",
"447 381 OFFCURVE",
"447 418 QCURVE SMOOTH",
"447 455 OFFCURVE",
"419 520 OFFCURVE",
"370 569 OFFCURVE",
"305 597 OFFCURVE",
"268 597 QCURVE SMOOTH",
"231 597 OFFCURVE",
"167 569 OFFCURVE",
"119 520 OFFCURVE",
"91 455 OFFCURVE",
"91 418 QCURVE SMOOTH",
"91 381 OFFCURVE",
"119 317 OFFCURVE",
"167 269 OFFCURVE",
"231 241 OFFCURVE",
"268 241 QCURVE SMOOTH"
);
}
);
width = 537;
}
);
unicode = 00A9;
},
{
glyphname = breve;
layers = (
{
layerId = "CD1C2F27-7B64-400F-B9B0-689659144D44";
paths = (
{
nodes = (
"499 884 LINE",
"494 846 OFFCURVE",
"460 780 OFFCURVE",
"408 732 OFFCURVE",
"342 704 OFFCURVE",
"305 704 QCURVE SMOOTH",
"267 704 OFFCURVE",
"201 732 OFFCURVE",
"150 780 OFFCURVE",
"116 846 OFFCURVE",
"111 884 QCURVE",
"219 884 LINE",
"227 855 OFFCURVE",
"274 817 OFFCURVE",
"305 817 QCURVE SMOOTH",
"336 817 OFFCURVE",
"382 855 OFFCURVE",
"391 884 QCURVE"
);
}
);
width = 833;
}
);
unicode = 02D8;
},
{
glyphname = quoteleft;
layers = (
{
layerId = "CD1C2F27-7B64-400F-B9B0-689659144D44";
paths = (
{
nodes = (
"184 583 LINE",
"214 574 OFFCURVE",
"260 529 OFFCURVE",
"260 496 QCURVE SMOOTH",
"260 474 OFFCURVE",
"240 439 OFFCURVE",
"207 415 OFFCURVE",
"167 403 OFFCURVE",
"147 403 QCURVE SMOOTH",
"127 403 OFFCURVE",
"87 415 OFFCURVE",
"54 439 OFFCURVE",
"33 474 OFFCURVE",
"33 496 QCURVE SMOOTH",
"33 523 OFFCURVE",
"51 569 OFFCURVE",
"83 607 OFFCURVE",
"124 638 OFFCURVE",
"146 650 QCURVE",
"184 650 LINE"
);
}
);
width = 278;
}
);
unicode = 2018;
},
{
glyphname = quoteright;
layers = (
{
layerId = "CD1C2F27-7B64-400F-B9B0-689659144D44";
paths = (
{
nodes = (
"109 470 LINE",
"79 479 OFFCURVE",
"33 524 OFFCURVE",
"33 557 QCURVE SMOOTH",
"33 579 OFFCURVE",
"53 614 OFFCURVE",
"86 638 OFFCURVE",
"126 650 OFFCURVE",
"146 650 QCURVE SMOOTH",
"166 650 OFFCURVE",
"206 638 OFFCURVE",
"239 614 OFFCURVE",
"260 579 OFFCURVE",
"260 557 QCURVE SMOOTH",
"260 530 OFFCURVE",
"242 484 OFFCURVE",
"210 446 OFFCURVE",
"169 415 OFFCURVE",
"147 403 QCURVE",
"109 403 LINE"
);
}
);
width = 278;
}
);
unicode = 2019;
},
{
glyphname = quotedblright;
layers = (
{
layerId = "CD1C2F27-7B64-400F-B9B0-689659144D44";
paths = (
{
nodes = (
"109 470 LINE",
"79 479 OFFCURVE",
"33 524 OFFCURVE",
"33 557 QCURVE SMOOTH",
"33 579 OFFCURVE",
"53 614 OFFCURVE",
"86 638 OFFCURVE",
"126 650 OFFCURVE",
"146 650 QCURVE SMOOTH",
"166 650 OFFCURVE",
"206 638 OFFCURVE",
"239 614 OFFCURVE",
"260 579 OFFCURVE",
"260 557 QCURVE SMOOTH",
"260 530 OFFCURVE",
"242 484 OFFCURVE",
"210 446 OFFCURVE",
"169 415 OFFCURVE",
"147 403 QCURVE",
"109 403 LINE"
);
},
{
nodes = (
"375 470 LINE",
"345 479 OFFCURVE",
"299 524 OFFCURVE",
"299 557 QCURVE SMOOTH",
"299 579 OFFCURVE",
"319 614 OFFCURVE",
"352 638 OFFCURVE",
"392 650 OFFCURVE",
"412 650 QCURVE SMOOTH",
"432 650 OFFCURVE",
"472 638 OFFCURVE",
"505 614 OFFCURVE",
"526 579 OFFCURVE",
"526 557 QCURVE SMOOTH",
"526 530 OFFCURVE",
"508 484 OFFCURVE",
"476 446 OFFCURVE",
"435 415 OFFCURVE",
"413 403 QCURVE",
"375 403 LINE"
);
}
);
width = 570;
}
);
unicode = 201D;
},
{
glyphname = quotedblleft;
layers = (
{
layerId = "CD1C2F27-7B64-400F-B9B0-689659144D44";
paths = (
{
nodes = (
"450 583 LINE",
"480 574 OFFCURVE",
"526 529 OFFCURVE",
"526 496 QCURVE SMOOTH",
"526 474 OFFCURVE",
"506 439 OFFCURVE",
"473 415 OFFCURVE",
"433 403 OFFCURVE",
"413 403 QCURVE SMOOTH",
"393 403 OFFCURVE",
"353 415 OFFCURVE",
"320 439 OFFCURVE",
"299 474 OFFCURVE",
"299 496 QCURVE SMOOTH",
"299 523 OFFCURVE",
"317 569 OFFCURVE",
"349 607 OFFCURVE",
"390 638 OFFCURVE",
"412 650 QCURVE",
"450 650 LINE"
);
},
{
nodes = (
"184 583 LINE",
"214 574 OFFCURVE",
"260 529 OFFCURVE",
"260 496 QCURVE SMOOTH",
"260 474 OFFCURVE",
"240 439 OFFCURVE",
"207 415 OFFCURVE",
"167 403 OFFCURVE",
"147 403 QCURVE SMOOTH",
"127 403 OFFCURVE",
"87 415 OFFCURVE",
"54 439 OFFCURVE",
"33 474 OFFCURVE",
"33 496 QCURVE SMOOTH",
"33 523 OFFCURVE",
"51 569 OFFCURVE",
"83 607 OFFCURVE",
"124 638 OFFCURVE",
"146 650 QCURVE",
"184 650 LINE"
);
}
);
width = 570;
}
);
unicode = 201C;
},
{
glyphname = divide;
layers = (
{
layerId = "CD1C2F27-7B64-400F-B9B0-689659144D44";
paths = (
{
nodes = (
"27 432 LINE",
"531 432 LINE",
"531 264 LINE",
"27 264 LINE"
);
},
{
nodes = (
"302 185 OFFCURVE",
"343 172 OFFCURVE",
"375 148 OFFCURVE",
"396 114 OFFCURVE",
"396 92 QCURVE SMOOTH",
"396 70 OFFCURVE",
"375 36 OFFCURVE",
"343 12 OFFCURVE",
"302 0 OFFCURVE",
"283 0 QCURVE SMOOTH",
"263 0 OFFCURVE",
"223 12 OFFCURVE",
"190 36 OFFCURVE",
"169 70 OFFCURVE",
"169 92 QCURVE SMOOTH",
"169 114 OFFCURVE",
"190 149 OFFCURVE",
"223 173 OFFCURVE",
"263 185 OFFCURVE",
"283 185 QCURVE SMOOTH"
);
},
{
nodes = (
"302 680 OFFCURVE",
"343 667 OFFCURVE",
"375 643 OFFCURVE",
"396 609 OFFCURVE",
"396 587 QCURVE SMOOTH",
"396 565 OFFCURVE",
"375 531 OFFCURVE",
"343 507 OFFCURVE",
"302 495 OFFCURVE",
"283 495 QCURVE SMOOTH",
"263 495 OFFCURVE",
"223 507 OFFCURVE",
"190 531 OFFCURVE",
"169 565 OFFCURVE",
"169 587 QCURVE SMOOTH",
"169 609 OFFCURVE",
"190 644 OFFCURVE",
"223 668 OFFCURVE",
"263 680 OFFCURVE",
"283 680 QCURVE SMOOTH"
);
}
);
width = 573;
}
);
unicode = 00F7;
},
{
glyphname = underscore;
layers = (
{
layerId = "CD1C2F27-7B64-400F-B9B0-689659144D44";
paths = (
{
nodes = (
"44 -51 LINE",
"713 -51 LINE",
"713 -194 LINE",
"44 -194 LINE"
);
}
);
width = 749;
}
);
unicode = 005F;
},
{
glyphname = asciitilde;
layers = (
{
layerId = "CD1C2F27-7B64-400F-B9B0-689659144D44";
paths = (
{
nodes = (
"644 354 LINE",
"632 322 OFFCURVE",
"584 270 OFFCURVE",
"523 234 OFFCURVE",
"456 214 OFFCURVE",
"425 214 QCURVE SMOOTH",
"392 214 OFFCURVE",
"343 238 OFFCURVE",
"303 266 OFFCURVE",
"272 290 OFFCURVE",
"257 290 QCURVE SMOOTH",
"242 290 OFFCURVE",
"209 277 OFFCURVE",
"180 256 OFFCURVE",
"155 229 OFFCURVE",
"147 214 QCURVE",
"121 235 OFFCURVE",
"62 288 OFFCURVE",
"36 310 QCURVE",
"56 339 OFFCURVE",
"108 387 OFFCURVE",
"165 422 OFFCURVE",
"227 442 OFFCURVE",
"257 442 QCURVE SMOOTH",
"290 442 OFFCURVE",
"337 418 OFFCURVE",
"376 390 OFFCURVE",
"408 366 OFFCURVE",
"426 366 QCURVE SMOOTH",
"455 366 OFFCURVE",
"506 411 OFFCURVE",
"522 439 QCURVE"
);
}
);
width = 672;
}
);
unicode = 007E;
},
{
glyphname = asciicircum;
layers = (
{
layerId = "CD1C2F27-7B64-400F-B9B0-689659144D44";
paths = (
{
nodes = (
"5 297 LINE",
"280 654 LINE",
"360 654 LINE",
"634 297 LINE",
"528 216 LINE",
"320 485 LINE",
"112 216 LINE"
);
}
);
width = 666;
}
);
unicode = 005E;
},
{
glyphname = multiply;
layers = (
{
layerId = "CD1C2F27-7B64-400F-B9B0-689659144D44";
paths = (
{
nodes = (
"145 609 LINE",
"501 252 LINE",
"383 134 LINE",
"26 490 LINE"
);
},
{
nodes = (
"501 490 LINE",
"144 134 LINE",
"26 252 LINE",
"382 609 LINE"
);
}
);
width = 540;
}
);
unicode = 00D7;
},
{
glyphname = guilsinglleft;
layers = (
{
layerId = "CD1C2F27-7B64-400F-B9B0-689659144D44";
paths = (
{
nodes = (
"366 86 LINE",
"199 86 LINE",
"43 271 LINE",
"43 343 LINE",
"197 526 LINE",
"365 526 LINE",
"180 307 LINE"
);
}
);
width = 412;
}
);
unicode = 2039;
},
{
glyphname = guillemotright;
layers = (
{
layerId = "CD1C2F27-7B64-400F-B9B0-689659144D44";
paths = (
{
nodes = (
"297 351 LINE",
"297 292 LINE",
"115 71 LINE",
"37 138 LINE",
"188 321 LINE",
"37 505 LINE",
"115 572 LINE"
);
},
{
nodes = (
"493 351 LINE",
"493 292 LINE",
"311 71 LINE",
"233 138 LINE",
"384 321 LINE",
"233 505 LINE",
"311 572 LINE"
);
}
);
width = 516;
}
);
unicode = 00BB;
},
{
glyphname = parenright;
layers = (
{
layerId = "CD1C2F27-7B64-400F-B9B0-689659144D44";
paths = (
{
nodes = (
"214 -84 OFFCURVE",
"190 -84 QCURVE SMOOTH",
"34 -84 LINE",
"34 81 LINE",
"116 81 LINE",
"116 617 LINE",
"34 617 LINE",
"34 780 LINE",
"190 780 LINE SMOOTH",
"214 780 OFFCURVE",
"265 774 OFFCURVE",
"309 758 OFFCURVE",
"337 724 OFFCURVE",
"337 698 QCURVE SMOOTH",
"337 -2 LINE SMOOTH",
"337 -29 OFFCURVE",
"309 -62 OFFCURVE",
"265 -78 OFFCURVE",
"240 -81 QCURVE SMOOTH"
);
}
);
width = 373;
}
);
unicode = 0029;
},
{
glyphname = asterisk;
layers = (
{
layerId = "CD1C2F27-7B64-400F-B9B0-689659144D44";
paths = (
{
nodes = (
"573 175 LINE",
"436 246 LINE",
"436 81 LINE",
"268 81 LINE",
"268 251 LINE",
"122 175 LINE",
"44 325 LINE",
"166 388 LINE",
"44 452 LINE",
"121 600 LINE",
"268 523 LINE",
"268 678 LINE",
"436 678 LINE",
"436 528 LINE",
"574 600 LINE",
"651 452 LINE",
"529 388 LINE",
"651 325 LINE"
);
}
);
width = 686;
}
);
unicode = 002A;
},
{
glyphname = ampersand;
layers = (
{
layerId = "CD1C2F27-7B64-400F-B9B0-689659144D44";
paths = (
{
nodes = (
"274 494 LINE",
"274 401 LINE",
"663 401 LINE",
"663 275 LINE",
"601 275 LINE",
"601 93 LINE SMOOTH",
"601 63 OFFCURVE",
"572 26 OFFCURVE",
"527 6 OFFCURVE",
"474 0 OFFCURVE",
"450 0 QCURVE SMOOTH",
"198 0 LINE SMOOTH",
"174 0 OFFCURVE",
"121 6 OFFCURVE",
"76 26 OFFCURVE",
"46 63 OFFCURVE",
"46 93 QCURVE SMOOTH",
"46 247 LINE SMOOTH",
"46 274 OFFCURVE",
"64 309 OFFCURVE",
"94 331 OFFCURVE",
"115 336 QCURVE SMOOTH",
"129 339 OFFCURVE",
"143 340 QCURVE",
"129 342 OFFCURVE",
"115 345 QCURVE SMOOTH",
"95 349 OFFCURVE",
"64 370 OFFCURVE",
"46 406 OFFCURVE",
"46 432 QCURVE SMOOTH",
"46 587 LINE SMOOTH",
"46 617 OFFCURVE",
"76 654 OFFCURVE",
"121 673 OFFCURVE",
"175 679 OFFCURVE",
"198 679 QCURVE SMOOTH",
"599 679 LINE",
"599 456 LINE",
"583 456 LINE",
"574 473 OFFCURVE",
"544 494 OFFCURVE",
"524 494 QCURVE SMOOTH"
);
},
{
nodes = (
"274 278 LINE",
"274 185 LINE",
"374 185 LINE",
"374 278 LINE"
);
}
);
width = 692;
}
);
unicode = 0026;
},
{
glyphname = plusminus;
layers = (
{
layerId = "CD1C2F27-7B64-400F-B9B0-689659144D44";
paths = (
{
nodes = (
"45 463 LINE",
"478 463 LINE",
"478 378 LINE",
"45 378 LINE"
);
},
{
nodes = (
"45 463 LINE",
"478 463 LINE",
"478 378 LINE",
"45 378 LINE"
);
},
{
nodes = (
"222 197 LINE",
"222 630 LINE",
"308 630 LINE",
"308 197 LINE"
);
},
{
nodes = (
"45 147 LINE",
"478 147 LINE",
"478 61 LINE",
"45 61 LINE"
);
}
);
width = 512;
}
);
unicode = 00B1;
},
{
glyphname = section;
layers = (
{
layerId = "CD1C2F27-7B64-400F-B9B0-689659144D44";
paths = (
{
nodes = (
"622 -6 LINE SMOOTH",
"622 -36 OFFCURVE",
"593 -73 OFFCURVE",
"548 -92 OFFCURVE",
"495 -98 OFFCURVE",
"471 -98 QCURVE SMOOTH",
"197 -98 LINE SMOOTH",
"173 -98 OFFCURVE",
"120 -92 OFFCURVE",
"75 -73 OFFCURVE",
"46 -36 OFFCURVE",
"46 -6 QCURVE SMOOTH",
"46 148 LINE",
"319 148 LINE",
"319 135 LINE",
"303 130 OFFCURVE",
"273 107 OFFCURVE",
"273 87 QCURVE",
"395 87 LINE",
"395 179 LINE",
"273 179 LINE SMOOTH",
"246 179 OFFCURVE",
"169 177 OFFCURVE",
"97 191 OFFCURVE",
"46 231 OFFCURVE",
"46 272 QCURVE SMOOTH",
"46 703 LINE SMOOTH",
"46 733 OFFCURVE",
"75 770 OFFCURVE",
"120 789 OFFCURVE",
"173 795 OFFCURVE",
"197 795 QCURVE SMOOTH",
"471 795 LINE SMOOTH",
"495 795 OFFCURVE",
"548 789 OFFCURVE",
"593 770 OFFCURVE",
"622 733 OFFCURVE",
"622 703 QCURVE SMOOTH",
"622 548 LINE",
"349 548 LINE",
"349 562 LINE",
"365 568 OFFCURVE",
"395 591 OFFCURVE",
"395 610 QCURVE",
"273 610 LINE",
"273 518 LINE",
"395 518 LINE SMOOTH",
"422 518 OFFCURVE",
"499 520 OFFCURVE",
"571 506 OFFCURVE",
"622 466 OFFCURVE",
"622 425 QCURVE SMOOTH"
);
},
{
nodes = (
"395 394 LINE",
"273 394 LINE",
"273 303 LINE",
"395 303 LINE"
);
}
);
width = 673;
}
);
unicode = 00A7;
},
{
glyphname = uni00AD;
layers = (
{
layerId = "CD1C2F27-7B64-400F-B9B0-689659144D44";
paths = (
{
nodes = (
"27 432 LINE",
"379 432 LINE",
"379 264 LINE",
"27 264 LINE"
);
}
);
width = 412;
}
);
unicode = 00AD;
},
{
glyphname = currency;
layers = (
{
layerId = "CD1C2F27-7B64-400F-B9B0-689659144D44";
paths = (
{
nodes = (
"556 218 LINE SMOOTH",
"556 207 OFFCURVE",
"553 199 QCURVE",
"651 106 LINE",
"572 23 LINE",
"433 155 LINE",
"252 155 LINE",
"113 23 LINE",
"34 106 LINE",
"142 208 LINE",
"142 213 OFFCURVE",
"142 218 QCURVE SMOOTH",
"142 472 LINE",
"34 575 LINE",
"113 659 LINE",
"218 559 LINE",
"232 560 OFFCURVE",
"245 560 QCURVE SMOOTH",
"452 560 LINE SMOOTH",
"459 560 OFFCURVE",
"467 559 QCURVE",
"572 659 LINE",
"651 575 LINE",
"556 484 LINE"
);
},
{
nodes = (
"400 281 LINE",
"400 433 LINE",
"297 433 LINE",
"297 281 LINE"
);
}
);
width = 667;
}
);
unicode = 00A4;
},
{
glyphname = degree;
layers = (
{
layerId = "CD1C2F27-7B64-400F-B9B0-689659144D44";
paths = (
{
nodes = (
"231 658 OFFCURVE",
"292 631 OFFCURVE",
"338 586 OFFCURVE",
"364 524 OFFCURVE",
"364 490 QCURVE SMOOTH",
"364 455 OFFCURVE",
"338 394 OFFCURVE",
"292 348 OFFCURVE",
"231 322 OFFCURVE",
"196 322 QCURVE SMOOTH",
"161 322 OFFCURVE",
"100 348 OFFCURVE",
"54 394 OFFCURVE",
"28 455 OFFCURVE",
"28 490 QCURVE SMOOTH",
"28 524 OFFCURVE",
"54 586 OFFCURVE",
"100 631 OFFCURVE",
"161 658 OFFCURVE",
"196 658 QCURVE SMOOTH"
);
},
{
nodes = (
"223 423 OFFCURVE",
"263 463 OFFCURVE",
"263 490 QCURVE SMOOTH",
"263 518 OFFCURVE",
"223 558 OFFCURVE",
"195 558 QCURVE SMOOTH",
"166 558 OFFCURVE",
"128 518 OFFCURVE",
"128 490 QCURVE SMOOTH",
"128 463 OFFCURVE",
"166 423 OFFCURVE",
"195 423 QCURVE SMOOTH"
);
}
);
width = 389;
}
);
unicode = 00B0;
},
{
glyphname = periodcentered;
layers = (
{
layerId = "CD1C2F27-7B64-400F-B9B0-689659144D44";
paths = (
{
nodes = (
"165 431 OFFCURVE",
"206 418 OFFCURVE",
"238 394 OFFCURVE",
"259 360 OFFCURVE",
"259 338 QCURVE SMOOTH",
"259 316 OFFCURVE",
"238 282 OFFCURVE",
"206 258 OFFCURVE",
"165 246 OFFCURVE",
"146 246 QCURVE SMOOTH",
"126 246 OFFCURVE",
"86 258 OFFCURVE",
"53 282 OFFCURVE",
"32 316 OFFCURVE",
"32 338 QCURVE SMOOTH",
"32 360 OFFCURVE",
"53 395 OFFCURVE",
"86 419 OFFCURVE",
"126 431 OFFCURVE",
"146 431 QCURVE SMOOTH"
);
}
);
width = 300;
}
);
unicode = 00B7;
},
{
glyphname = quotedblbase;
layers = (
{
layerId = "CD1C2F27-7B64-400F-B9B0-689659144D44";
paths = (
{
nodes = (
"101 1 LINE",
"71 10 OFFCURVE",
"25 55 OFFCURVE",
"25 88 QCURVE SMOOTH",
"25 110 OFFCURVE",
"45 145 OFFCURVE",
"78 169 OFFCURVE",
"118 181 OFFCURVE",
"138 181 QCURVE SMOOTH",
"158 181 OFFCURVE",
"198 169 OFFCURVE",
"231 145 OFFCURVE",
"252 110 OFFCURVE",
"252 88 QCURVE SMOOTH",
"252 61 OFFCURVE",
"234 15 OFFCURVE",
"202 -23 OFFCURVE",
"161 -54 OFFCURVE",
"139 -66 QCURVE",
"101 -66 LINE"
);
},
{
nodes = (
"364 1 LINE",
"334 10 OFFCURVE",
"288 55 OFFCURVE",
"288 88 QCURVE SMOOTH",
"288 110 OFFCURVE",
"308 145 OFFCURVE",
"341 169 OFFCURVE",
"381 181 OFFCURVE",
"401 181 QCURVE SMOOTH",
"421 181 OFFCURVE",
"461 169 OFFCURVE",
"494 145 OFFCURVE",
"515 110 OFFCURVE",
"515 88 QCURVE SMOOTH",
"515 61 OFFCURVE",
"497 15 OFFCURVE",
"465 -23 OFFCURVE",
"424 -54 OFFCURVE",
"402 -66 QCURVE",
"364 -66 LINE"
);
}
);
width = 556;
}
);
unicode = 201E;
},
{
glyphname = braceright;
layers = (
{
layerId = "CD1C2F27-7B64-400F-B9B0-689659144D44";
paths = (
{
nodes = (
"-13 711 LINE",
"-13 895 LINE",
"148 895 LINE SMOOTH",
"172 895 OFFCURVE",
"224 889 OFFCURVE",
"267 870 OFFCURVE",
"295 833 OFFCURVE",
"295 803 QCURVE SMOOTH",
"295 459 LINE SMOOTH",
"295 429 OFFCURVE",
"324 392 OFFCURVE",
"369 373 OFFCURVE",
"422 367 OFFCURVE",
"446 367 QCURVE",
"446 285 LINE",
"422 285 OFFCURVE",
"369 279 OFFCURVE",
"324 260 OFFCURVE",
"295 223 OFFCURVE",
"295 193 QCURVE SMOOTH",
"295 -128 LINE SMOOTH",
"295 -158 OFFCURVE",
"266 -195 OFFCURVE",
"221 -214 OFFCURVE",
"168 -220 OFFCURVE",
"144 -220 QCURVE SMOOTH",
"-13 -220 LINE",
"-13 -35 LINE",
"72 -35 LINE",
"72 710 LINE",
"-13 710 LINE"
);
}
);
width = 474;
}
);
unicode = 007D;
},
{
glyphname = bracketright;
layers = (
{
layerId = "CD1C2F27-7B64-400F-B9B0-689659144D44";
paths = (
{
nodes = (
"63 -56 LINE",
"152 -56 LINE",
"152 707 LINE",
"63 707 LINE",
"63 892 LINE",
"379 892 LINE",
"379 -241 LINE",
"63 -241 LINE"
);
}
);
width = 417;
}
);
unicode = 005D;
},
{
glyphname = quotesinglbase;
layers = (
{
layerId = "CD1C2F27-7B64-400F-B9B0-689659144D44";
paths = (
{
nodes = (
"101 1 LINE",
"71 10 OFFCURVE",
"25 55 OFFCURVE",
"25 88 QCURVE SMOOTH",
"25 110 OFFCURVE",
"45 145 OFFCURVE",
"78 169 OFFCURVE",
"118 181 OFFCURVE",
"138 181 QCURVE SMOOTH",
"158 181 OFFCURVE",
"198 169 OFFCURVE",
"231 145 OFFCURVE",
"252 110 OFFCURVE",
"252 88 QCURVE SMOOTH",
"252 61 OFFCURVE",
"234 15 OFFCURVE",
"202 -23 OFFCURVE",
"161 -54 OFFCURVE",
"139 -66 QCURVE",
"101 -66 LINE"
);
}
);
width = 283;
}
);
unicode = 201A;
},
{
glyphname = exclamdown;
layers = (
{
layerId = "CD1C2F27-7B64-400F-B9B0-689659144D44";
paths = (
{
nodes = (
"331 449 LINE",
"315 443 OFFCURVE",
"285 420 OFFCURVE",
"285 401 QCURVE SMOOTH",
"285 61 LINE SMOOTH",
"285 42 OFFCURVE",
"316 19 OFFCURVE",
"331 13 QCURVE",
"331 0 LINE",
"12 0 LINE",
"12 13 LINE",
"27 19 OFFCURVE",
"58 42 OFFCURVE",
"58 61 QCURVE SMOOTH",
"58 401 LINE SMOOTH",
"58 420 OFFCURVE",
"28 443 OFFCURVE",
"12 449 QCURVE",
"12 463 LINE",
"331 463 LINE"
);
},
{
nodes = (
"285 564 OFFCURVE",
"264 530 OFFCURVE",
"232 506 OFFCURVE",
"191 493 OFFCURVE",
"172 493 QCURVE SMOOTH",
"152 493 OFFCURVE",
"112 505 OFFCURVE",
"79 529 OFFCURVE",
"58 564 OFFCURVE",
"58 586 QCURVE SMOOTH",
"58 608 OFFCURVE",
"79 643 OFFCURVE",
"112 667 OFFCURVE",
"152 679 OFFCURVE",
"172 679 QCURVE SMOOTH",
"191 679 OFFCURVE",
"232 666 OFFCURVE",
"264 642 OFFCURVE",
"285 608 OFFCURVE",
"285 586 QCURVE SMOOTH"
);
}
);
width = 355;
}
);
unicode = 00A1;
},
{
glyphname = gcircumflex;
layers = (
{
layerId = "CD1C2F27-7B64-400F-B9B0-689659144D44";
paths = (
{
nodes = (
"315 401 LINE",
"656 401 LINE",
"656 93 LINE SMOOTH",
"656 63 OFFCURVE",
"626 26 OFFCURVE",
"581 6 OFFCURVE",
"528 0 OFFCURVE",
"504 0 QCURVE SMOOTH",
"201 0 LINE SMOOTH",
"177 0 OFFCURVE",
"124 6 OFFCURVE",
"79 26 OFFCURVE",
"50 63 OFFCURVE",
"50 93 QCURVE SMOOTH",
"50 587 LINE SMOOTH",
"50 617 OFFCURVE",
"80 654 OFFCURVE",
"125 673 OFFCURVE",
"178 679 OFFCURVE",
"201 679 QCURVE SMOOTH",
"504 679 LINE SMOOTH",
"527 679 OFFCURVE",
"581 673 OFFCURVE",
"626 654 OFFCURVE",
"656 617 OFFCURVE",
"656 587 QCURVE SMOOTH",
"656 432 LINE",
"382 432 LINE",
"382 445 LINE",
"398 451 OFFCURVE",
"429 474 OFFCURVE",
"429 494 QCURVE",
"277 494 LINE",
"277 185 LINE",
"429 185 LINE",
"429 278 LINE",
"391 278 LINE SMOOTH",
"371 278 OFFCURVE",
"342 257 OFFCURVE",
"331 240 QCURVE",
"315 240 LINE"
);
},
{
nodes = (
"577 716 LINE",
"399 716 LINE",
"347 796 LINE",
"296 716 LINE",
"118 716 LINE",
"221 884 LINE",
"474 884 LINE"
);
}
);
width = 702;
}
);
unicode = 011D;
},
{
glyphname = Itilde;
layers = (
{
layerId = "CD1C2F27-7B64-400F-B9B0-689659144D44";
paths = (
{
nodes = (
"342 679 LINE",
"342 666 LINE",
"326 660 OFFCURVE",
"296 638 OFFCURVE",
"296 618 QCURVE SMOOTH",
"296 62 LINE SMOOTH",
"296 42 OFFCURVE",
"326 20 OFFCURVE",
"342 14 QCURVE",
"342 0 LINE",
"22 0 LINE",
"22 14 LINE",
"38 20 OFFCURVE",
"68 42 OFFCURVE",
"68 62 QCURVE SMOOTH",
"68 618 LINE SMOOTH",
"68 638 OFFCURVE",
"38 660 OFFCURVE",
"22 666 QCURVE",
"22 679 LINE"
);
},
{
nodes = (
"426 833 LINE",
"425 831 OFFCURVE",
"408 801 OFFCURVE",
"392 783 QCURVE SMOOTH",
"382 772 OFFCURVE",
"361 752 OFFCURVE",
"350 744 QCURVE SMOOTH",
"319 722 OFFCURVE",
"285 715 QCURVE",
"252 706 OFFCURVE",
"215 716 QCURVE",
"177 724 OFFCURVE",
"143 750 QCURVE SMOOTH",
"132 758 OFFCURVE",
"120 760 OFFCURVE",
"118 759 QCURVE SMOOTH",
"111 757 OFFCURVE",
"95 746 OFFCURVE",
"87 736 QCURVE",
"77 726 OFFCURVE",
"73 719 QCURVE SMOOTH",
"70 715 OFFCURVE",
"68 711 QCURVE",
"-45 774 LINE",
"-44 776 OFFCURVE",
"-27 804 OFFCURVE",
"-12 822 QCURVE SMOOTH",
"-3 833 OFFCURVE",
"17 851 OFFCURVE",
"28 859 QCURVE SMOOTH",
"60 882 OFFCURVE",
"89 887 QCURVE",
"112 893 OFFCURVE",
"181 886 OFFCURVE",
"220 857 QCURVE SMOOTH",
"236 844 OFFCURVE",
"254 843 OFFCURVE",
"257 844 QCURVE SMOOTH",
"274 847 OFFCURVE",
"295 871 QCURVE SMOOTH",
"301 879 OFFCURVE",
"307 888 QCURVE SMOOTH",
"310 892 OFFCURVE",
"312 896 QCURVE",
"369 863 LINE"
);
}
);
width = 381;
}
);
unicode = 0128;
},
{
glyphname = IJ;
layers = (
{
layerId = "CD1C2F27-7B64-400F-B9B0-689659144D44";
paths = (
{
nodes = (
"342 679 LINE",
"342 666 LINE",
"326 660 OFFCURVE",
"296 638 OFFCURVE",
"296 618 QCURVE SMOOTH",
"296 62 LINE SMOOTH",
"296 42 OFFCURVE",
"326 20 OFFCURVE",
"342 14 QCURVE",
"342 0 LINE",
"22 0 LINE",
"22 14 LINE",
"38 20 OFFCURVE",
"68 42 OFFCURVE",
"68 62 QCURVE SMOOTH",
"68 618 LINE SMOOTH",
"68 638 OFFCURVE",
"38 660 OFFCURVE",
"22 666 QCURVE",
"22 679 LINE"
);
},
{
nodes = (
"447 493 LINE SMOOTH",
"427 493 OFFCURVE",
"397 473 OFFCURVE",
"387 456 QCURVE",
"371 456 LINE",
"371 678 LINE",
"944 678 LINE",
"944 92 LINE SMOOTH",
"944 62 OFFCURVE",
"915 25 OFFCURVE",
"870 6 OFFCURVE",
"817 0 OFFCURVE",
"793 0 QCURVE SMOOTH",
"522 0 LINE SMOOTH",
"498 0 OFFCURVE",
"445 6 OFFCURVE",
"400 25 OFFCURVE",
"371 61 OFFCURVE",
"371 92 QCURVE SMOOTH",
"371 246 LINE",
"644 246 LINE",
"644 233 LINE",
"628 227 OFFCURVE",
"598 205 OFFCURVE",
"598 185 QCURVE",
"717 185 LINE",
"717 493 LINE"
);
}
);
width = 978;
}
);
unicode = 0132;
},
{
glyphname = eng;
layers = (
{
layerId = "CD1C2F27-7B64-400F-B9B0-689659144D44";
paths = (
{
nodes = (
"732 679 LINE",
"732 666 LINE",
"715 660 OFFCURVE",
"686 637 OFFCURVE",
"686 617 QCURVE SMOOTH",
"686 -17 LINE SMOOTH",
"686 -40 OFFCURVE",
"664 -78 OFFCURVE",
"627 -111 OFFCURVE",
"580 -138 OFFCURVE",
"556 -148 QCURVE SMOOTH",
"499 -173 OFFCURVE",
"427 -189 QCURVE",
"378 -46 LINE",
"406 -39 OFFCURVE",
"438 -17 OFFCURVE",
"455 5 OFFCURVE",
"459 25 OFFCURVE",
"459 30 QCURVE SMOOTH",
"459 34 LINE",
"459 150 LINE",
"307 300 LINE",
"307 62 LINE SMOOTH",
"307 42 OFFCURVE",
"337 19 OFFCURVE",
"353 13 QCURVE",
"353 0 LINE",
"34 0 LINE",
"34 13 LINE",
"51 19 OFFCURVE",
"80 42 OFFCURVE",
"80 62 QCURVE SMOOTH",
"80 617 LINE SMOOTH",
"80 637 OFFCURVE",
"51 660 OFFCURVE",
"34 666 QCURVE",
"34 679 LINE",
"353 679 LINE",
"353 666 LINE",
"337 660 OFFCURVE",
"307 637 OFFCURVE",
"307 617 QCURVE SMOOTH",
"307 494 LINE",
"459 344 LINE",
"459 617 LINE SMOOTH",
"459 637 OFFCURVE",
"430 660 OFFCURVE",
"413 666 QCURVE",
"413 679 LINE"
);
}
);
width = 739;
}
);
unicode = 014B;
},
{
glyphname = OE;
layers = (
{
layerId = "CD1C2F27-7B64-400F-B9B0-689659144D44";
paths = (
{
nodes = (
"806 401 LINE SMOOTH",
"826 401 OFFCURVE",
"856 421 OFFCURVE",
"866 438 QCURVE",
"882 438 LINE",
"882 240 LINE",
"866 240 LINE",
"856 257 OFFCURVE",
"826 278 OFFCURVE",
"806 278 QCURVE SMOOTH",
"655 278 LINE",
"655 185 LINE",
"920 185 LINE SMOOTH",
"940 185 OFFCURVE",
"970 205 OFFCURVE",
"980 222 QCURVE",
"996 222 LINE",
"996 0 LINE",
"199 0 LINE SMOOTH",
"175 0 OFFCURVE",
"122 6 OFFCURVE",
"77 25 OFFCURVE",
"48 62 OFFCURVE",
"48 92 QCURVE SMOOTH",
"48 586 LINE SMOOTH",
"48 616 OFFCURVE",
"77 653 OFFCURVE",
"122 672 OFFCURVE",
"175 678 OFFCURVE",
"199 678 QCURVE SMOOTH",
"996 678 LINE",
"996 456 LINE",
"980 456 LINE",
"970 473 OFFCURVE",
"940 494 OFFCURVE",
"920 494 QCURVE SMOOTH",
"655 494 LINE",
"655 401 LINE"
);
},
{
nodes = (
"426 185 LINE",
"426 493 LINE",
"275 493 LINE",
"275 185 LINE"
);
}
);
width = 1039;
}
);
unicode = 0152;
},
{
glyphname = circumflex;
layers = (
{
layerId = "CD1C2F27-7B64-400F-B9B0-689659144D44";
paths = (
{
nodes = (
"497 716 LINE",
"319 716 LINE",
"267 796 LINE",
"216 716 LINE",
"38 716 LINE",
"141 884 LINE",
"394 884 LINE"
);
}
);
width = 340;
}
);
unicode = 02C6;
},
{
glyphname = ring;
layers = (
{
layerId = "CD1C2F27-7B64-400F-B9B0-689659144D44";
paths = (
{
nodes = (
"224 944 OFFCURVE",
"271 925 OFFCURVE",
"306 892 OFFCURVE",
"326 847 OFFCURVE",
"326 822 QCURVE SMOOTH",
"326 796 OFFCURVE",
"306 752 OFFCURVE",
"271 718 OFFCURVE",
"224 699 OFFCURVE",
"197 699 QCURVE SMOOTH",
"170 699 OFFCURVE",
"123 718 OFFCURVE",
"88 752 OFFCURVE",
"68 796 OFFCURVE",
"68 822 QCURVE SMOOTH",
"68 847 OFFCURVE",
"88 892 OFFCURVE",
"123 925 OFFCURVE",
"170 944 OFFCURVE",
"197 944 QCURVE SMOOTH"
);
},
{
nodes = (
"212 780 OFFCURVE",
"238 804 OFFCURVE",
"238 822 QCURVE SMOOTH",
"238 839 OFFCURVE",
"212 863 OFFCURVE",
"194 863 QCURVE SMOOTH",
"175 863 OFFCURVE",
"151 839 OFFCURVE",
"151 822 QCURVE SMOOTH",
"151 804 OFFCURVE",
"175 780 OFFCURVE",
"194 780 QCURVE SMOOTH"
);
}
);
width = 373;
}
);
unicode = 02DA;
},
{
glyphname = tilde;
layers = (
{
layerId = "CD1C2F27-7B64-400F-B9B0-689659144D44";
paths = (
{
nodes = (
"505 830 LINE",
"504 828 OFFCURVE",
"487 798 OFFCURVE",
"471 780 QCURVE SMOOTH",
"461 769 OFFCURVE",
"440 749 OFFCURVE",
"429 741 QCURVE SMOOTH",
"398 719 OFFCURVE",
"364 712 QCURVE",
"331 703 OFFCURVE",
"294 713 QCURVE",
"256 721 OFFCURVE",
"222 747 QCURVE SMOOTH",
"211 755 OFFCURVE",
"199 757 OFFCURVE",
"197 756 QCURVE SMOOTH",
"190 754 OFFCURVE",
"174 743 OFFCURVE",
"166 733 QCURVE",
"156 723 OFFCURVE",
"152 716 QCURVE SMOOTH",
"149 712 OFFCURVE",
"147 708 QCURVE",
"34 771 LINE",
"35 773 OFFCURVE",
"52 801 OFFCURVE",
"67 819 QCURVE SMOOTH",
"76 830 OFFCURVE",
"96 848 OFFCURVE",
"107 856 QCURVE SMOOTH",
"139 879 OFFCURVE",
"168 884 QCURVE",
"191 890 OFFCURVE",
"260 883 OFFCURVE",
"299 854 QCURVE SMOOTH",
"315 841 OFFCURVE",
"333 840 OFFCURVE",
"336 841 QCURVE SMOOTH",
"353 844 OFFCURVE",
"374 868 QCURVE SMOOTH",
"380 876 OFFCURVE",
"386 885 QCURVE SMOOTH",
"389 889 OFFCURVE",
"391 893 QCURVE",
"448 860 LINE"
);
}
);
width = 531;
}
);
unicode = 02DC;
},
{
glyphname = figuredash;
layers = (
{
layerId = "CD1C2F27-7B64-400F-B9B0-689659144D44";
paths = (
{
nodes = (
"27 432 LINE",
"533 432 LINE",
"533 264 LINE",
"27 264 LINE"
);
}
);
width = 570;
}
);
unicode = 2012;
},
{
glyphname = exclamdbl;
layers = (
{
layerId = "CD1C2F27-7B64-400F-B9B0-689659144D44";
paths = (
{
nodes = (
"342 216 LINE",
"23 216 LINE",
"23 230 LINE",
"39 236 OFFCURVE",
"69 259 OFFCURVE",
"69 278 QCURVE SMOOTH",
"69 618 LINE SMOOTH",
"69 637 OFFCURVE",
"38 660 OFFCURVE",
"23 666 QCURVE",
"23 679 LINE",
"342 679 LINE",
"342 666 LINE",
"327 660 OFFCURVE",
"296 637 OFFCURVE",
"296 618 QCURVE SMOOTH",
"296 278 LINE SMOOTH",
"296 259 OFFCURVE",
"326 236 OFFCURVE",
"342 230 QCURVE"
);
},
{
nodes = (
"296 71 OFFCURVE",
"275 37 OFFCURVE",
"243 13 OFFCURVE",
"202 0 OFFCURVE",
"183 0 QCURVE SMOOTH",
"163 0 OFFCURVE",
"123 12 OFFCURVE",
"90 36 OFFCURVE",
"69 71 OFFCURVE",
"69 93 QCURVE SMOOTH",
"69 115 OFFCURVE",
"90 150 OFFCURVE",
"123 174 OFFCURVE",
"163 186 OFFCURVE",
"183 186 QCURVE SMOOTH",
"202 186 OFFCURVE",
"243 173 OFFCURVE",
"275 149 OFFCURVE",
"296 115 OFFCURVE",
"296 93 QCURVE SMOOTH"
);
},
{
nodes = (
"695 216 LINE",
"376 216 LINE",
"376 230 LINE",
"392 236 OFFCURVE",
"422 259 OFFCURVE",
"422 278 QCURVE SMOOTH",
"422 618 LINE SMOOTH",
"422 637 OFFCURVE",
"391 660 OFFCURVE",
"376 666 QCURVE",
"376 679 LINE",
"695 679 LINE",
"695 666 LINE",
"680 660 OFFCURVE",
"649 637 OFFCURVE",
"649 618 QCURVE SMOOTH",
"649 278 LINE SMOOTH",
"649 259 OFFCURVE",
"679 236 OFFCURVE",
"695 230 QCURVE"
);
},
{
nodes = (
"649 71 OFFCURVE",
"628 37 OFFCURVE",
"596 13 OFFCURVE",
"555 0 OFFCURVE",
"536 0 QCURVE SMOOTH",
"516 0 OFFCURVE",
"476 12 OFFCURVE",
"443 36 OFFCURVE",
"422 71 OFFCURVE",
"422 93 QCURVE SMOOTH",
"422 115 OFFCURVE",
"443 150 OFFCURVE",
"476 174 OFFCURVE",
"516 186 OFFCURVE",
"536 186 QCURVE SMOOTH",
"555 186 OFFCURVE",
"596 173 OFFCURVE",
"628 149 OFFCURVE",
"649 115 OFFCURVE",
"649 93 QCURVE SMOOTH"
);
}
);
width = 722;
}
);
unicode = 203C;
},
{
glyphname = fraction;
layers = (
{
layerId = "CD1C2F27-7B64-400F-B9B0-689659144D44";
paths = (
{
nodes = (
"409 678 LINE",
"194 0 LINE",
"38 0 LINE",
"253 678 LINE"
);
}
);
width = 435;
}
);
unicode = 2044;
},
{
glyphname = estimated;
layers = (
{
layerId = "CD1C2F27-7B64-400F-B9B0-689659144D44";
paths = (
{
nodes = (
"720 126 LINE",
"665 81 OFFCURVE",
"515 28 OFFCURVE",
"428 28 QCURVE SMOOTH",
"346 28 OFFCURVE",
"201 76 OFFCURVE",
"93 159 OFFCURVE",
"31 271 OFFCURVE",
"31 335 QCURVE SMOOTH",
"31 398 OFFCURVE",
"93 510 OFFCURVE",
"201 594 OFFCURVE",
"346 642 OFFCURVE",
"428 642 QCURVE SMOOTH",
"510 642 OFFCURVE",
"655 594 OFFCURVE",
"763 510 OFFCURVE",
"826 398 OFFCURVE",
"826 335 QCURVE SMOOTH",
"826 329 OFFCURVE",
"825 318 OFFCURVE",
"825 312 QCURVE",
"657 312 LINE",
"498 312 LINE",
"200 312 LINE",
"200 138 LINE",
"247 105 OFFCURVE",
"369 67 OFFCURVE",
"439 67 QCURVE SMOOTH",
"501 67 OFFCURVE",
"612 97 OFFCURVE",
"657 125 QCURVE",
"657 126 LINE"
);
},
{
nodes = (
"200 359 LINE",
"657 359 LINE",
"657 545 LINE",
"612 572 OFFCURVE",
"501 603 OFFCURVE",
"439 603 QCURVE SMOOTH",
"369 603 OFFCURVE",
"247 565 OFFCURVE",
"200 532 QCURVE"
);
}
);
width = 858;
}
);
unicode = 212E;
},
{
glyphname = minus;
layers = (
{
layerId = "CD1C2F27-7B64-400F-B9B0-689659144D44";
paths = (
{
nodes = (
"31 432 LINE",
"460 432 LINE",
"460 264 LINE",
"31 264 LINE"
);
}
);
width = 491;
}
);
unicode = 2212;
},
{
glyphname = infinity;
layers = (
{
layerId = "CD1C2F27-7B64-400F-B9B0-689659144D44";
paths = (
{
nodes = (
"473 429 OFFCURVE",
"533 487 OFFCURVE",
"568 504 QCURVE SMOOTH",
"621 531 OFFCURVE",
"682 528 QCURVE",
"696 528 OFFCURVE",
"723 523 OFFCURVE",
"736 519 QCURVE SMOOTH",
"762 510 OFFCURVE",
"785 495 QCURVE SMOOTH",
"808 479 OFFCURVE",
"823 458 QCURVE SMOOTH",
"838 435 OFFCURVE",
"845 411 QCURVE",
"859 370 OFFCURVE",
"859 304 QCURVE SMOOTH",
"859 238 OFFCURVE",
"845 197 QCURVE",
"838 173 OFFCURVE",
"823 150 QCURVE SMOOTH",
"815 139 OFFCURVE",
"796 120 OFFCURVE",
"785 112 QCURVE SMOOTH",
"774 105 OFFCURVE",
"750 94 OFFCURVE",
"736 89 QCURVE SMOOTH",
"723 85 OFFCURVE",
"696 80 OFFCURVE",
"682 79 QCURVE SMOOTH",
"621 77 OFFCURVE",
"568 103 QCURVE SMOOTH",
"533 121 OFFCURVE",
"473 179 OFFCURVE",
"446 213 QCURVE",
"419 179 OFFCURVE",
"359 121 OFFCURVE",
"323 103 QCURVE SMOOTH",
"270 77 OFFCURVE",
"209 79 QCURVE SMOOTH",
"195 80 OFFCURVE",
"168 85 OFFCURVE",
"155 89 QCURVE SMOOTH",
"130 97 OFFCURVE",
"107 112 QCURVE SMOOTH",
"96 120 OFFCURVE",
"77 139 OFFCURVE",
"69 150 QCURVE SMOOTH",
"54 171 OFFCURVE",
"45 197 QCURVE",
"32 239 OFFCURVE",
"32 304 QCURVE SMOOTH",
"32 369 OFFCURVE",
"45 411 QCURVE",
"54 437 OFFCURVE",
"69 458 QCURVE SMOOTH",
"83 479 OFFCURVE",
"107 495 QCURVE SMOOTH",
"128 510 OFFCURVE",
"155 519 QCURVE SMOOTH",
"168 523 OFFCURVE",
"195 528 OFFCURVE",
"209 528 QCURVE",
"270 531 OFFCURVE",
"323 504 QCURVE",
"359 487 OFFCURVE",
"419 429 OFFCURVE",
"446 395 QCURVE"
);
},
{
nodes = (
"300 216 OFFCURVE",
"351 271 OFFCURVE",
"377 304 QCURVE",
"351 337 OFFCURVE",
"300 392 OFFCURVE",
"274 406 QCURVE",
"257 414 OFFCURVE",
"225 419 OFFCURVE",
"214 418 QCURVE SMOOTH",
"186 416 OFFCURVE",
"170 405 QCURVE SMOOTH",
"165 402 OFFCURVE",
"155 390 OFFCURVE",
"151 377 QCURVE SMOOTH",
"143 354 OFFCURVE",
"143 304 QCURVE SMOOTH",
"143 254 OFFCURVE",
"151 231 QCURVE SMOOTH",
"155 218 OFFCURVE",
"165 206 OFFCURVE",
"170 203 QCURVE SMOOTH",
"188 192 OFFCURVE",
"214 190 QCURVE SMOOTH",
"225 189 OFFCURVE",
"257 194 OFFCURVE",
"274 202 QCURVE"
);
},
{
nodes = (
"665 419 OFFCURVE",
"635 414 OFFCURVE",
"617 406 QCURVE",
"591 392 OFFCURVE",
"540 337 OFFCURVE",
"515 304 QCURVE",
"540 271 OFFCURVE",
"591 216 OFFCURVE",
"617 202 QCURVE",
"635 194 OFFCURVE",
"665 189 OFFCURVE",
"676 190 QCURVE SMOOTH",
"704 192 OFFCURVE",
"722 203 QCURVE SMOOTH",
"727 206 OFFCURVE",
"736 218 OFFCURVE",
"740 231 QCURVE SMOOTH",
"749 256 OFFCURVE",
"749 304 QCURVE SMOOTH",
"749 351 OFFCURVE",
"740 377 QCURVE SMOOTH",
"736 390 OFFCURVE",
"727 402 OFFCURVE",
"722 405 QCURVE SMOOTH",
"714 411 OFFCURVE",
"690 417 OFFCURVE",
"676 418 QCURVE SMOOTH"
);
}
);
width = 876;
}
);
unicode = 221E;
},
{
glyphname = approxequal;
layers = (
{
layerId = "CD1C2F27-7B64-400F-B9B0-689659144D44";
paths = (
{
nodes = (
"419 415 LINE",
"411 394 OFFCURVE",
"380 361 OFFCURVE",
"341 338 OFFCURVE",
"298 326 OFFCURVE",
"279 326 QCURVE SMOOTH",
"258 326 OFFCURVE",
"226 341 OFFCURVE",
"201 359 OFFCURVE",
"180 374 OFFCURVE",
"171 374 QCURVE SMOOTH",
"151 374 OFFCURVE",
"111 345 OFFCURVE",
"101 326 QCURVE",
"84 340 OFFCURVE",
"47 373 OFFCURVE",
"30 387 QCURVE",
"56 425 OFFCURVE",
"132 472 OFFCURVE",
"171 472 QCURVE SMOOTH",
"192 472 OFFCURVE",
"223 457 OFFCURVE",
"247 438 OFFCURVE",
"268 423 OFFCURVE",
"279 423 QCURVE SMOOTH",
"298 423 OFFCURVE",
"330 452 OFFCURVE",
"341 470 QCURVE"
);
},
{
nodes = (
"413 255 LINE",
"405 234 OFFCURVE",
"374 201 OFFCURVE",
"335 178 OFFCURVE",
"292 166 OFFCURVE",
"273 166 QCURVE SMOOTH",
"252 166 OFFCURVE",
"220 181 OFFCURVE",
"195 199 OFFCURVE",
"174 214 OFFCURVE",
"165 214 QCURVE SMOOTH",
"145 214 OFFCURVE",
"105 185 OFFCURVE",
"95 166 QCURVE",
"78 180 OFFCURVE",
"41 213 OFFCURVE",
"24 227 QCURVE",
"50 265 OFFCURVE",
"126 312 OFFCURVE",
"165 312 QCURVE SMOOTH",
"186 312 OFFCURVE",
"217 297 OFFCURVE",
"241 278 OFFCURVE",
"262 263 OFFCURVE",
"273 263 QCURVE SMOOTH",
"292 263 OFFCURVE",
"324 292 OFFCURVE",
"335 310 QCURVE"
);
}
);
width = 446;
}
);
unicode = 2248;
},
{
glyphname = notequal;
layers = (
{
layerId = "CD1C2F27-7B64-400F-B9B0-689659144D44";
paths = (
{
nodes = (
"44 301 LINE",
"152 301 LINE",
"169 359 LINE",
"44 359 LINE",
"44 486 LINE",
"205 486 LINE",
"231 579 LINE",
"387 579 LINE",
"361 486 LINE",
"449 486 LINE",
"449 359 LINE",
"325 359 LINE",
"308 301 LINE",
"449 301 LINE",
"449 174 LINE",
"273 174 LINE",
"244 70 LINE",
"88 70 LINE",
"117 174 LINE",
"44 174 LINE"
);
}
);
width = 498;
}
);
unicode = 2260;
},
{
glyphname = lessequal;
layers = (
{
layerId = "CD1C2F27-7B64-400F-B9B0-689659144D44";
paths = (
{
nodes = (
"291 382 LINE",
"291 261 LINE",
"41 434 LINE",
"41 505 LINE",
"291 678 LINE",
"291 555 LINE",
"161 468 LINE"
);
},
{
nodes = (
"40 237 LINE",
"292 237 LINE",
"292 149 LINE",
"40 149 LINE"
);
}
);
width = 314;
}
);
unicode = 2264;
},
{
glyphname = greaterequal;
layers = (
{
layerId = "CD1C2F27-7B64-400F-B9B0-689659144D44";
paths = (
{
nodes = (
"171 468 LINE",
"41 555 LINE",
"41 678 LINE",
"291 505 LINE",
"291 434 LINE",
"41 261 LINE",
"41 382 LINE"
);
},
{
nodes = (
"292 149 LINE",
"40 149 LINE",
"40 237 LINE",
"292 237 LINE"
);
}
);
width = 314;
}
);
unicode = 2265;
},
{
glyphname = uni037E;
layers = (
{
layerId = "CD1C2F27-7B64-400F-B9B0-689659144D44";
paths = (
{
nodes = (
"158 680 OFFCURVE",
"199 667 OFFCURVE",
"231 643 OFFCURVE",
"252 609 OFFCURVE",
"252 587 QCURVE SMOOTH",
"252 565 OFFCURVE",
"231 531 OFFCURVE",
"199 507 OFFCURVE",
"158 495 OFFCURVE",
"139 495 QCURVE SMOOTH",
"119 495 OFFCURVE",
"79 507 OFFCURVE",
"46 531 OFFCURVE",
"25 565 OFFCURVE",
"25 587 QCURVE SMOOTH",
"25 609 OFFCURVE",
"46 644 OFFCURVE",
"79 668 OFFCURVE",
"119 680 OFFCURVE",
"139 680 QCURVE SMOOTH"
);
},
{
nodes = (
"101 7 LINE",
"71 16 OFFCURVE",
"25 61 OFFCURVE",
"25 94 QCURVE SMOOTH",
"25 116 OFFCURVE",
"45 151 OFFCURVE",
"78 175 OFFCURVE",
"118 187 OFFCURVE",
"138 187 QCURVE SMOOTH",
"158 187 OFFCURVE",
"198 175 OFFCURVE",
"231 151 OFFCURVE",
"252 116 OFFCURVE",
"252 94 QCURVE SMOOTH",
"252 67 OFFCURVE",
"234 21 OFFCURVE",
"202 -17 OFFCURVE",
"161 -48 OFFCURVE",
"139 -60 QCURVE",
"101 -60 LINE"
);
}
);
width = 280;
}
);
unicode = 037E;
},
{
glyphname = backslash;
layers = (
{
layerId = "CD1C2F27-7B64-400F-B9B0-689659144D44";
paths = (
{
nodes = (
"409 678 LINE",
"194 0 LINE",
"38 0 LINE",
"253 678 LINE"
);
}
);
width = 444;
}
);
unicode = 005C;
},
{
glyphname = guilsinglright;
layers = (
{
layerId = "CD1C2F27-7B64-400F-B9B0-689659144D44";
paths = (
{
nodes = (
"229 307 LINE",
"44 526 LINE",
"212 526 LINE",
"366 343 LINE",
"366 271 LINE",
"210 86 LINE",
"43 86 LINE"
);
}
);
width = 412;
}
);
unicode = 203A;
},
{
glyphname = icircumflex;
layers = (
{
layerId = "CD1C2F27-7B64-400F-B9B0-689659144D44";
paths = (
{
nodes = (
"342 679 LINE",
"342 666 LINE",
"326 660 OFFCURVE",
"296 638 OFFCURVE",
"296 618 QCURVE SMOOTH",
"296 62 LINE SMOOTH",
"296 42 OFFCURVE",
"326 20 OFFCURVE",
"342 14 QCURVE",
"342 0 LINE",
"22 0 LINE",
"22 14 LINE",
"38 20 OFFCURVE",
"68 42 OFFCURVE",
"68 62 QCURVE SMOOTH",
"68 618 LINE SMOOTH",
"68 638 OFFCURVE",
"38 660 OFFCURVE",
"22 666 QCURVE",
"22 679 LINE"
);
},
{
nodes = (
"420 716 LINE",
"242 716 LINE",
"190 796 LINE",
"139 716 LINE",
"-39 716 LINE",
"64 884 LINE",
"317 884 LINE"
);
}
);
width = 381;
}
);
unicode = 00EE;
},
{
glyphname = idieresis;
layers = (
{
layerId = "CD1C2F27-7B64-400F-B9B0-689659144D44";
paths = (
{
nodes = (
"342 679 LINE",
"342 666 LINE",
"326 660 OFFCURVE",
"296 638 OFFCURVE",
"296 618 QCURVE SMOOTH",
"296 62 LINE SMOOTH",
"296 42 OFFCURVE",
"326 20 OFFCURVE",
"342 14 QCURVE",
"342 0 LINE",
"22 0 LINE",
"22 14 LINE",
"38 20 OFFCURVE",
"68 42 OFFCURVE",
"68 62 QCURVE SMOOTH",
"68 618 LINE SMOOTH",
"68 638 OFFCURVE",
"38 660 OFFCURVE",
"22 666 QCURVE",
"22 679 LINE"
);
},
{
nodes = (
"81 870 OFFCURVE",
"117 858 OFFCURVE",
"146 837 OFFCURVE",
"165 807 OFFCURVE",
"165 787 QCURVE SMOOTH",
"165 768 OFFCURVE",
"146 738 OFFCURVE",
"117 717 OFFCURVE",
"81 706 OFFCURVE",
"64 706 QCURVE SMOOTH",
"46 706 OFFCURVE",
"10 717 OFFCURVE",
"-19 738 OFFCURVE",
"-38 768 OFFCURVE",
"-38 787 QCURVE SMOOTH",
"-38 807 OFFCURVE",
"-19 838 OFFCURVE",
"10 859 OFFCURVE",
"46 870 OFFCURVE",
"64 870 QCURVE SMOOTH"
);
},
{
nodes = (
"336 870 OFFCURVE",
"373 858 OFFCURVE",
"401 837 OFFCURVE",
"420 807 OFFCURVE",
"420 787 QCURVE SMOOTH",
"420 768 OFFCURVE",
"401 738 OFFCURVE",
"373 717 OFFCURVE",
"336 706 OFFCURVE",
"319 706 QCURVE SMOOTH",
"301 706 OFFCURVE",
"265 717 OFFCURVE",
"236 738 OFFCURVE",
"217 768 OFFCURVE",
"217 787 QCURVE SMOOTH",
"217 807 OFFCURVE",
"236 838 OFFCURVE",
"265 859 OFFCURVE",
"301 870 OFFCURVE",
"319 870 QCURVE SMOOTH"
);
}
);
width = 381;
}
);
unicode = 00EF;
},
{
glyphname = Eth;
layers = (
{
layerId = "CD1C2F27-7B64-400F-B9B0-689659144D44";
paths = (
{
nodes = (
"366 0 LINE",
"47 0 LINE",
"47 13 LINE",
"62 19 OFFCURVE",
"93 42 OFFCURVE",
"93 61 QCURVE SMOOTH",
"93 617 LINE SMOOTH",
"93 636 OFFCURVE",
"63 659 OFFCURVE",
"47 665 QCURVE",
"47 678 LINE",
"366 678 LINE",
"356 678 LINE",
"519 678 LINE SMOOTH",
"543 678 OFFCURVE",
"596 672 OFFCURVE",
"641 653 OFFCURVE",
"671 616 OFFCURVE",
"671 586 QCURVE SMOOTH",
"671 92 LINE SMOOTH",
"671 62 OFFCURVE",
"641 25 OFFCURVE",
"596 6 OFFCURVE",
"543 0 OFFCURVE",
"519 0 QCURVE SMOOTH",
"356 0 LINE"
);
},
{
nodes = (
"444 185 LINE",
"444 493 LINE",
"320 493 LINE",
"320 185 LINE"
);
},
{
nodes = (
"40 432 LINE",
"392 432 LINE",
"392 264 LINE",
"40 264 LINE"
);
}
);
width = 720;
}
);
unicode = 00D0;
},
{
glyphname = eth;
layers = (
{
layerId = "CD1C2F27-7B64-400F-B9B0-689659144D44";
paths = (
{
nodes = (
"366 0 LINE",
"47 0 LINE",
"47 13 LINE",
"62 19 OFFCURVE",
"93 42 OFFCURVE",
"93 61 QCURVE SMOOTH",
"93 617 LINE SMOOTH",
"93 636 OFFCURVE",
"63 659 OFFCURVE",
"47 665 QCURVE",
"47 678 LINE",
"366 678 LINE",
"356 678 LINE",
"519 678 LINE SMOOTH",
"543 678 OFFCURVE",
"596 672 OFFCURVE",
"641 653 OFFCURVE",
"671 616 OFFCURVE",
"671 586 QCURVE SMOOTH",
"671 92 LINE SMOOTH",
"671 62 OFFCURVE",
"641 25 OFFCURVE",
"596 6 OFFCURVE",
"543 0 OFFCURVE",
"519 0 QCURVE SMOOTH",
"356 0 LINE"
);
},
{
nodes = (
"444 185 LINE",
"444 493 LINE",
"320 493 LINE",
"320 185 LINE"
);
},
{
nodes = (
"40 432 LINE",
"392 432 LINE",
"392 264 LINE",
"40 264 LINE"
);
}
);
width = 720;
}
);
unicode = 00F0;
},
{
glyphname = cent;
layers = (
{
layerId = "CD1C2F27-7B64-400F-B9B0-689659144D44";
paths = (
{
nodes = (
"368 776 LINE",
"368 679 LINE",
"467 679 LINE SMOOTH",
"491 679 OFFCURVE",
"544 673 OFFCURVE",
"589 653 OFFCURVE",
"618 616 OFFCURVE",
"618 586 QCURVE SMOOTH",
"618 432 LINE",
"354 432 LINE",
"354 445 LINE",
"371 451 OFFCURVE",
"400 474 OFFCURVE",
"400 494 QCURVE",
"279 494 LINE",
"279 185 LINE",
"400 185 LINE",
"400 205 OFFCURVE",
"371 228 OFFCURVE",
"354 234 QCURVE",
"354 247 LINE",
"618 247 LINE",
"618 93 LINE SMOOTH",
"618 63 OFFCURVE",
"589 26 OFFCURVE",
"544 6 OFFCURVE",
"491 0 OFFCURVE",
"467 0 QCURVE SMOOTH",
"368 0 LINE",
"368 -91 LINE",
"295 -91 LINE",
"295 0 LINE",
"203 0 LINE SMOOTH",
"179 0 OFFCURVE",
"126 6 OFFCURVE",
"81 26 OFFCURVE",
"52 63 OFFCURVE",
"52 93 QCURVE SMOOTH",
"52 586 LINE SMOOTH",
"52 616 OFFCURVE",
"81 653 OFFCURVE",
"126 673 OFFCURVE",
"179 679 OFFCURVE",
"203 679 QCURVE SMOOTH",
"295 679 LINE",
"295 776 LINE"
);
}
);
width = 670;
}
);
unicode = 00A2;
},
{
glyphname = yen;
layers = (
{
layerId = "CD1C2F27-7B64-400F-B9B0-689659144D44";
paths = (
{
nodes = (
"452 278 LINE",
"452 62 LINE SMOOTH",
"452 42 OFFCURVE",
"481 19 OFFCURVE",
"498 13 QCURVE",
"498 0 LINE",
"178 0 LINE",
"178 13 LINE",
"194 19 OFFCURVE",
"225 42 OFFCURVE",
"225 62 QCURVE SMOOTH",
"225 278 LINE",
"172 278 LINE SMOOTH",
"120 278 OFFCURVE",
"72 330 OFFCURVE",
"55 406 OFFCURVE",
"58 492 OFFCURVE",
"58 525 QCURVE SMOOTH",
"58 617 LINE SMOOTH",
"58 637 OFFCURVE",
"29 660 OFFCURVE",
"12 666 QCURVE",
"12 679 LINE",
"331 679 LINE",
"331 666 LINE",
"315 660 OFFCURVE",
"285 637 OFFCURVE",
"285 617 QCURVE SMOOTH",
"285 401 LINE",
"401 401 LINE",
"401 617 LINE SMOOTH",
"401 637 OFFCURVE",
"371 660 OFFCURVE",
"355 666 QCURVE",
"355 679 LINE",
"674 679 LINE",
"674 666 LINE",
"657 660 OFFCURVE",
"628 637 OFFCURVE",
"628 617 QCURVE SMOOTH",
"628 525 LINE SMOOTH",
"628 492 OFFCURVE",
"631 406 OFFCURVE",
"614 330 OFFCURVE",
"566 278 OFFCURVE",
"514 278 QCURVE SMOOTH"
);
},
{
nodes = (
"64 253 LINE",
"619 253 LINE",
"619 180 LINE",
"64 180 LINE"
);
},
{
nodes = (
"64 147 LINE",
"619 147 LINE",
"619 75 LINE",
"64 75 LINE"
);
}
);
width = 688;
}
);
unicode = 00A5;
},
{
glyphname = questiondown;
layers = (
{
layerId = "CD1C2F27-7B64-400F-B9B0-689659144D44";
paths = (
{
nodes = (
"348 494 OFFCURVE",
"307 506 OFFCURVE",
"274 530 OFFCURVE",
"253 564 OFFCURVE",
"253 586 QCURVE SMOOTH",
"253 608 OFFCURVE",
"274 643 OFFCURVE",
"307 667 OFFCURVE",
"347 679 OFFCURVE",
"367 679 QCURVE SMOOTH",
"387 679 OFFCURVE",
"427 667 OFFCURVE",
"460 643 OFFCURVE",
"480 608 OFFCURVE",
"480 586 QCURVE SMOOTH",
"480 564 OFFCURVE",
"460 530 OFFCURVE",
"427 506 OFFCURVE",
"387 494 OFFCURVE",
"367 494 QCURVE SMOOTH"
);
},
{
nodes = (
"638 247 LINE",
"638 92 LINE SMOOTH",
"638 62 OFFCURVE",
"608 25 OFFCURVE",
"563 6 OFFCURVE",
"509 0 OFFCURVE",
"486 0 QCURVE SMOOTH",
"183 0 LINE SMOOTH",
"160 0 OFFCURVE",
"107 6 OFFCURVE",
"62 25 OFFCURVE",
"32 62 OFFCURVE",
"32 92 QCURVE SMOOTH",
"32 309 LINE SMOOTH",
"32 349 OFFCURVE",
"81 387 OFFCURVE",
"151 402 OFFCURVE",
"226 401 OFFCURVE",
"253 401 QCURVE",
"253 421 OFFCURVE",
"223 444 OFFCURVE",
"207 450 QCURVE",
"207 463 LINE",
"527 463 LINE",
"527 450 LINE",
"509 443 OFFCURVE",
"490 429 OFFCURVE",
"481 411 OFFCURVE",
"480 387 OFFCURVE",
"480 370 QCURVE SMOOTH",
"480 330 OFFCURVE",
"431 292 OFFCURVE",
"361 277 OFFCURVE",
"286 278 OFFCURVE",
"259 278 QCURVE",
"259 185 LINE",
"411 185 LINE",
"411 205 OFFCURVE",
"380 228 OFFCURVE",
"364 234 QCURVE",
"364 247 LINE"
);
}
);
width = 670;
}
);
unicode = 00BF;
},
{
glyphname = AE;
layers = (
{
layerId = "CD1C2F27-7B64-400F-B9B0-689659144D44";
paths = (
{
nodes = (
"836 401 LINE SMOOTH",
"856 401 OFFCURVE",
"886 421 OFFCURVE",
"896 438 QCURVE",
"912 438 LINE",
"912 240 LINE",
"896 240 LINE",
"886 257 OFFCURVE",
"856 278 OFFCURVE",
"836 278 QCURVE SMOOTH",
"689 278 LINE",
"689 185 LINE",
"950 185 LINE SMOOTH",
"970 185 OFFCURVE",
"1000 205 OFFCURVE",
"1010 222 QCURVE",
"1026 222 LINE",
"1026 0 LINE",
"412 0 LINE",
"412 13 LINE",
"428 19 OFFCURVE",
"458 41 OFFCURVE",
"458 61 QCURVE SMOOTH",
"458 185 LINE",
"310 185 LINE",
"310 61 LINE SMOOTH",
"310 41 OFFCURVE",
"340 19 OFFCURVE",
"356 13 QCURVE",
"356 0 LINE",
"37 0 LINE",
"37 13 LINE",
"52 19 OFFCURVE",
"83 42 OFFCURVE",
"83 61 QCURVE SMOOTH",
"83 256 LINE SMOOTH",
"83 281 OFFCURVE",
"82 330 OFFCURVE",
"83 354 QCURVE SMOOTH",
"84 375 OFFCURVE",
"107 429 OFFCURVE",
"141 487 OFFCURVE",
"180 544 OFFCURVE",
"213 591 OFFCURVE",
"235 626 OFFCURVE",
"235 633 QCURVE SMOOTH",
"235 646 OFFCURVE",
"214 661 OFFCURVE",
"203 665 QCURVE",
"203 679 LINE",
"1026 679 LINE",
"1026 456 LINE",
"1010 456 LINE",
"1000 473 OFFCURVE",
"970 494 OFFCURVE",
"950 494 QCURVE SMOOTH",
"689 494 LINE",
"689 401 LINE"
);
},
{
nodes = (
"347 415 LINE",
"322 382 OFFCURVE",
"310 338 OFFCURVE",
"310 308 QCURVE",
"458 308 LINE",
"458 555 LINE"
);
}
);
width = 1067;
}
);
unicode = 00C6;
},
{
glyphname = ae;
layers = (
{
layerId = "CD1C2F27-7B64-400F-B9B0-689659144D44";
paths = (
{
nodes = (
"836 401 LINE SMOOTH",
"856 401 OFFCURVE",
"886 421 OFFCURVE",
"896 438 QCURVE",
"912 438 LINE",
"912 240 LINE",
"896 240 LINE",
"886 257 OFFCURVE",
"856 278 OFFCURVE",
"836 278 QCURVE SMOOTH",
"689 278 LINE",
"689 185 LINE",
"950 185 LINE SMOOTH",
"970 185 OFFCURVE",
"1000 205 OFFCURVE",
"1010 222 QCURVE",
"1026 222 LINE",
"1026 0 LINE",
"412 0 LINE",
"412 13 LINE",
"428 19 OFFCURVE",
"458 41 OFFCURVE",
"458 61 QCURVE SMOOTH",
"458 185 LINE",
"310 185 LINE",
"310 61 LINE SMOOTH",
"310 41 OFFCURVE",
"340 19 OFFCURVE",
"356 13 QCURVE",
"356 0 LINE",
"37 0 LINE",
"37 13 LINE",
"52 19 OFFCURVE",
"83 42 OFFCURVE",
"83 61 QCURVE SMOOTH",
"83 256 LINE SMOOTH",
"83 281 OFFCURVE",
"82 330 OFFCURVE",
"83 354 QCURVE SMOOTH",
"84 375 OFFCURVE",
"107 429 OFFCURVE",
"141 487 OFFCURVE",
"180 544 OFFCURVE",
"213 591 OFFCURVE",
"235 626 OFFCURVE",
"235 633 QCURVE SMOOTH",
"235 646 OFFCURVE",
"214 661 OFFCURVE",
"203 665 QCURVE",
"203 679 LINE",
"1026 679 LINE",
"1026 456 LINE",
"1010 456 LINE",
"1000 473 OFFCURVE",
"970 494 OFFCURVE",
"950 494 QCURVE SMOOTH",
"689 494 LINE",
"689 401 LINE"
);
},
{
nodes = (
"347 415 LINE",
"322 382 OFFCURVE",
"310 338 OFFCURVE",
"310 308 QCURVE",
"458 308 LINE",
"458 555 LINE"
);
}
);
width = 1067;
}
);
unicode = 00E6;
},
{
glyphname = grave;
layers = (
{
layerId = "CD1C2F27-7B64-400F-B9B0-689659144D44";
paths = (
{
nodes = (
"104 884 LINE",
"282 884 LINE",
"390 716 LINE",
"207 716 LINE"
);
}
);
width = 443;
}
);
unicode = 0060;
},
{
glyphname = igrave;
layers = (
{
layerId = "CD1C2F27-7B64-400F-B9B0-689659144D44";
paths = (
{
nodes = (
"342 679 LINE",
"342 666 LINE",
"326 660 OFFCURVE",
"296 638 OFFCURVE",
"296 618 QCURVE SMOOTH",
"296 62 LINE SMOOTH",
"296 42 OFFCURVE",
"326 20 OFFCURVE",
"342 14 QCURVE",
"342 0 LINE",
"22 0 LINE",
"22 14 LINE",
"38 20 OFFCURVE",
"68 42 OFFCURVE",
"68 62 QCURVE SMOOTH",
"68 618 LINE SMOOTH",
"68 638 OFFCURVE",
"38 660 OFFCURVE",
"22 666 QCURVE",
"22 679 LINE"
);
},
{
nodes = (
"48 884 LINE",
"226 884 LINE",
"334 716 LINE",
"151 716 LINE"
);
}
);
width = 381;
}
);
unicode = 00EC;
},
{
glyphname = thorn;
layers = (
{
layerId = "CD1C2F27-7B64-400F-B9B0-689659144D44";
paths = (
{
nodes = (
"233 772 LINE",
"233 593 LINE",
"422 593 LINE SMOOTH",
"446 593 OFFCURVE",
"499 587 OFFCURVE",
"544 568 OFFCURVE",
"574 531 OFFCURVE",
"574 501 QCURVE SMOOTH",
"574 191 LINE SMOOTH",
"574 161 OFFCURVE",
"544 124 OFFCURVE",
"499 105 OFFCURVE",
"446 99 OFFCURVE",
"422 99 QCURVE SMOOTH",
"233 99 LINE",
"233 -91 LINE",
"51 -91 LINE",
"51 772 LINE"
);
},
{
nodes = (
"399 284 LINE",
"399 408 LINE",
"233 408 LINE",
"233 284 LINE"
);
}
);
width = 604;
}
);
unicode = 00FE;
},
{
glyphname = Thorn;
layers = (
{
layerId = "CD1C2F27-7B64-400F-B9B0-689659144D44";
paths = (
{
nodes = (
"233 772 LINE",
"233 593 LINE",
"422 593 LINE SMOOTH",
"446 593 OFFCURVE",
"499 587 OFFCURVE",
"544 568 OFFCURVE",
"574 531 OFFCURVE",
"574 501 QCURVE SMOOTH",
"574 191 LINE SMOOTH",
"574 161 OFFCURVE",
"544 124 OFFCURVE",
"499 105 OFFCURVE",
"446 99 OFFCURVE",
"422 99 QCURVE SMOOTH",
"233 99 LINE",
"233 -91 LINE",
"51 -91 LINE",
"51 772 LINE"
);
},
{
nodes = (
"399 284 LINE",
"399 408 LINE",
"233 408 LINE",
"233 284 LINE"
);
}
);
width = 604;
}
);
unicode = 00DE;
},
{
glyphname = sterling;
layers = (
{
layerId = "CD1C2F27-7B64-400F-B9B0-689659144D44";
paths = (
{
nodes = (
"16 168 LINE",
"174 168 LINE",
"174 278 LINE",
"136 277 LINE",
"111 277 OFFCURVE",
"68 280 OFFCURVE",
"37 298 OFFCURVE",
"19 336 OFFCURVE",
"19 370 QCURVE SMOOTH",
"19 587 LINE SMOOTH",
"19 617 OFFCURVE",
"49 653 OFFCURVE",
"94 673 OFFCURVE",
"147 679 OFFCURVE",
"170 679 QCURVE SMOOTH",
"411 679 LINE SMOOTH",
"434 679 OFFCURVE",
"488 673 OFFCURVE",
"533 654 OFFCURVE",
"563 617 OFFCURVE",
"563 587 QCURVE SMOOTH",
"563 432 LINE",
"295 432 LINE",
"295 445 LINE",
"312 451 OFFCURVE",
"341 474 OFFCURVE",
"341 494 QCURVE",
"246 494 LINE",
"246 401 LINE",
"265 401 LINE SMOOTH",
"287 401 OFFCURVE",
"335 395 OFFCURVE",
"377 378 OFFCURVE",
"407 347 OFFCURVE",
"410 322 QCURVE",
"560 322 LINE",
"560 196 LINE",
"411 196 LINE",
"411 168 LINE",
"559 168 LINE",
"559 0 LINE",
"16 0 LINE"
);
}
);
width = 586;
}
);
unicode = 00A3;
},
{
glyphname = oe;
layers = (
{
layerId = "CD1C2F27-7B64-400F-B9B0-689659144D44";
paths = (
{
nodes = (
"806 401 LINE SMOOTH",
"826 401 OFFCURVE",
"856 421 OFFCURVE",
"866 438 QCURVE",
"882 438 LINE",
"882 240 LINE",
"866 240 LINE",
"856 257 OFFCURVE",
"826 278 OFFCURVE",
"806 278 QCURVE SMOOTH",
"655 278 LINE",
"655 185 LINE",
"920 185 LINE SMOOTH",
"940 185 OFFCURVE",
"970 205 OFFCURVE",
"980 222 QCURVE",
"996 222 LINE",
"996 0 LINE",
"199 0 LINE SMOOTH",
"175 0 OFFCURVE",
"122 6 OFFCURVE",
"77 25 OFFCURVE",
"48 62 OFFCURVE",
"48 92 QCURVE SMOOTH",
"48 586 LINE SMOOTH",
"48 616 OFFCURVE",
"77 653 OFFCURVE",
"122 672 OFFCURVE",
"175 678 OFFCURVE",
"199 678 QCURVE SMOOTH",
"996 678 LINE",
"996 456 LINE",
"980 456 LINE",
"970 473 OFFCURVE",
"940 494 OFFCURVE",
"920 494 QCURVE SMOOTH",
"655 494 LINE",
"655 401 LINE"
);
},
{
nodes = (
"426 185 LINE",
"426 493 LINE",
"275 493 LINE",
"275 185 LINE"
);
}
);
width = 1039;
}
);
unicode = 0153;
},
{
glyphname = guillemotleft;
layers = (
{
layerId = "CD1C2F27-7B64-400F-B9B0-689659144D44";
paths = (
{
nodes = (
"219 572 LINE",
"297 505 LINE",
"146 321 LINE",
"297 138 LINE",
"219 71 LINE",
"37 292 LINE",
"37 351 LINE"
);
},
{
nodes = (
"415 572 LINE",
"493 505 LINE",
"342 321 LINE",
"493 138 LINE",
"415 71 LINE",
"233 292 LINE",
"233 351 LINE"
);
}
);
width = 516;
}
);
unicode = 00AB;
},
{
glyphname = dotlessi;
layers = (
{
layerId = "CD1C2F27-7B64-400F-B9B0-689659144D44";
paths = (
{
nodes = (
"342 679 LINE",
"342 666 LINE",
"326 660 OFFCURVE",
"296 638 OFFCURVE",
"296 618 QCURVE SMOOTH",
"296 62 LINE SMOOTH",
"296 42 OFFCURVE",
"326 20 OFFCURVE",
"342 14 QCURVE",
"342 0 LINE",
"22 0 LINE",
"22 14 LINE",
"38 20 OFFCURVE",
"68 42 OFFCURVE",
"68 62 QCURVE SMOOTH",
"68 618 LINE SMOOTH",
"68 638 OFFCURVE",
"38 660 OFFCURVE",
"22 666 QCURVE",
"22 679 LINE"
);
}
);
width = 359;
}
);
unicode = 0131;
},
{
glyphname = uni0156;
layers = (
{
layerId = "CD1C2F27-7B64-400F-B9B0-689659144D44";
paths = (
{
nodes = (
"15 678 LINE",
"493 678 LINE SMOOTH",
"520 678 OFFCURVE",
"573 666 OFFCURVE",
"617 640 OFFCURVE",
"644 597 OFFCURVE",
"644 566 QCURVE SMOOTH",
"644 455 LINE SMOOTH",
"644 429 OFFCURVE",
"624 386 OFFCURVE",
"589 356 OFFCURVE",
"544 339 OFFCURVE",
"519 339 QCURVE",
"544 339 OFFCURVE",
"590 321 OFFCURVE",
"624 289 OFFCURVE",
"644 245 OFFCURVE",
"644 219 QCURVE SMOOTH",
"644 189 LINE",
"644 61 LINE SMOOTH",
"644 41 OFFCURVE",
"675 18 OFFCURVE",
"691 13 QCURVE",
"691 0 LINE",
"371 0 LINE",
"371 13 LINE",
"387 19 OFFCURVE",
"417 41 OFFCURVE",
"417 61 QCURVE SMOOTH",
"417 277 LINE",
"288 277 LINE",
"288 61 LINE SMOOTH",
"288 41 OFFCURVE",
"318 19 OFFCURVE",
"334 13 QCURVE",
"334 0 LINE",
"15 0 LINE",
"15 13 LINE",
"31 19 OFFCURVE",
"61 42 OFFCURVE",
"61 61 QCURVE SMOOTH",
"61 617 LINE SMOOTH",
"61 636 OFFCURVE",
"30 659 OFFCURVE",
"15 665 QCURVE"
);
},
{
nodes = (
"417 401 LINE",
"417 493 LINE",
"288 493 LINE",
"288 401 LINE"
);
},
{
nodes = (
"315 -203 LINE",
"285 -194 OFFCURVE",
"239 -149 OFFCURVE",
"239 -116 QCURVE SMOOTH",
"239 -94 OFFCURVE",
"259 -59 OFFCURVE",
"292 -35 OFFCURVE",
"332 -23 OFFCURVE",
"352 -23 QCURVE SMOOTH",
"372 -23 OFFCURVE",
"412 -35 OFFCURVE",
"445 -59 OFFCURVE",
"466 -94 OFFCURVE",
"466 -116 QCURVE SMOOTH",
"466 -143 OFFCURVE",
"448 -189 OFFCURVE",
"416 -227 OFFCURVE",
"375 -258 OFFCURVE",
"353 -270 QCURVE",
"315 -270 LINE"
);
}
);
width = 685;
}
);
unicode = 0156;
},
{
glyphname = Emacron;
layers = (
{
layerId = "CD1C2F27-7B64-400F-B9B0-689659144D44";
paths = (
{
nodes = (
"445 401 LINE SMOOTH",
"465 401 OFFCURVE",
"495 421 OFFCURVE",
"505 438 QCURVE",
"521 438 LINE",
"521 240 LINE",
"505 240 LINE",
"495 257 OFFCURVE",
"465 278 OFFCURVE",
"445 278 QCURVE SMOOTH",
"294 278 LINE",
"294 185 LINE",
"559 185 LINE SMOOTH",
"579 185 OFFCURVE",
"609 205 OFFCURVE",
"619 222 QCURVE",
"635 222 LINE",
"635 0 LINE",
"21 0 LINE",
"21 13 LINE",
"37 19 OFFCURVE",
"67 41 OFFCURVE",
"67 61 QCURVE SMOOTH",
"67 617 LINE SMOOTH",
"67 637 OFFCURVE",
"37 660 OFFCURVE",
"21 666 QCURVE",
"21 679 LINE",
"635 679 LINE",
"635 456 LINE",
"619 456 LINE",
"609 473 OFFCURVE",
"579 494 OFFCURVE",
"559 494 QCURVE SMOOTH",
"294 494 LINE",
"294 401 LINE"
);
},
{
nodes = (
"193 851 LINE",
"509 851 LINE",
"509 713 LINE",
"193 713 LINE"
);
}
);
width = 673;
}
);
unicode = 0112;
},
{
glyphname = emacron;
layers = (
{
layerId = "CD1C2F27-7B64-400F-B9B0-689659144D44";
paths = (
{
nodes = (
"445 401 LINE SMOOTH",
"465 401 OFFCURVE",
"495 421 OFFCURVE",
"505 438 QCURVE",
"521 438 LINE",
"521 240 LINE",
"505 240 LINE",
"495 257 OFFCURVE",
"465 278 OFFCURVE",
"445 278 QCURVE SMOOTH",
"294 278 LINE",
"294 185 LINE",
"559 185 LINE SMOOTH",
"579 185 OFFCURVE",
"609 205 OFFCURVE",
"619 222 QCURVE",
"635 222 LINE",
"635 0 LINE",
"21 0 LINE",
"21 13 LINE",
"37 19 OFFCURVE",
"67 41 OFFCURVE",
"67 61 QCURVE SMOOTH",
"67 617 LINE SMOOTH",
"67 637 OFFCURVE",
"37 660 OFFCURVE",
"21 666 QCURVE",
"21 679 LINE",
"635 679 LINE",
"635 456 LINE",
"619 456 LINE",
"609 473 OFFCURVE",
"579 494 OFFCURVE",
"559 494 QCURVE SMOOTH",
"294 494 LINE",
"294 401 LINE"
);
},
{
nodes = (
"193 851 LINE",
"509 851 LINE",
"509 713 LINE",
"193 713 LINE"
);
}
);
width = 673;
}
);
unicode = 0113;
},
{
glyphname = Imacron;
layers = (
{
layerId = "CD1C2F27-7B64-400F-B9B0-689659144D44";
paths = (
{
nodes = (
"342 679 LINE",
"342 666 LINE",
"326 660 OFFCURVE",
"296 638 OFFCURVE",
"296 618 QCURVE SMOOTH",
"296 62 LINE SMOOTH",
"296 42 OFFCURVE",
"326 20 OFFCURVE",
"342 14 QCURVE",
"342 0 LINE",
"22 0 LINE",
"22 14 LINE",
"38 20 OFFCURVE",
"68 42 OFFCURVE",
"68 62 QCURVE SMOOTH",
"68 618 LINE SMOOTH",
"68 638 OFFCURVE",
"38 660 OFFCURVE",
"22 666 QCURVE",
"22 679 LINE"
);
},
{
nodes = (
"24 851 LINE",
"340 851 LINE",
"340 713 LINE",
"24 713 LINE"
);
}
);
width = 359;
}
);
unicode = 012A;
},
{
glyphname = imacron;
layers = (
{
layerId = "CD1C2F27-7B64-400F-B9B0-689659144D44";
paths = (
{
nodes = (
"342 679 LINE",
"342 666 LINE",
"326 660 OFFCURVE",
"296 638 OFFCURVE",
"296 618 QCURVE SMOOTH",
"296 62 LINE SMOOTH",
"296 42 OFFCURVE",
"326 20 OFFCURVE",
"342 14 QCURVE",
"342 0 LINE",
"22 0 LINE",
"22 14 LINE",
"38 20 OFFCURVE",
"68 42 OFFCURVE",
"68 62 QCURVE SMOOTH",
"68 618 LINE SMOOTH",
"68 638 OFFCURVE",
"38 660 OFFCURVE",
"22 666 QCURVE",
"22 679 LINE"
);
},
{
nodes = (
"24 851 LINE",
"340 851 LINE",
"340 713 LINE",
"24 713 LINE"
);
}
);
width = 359;
}
);
unicode = 012B;
},
{
glyphname = uni0136;
layers = (
{
layerId = "CD1C2F27-7B64-400F-B9B0-689659144D44";
paths = (
{
nodes = (
"339 666 LINE",
"323 660 OFFCURVE",
"293 637 OFFCURVE",
"293 617 QCURVE SMOOTH",
"293 401 LINE",
"445 401 LINE",
"445 617 LINE SMOOTH",
"445 637 OFFCURVE",
"414 660 OFFCURVE",
"398 666 QCURVE",
"398 679 LINE",
"718 679 LINE",
"718 666 LINE",
"701 660 OFFCURVE",
"672 637 OFFCURVE",
"672 617 QCURVE SMOOTH",
"672 489 LINE SMOOTH",
"672 464 OFFCURVE",
"653 411 OFFCURVE",
"620 368 OFFCURVE",
"574 340 OFFCURVE",
"547 340 QCURVE",
"575 340 OFFCURVE",
"621 308 OFFCURVE",
"654 260 OFFCURVE",
"672 203 OFFCURVE",
"672 179 QCURVE SMOOTH",
"672 62 LINE SMOOTH",
"672 42 OFFCURVE",
"701 19 OFFCURVE",
"718 13 QCURVE",
"718 0 LINE",
"398 0 LINE",
"398 13 LINE",
"414 19 OFFCURVE",
"445 42 OFFCURVE",
"445 62 QCURVE SMOOTH",
"445 278 LINE",
"293 278 LINE",
"293 62 LINE SMOOTH",
"293 42 OFFCURVE",
"323 19 OFFCURVE",
"339 13 QCURVE",
"339 0 LINE",
"20 0 LINE",
"20 13 LINE",
"37 19 OFFCURVE",
"66 42 OFFCURVE",
"66 62 QCURVE SMOOTH",
"66 617 LINE SMOOTH",
"66 637 OFFCURVE",
"37 660 OFFCURVE",
"20 666 QCURVE",
"20 679 LINE",
"339 679 LINE"
);
},
{
nodes = (
"315 -203 LINE",
"285 -194 OFFCURVE",
"239 -149 OFFCURVE",
"239 -116 QCURVE SMOOTH",
"239 -94 OFFCURVE",
"259 -59 OFFCURVE",
"292 -35 OFFCURVE",
"332 -23 OFFCURVE",
"352 -23 QCURVE SMOOTH",
"372 -23 OFFCURVE",
"412 -35 OFFCURVE",
"445 -59 OFFCURVE",
"466 -94 OFFCURVE",
"466 -116 QCURVE SMOOTH",
"466 -143 OFFCURVE",
"448 -189 OFFCURVE",
"416 -227 OFFCURVE",
"375 -258 OFFCURVE",
"353 -270 QCURVE",
"315 -270 LINE"
);
}
);
width = 738;
}
);
unicode = 0136;
},
{
glyphname = uni0122;
layers = (
{
layerId = "CD1C2F27-7B64-400F-B9B0-689659144D44";
paths = (
{
nodes = (
"315 401 LINE",
"656 401 LINE",
"656 93 LINE SMOOTH",
"656 63 OFFCURVE",
"626 26 OFFCURVE",
"581 6 OFFCURVE",
"528 0 OFFCURVE",
"504 0 QCURVE SMOOTH",
"201 0 LINE SMOOTH",
"177 0 OFFCURVE",
"124 6 OFFCURVE",
"79 26 OFFCURVE",
"50 63 OFFCURVE",
"50 93 QCURVE SMOOTH",
"50 587 LINE SMOOTH",
"50 617 OFFCURVE",
"80 654 OFFCURVE",
"125 673 OFFCURVE",
"178 679 OFFCURVE",
"201 679 QCURVE SMOOTH",
"504 679 LINE SMOOTH",
"527 679 OFFCURVE",
"581 673 OFFCURVE",
"626 654 OFFCURVE",
"656 617 OFFCURVE",
"656 587 QCURVE SMOOTH",
"656 432 LINE",
"382 432 LINE",
"382 445 LINE",
"398 451 OFFCURVE",
"429 474 OFFCURVE",
"429 494 QCURVE",
"277 494 LINE",
"277 185 LINE",
"429 185 LINE",
"429 278 LINE",
"391 278 LINE SMOOTH",
"371 278 OFFCURVE",
"342 257 OFFCURVE",
"331 240 QCURVE",
"315 240 LINE"
);
},
{
nodes = (
"315 -203 LINE",
"285 -194 OFFCURVE",
"239 -149 OFFCURVE",
"239 -116 QCURVE SMOOTH",
"239 -94 OFFCURVE",
"259 -59 OFFCURVE",
"292 -35 OFFCURVE",
"332 -23 OFFCURVE",
"352 -23 QCURVE SMOOTH",
"372 -23 OFFCURVE",
"412 -35 OFFCURVE",
"445 -59 OFFCURVE",
"466 -94 OFFCURVE",
"466 -116 QCURVE SMOOTH",
"466 -143 OFFCURVE",
"448 -189 OFFCURVE",
"416 -227 OFFCURVE",
"375 -258 OFFCURVE",
"353 -270 QCURVE",
"315 -270 LINE"
);
}
);
width = 705;
}
);
unicode = 0122;
},
{
glyphname = uni0137;
layers = (
{
layerId = "CD1C2F27-7B64-400F-B9B0-689659144D44";
paths = (
{
nodes = (
"339 666 LINE",
"323 660 OFFCURVE",
"293 637 OFFCURVE",
"293 617 QCURVE SMOOTH",
"293 401 LINE",
"445 401 LINE",
"445 617 LINE SMOOTH",
"445 637 OFFCURVE",
"414 660 OFFCURVE",
"398 666 QCURVE",
"398 679 LINE",
"718 679 LINE",
"718 666 LINE",
"701 660 OFFCURVE",
"672 637 OFFCURVE",
"672 617 QCURVE SMOOTH",
"672 489 LINE SMOOTH",
"672 464 OFFCURVE",
"653 411 OFFCURVE",
"620 368 OFFCURVE",
"574 340 OFFCURVE",
"547 340 QCURVE",
"575 340 OFFCURVE",
"621 308 OFFCURVE",
"654 260 OFFCURVE",
"672 203 OFFCURVE",
"672 179 QCURVE SMOOTH",
"672 62 LINE SMOOTH",
"672 42 OFFCURVE",
"701 19 OFFCURVE",
"718 13 QCURVE",
"718 0 LINE",
"398 0 LINE",
"398 13 LINE",
"414 19 OFFCURVE",
"445 42 OFFCURVE",
"445 62 QCURVE SMOOTH",
"445 278 LINE",
"293 278 LINE",
"293 62 LINE SMOOTH",
"293 42 OFFCURVE",
"323 19 OFFCURVE",
"339 13 QCURVE",
"339 0 LINE",
"20 0 LINE",
"20 13 LINE",
"37 19 OFFCURVE",
"66 42 OFFCURVE",
"66 62 QCURVE SMOOTH",
"66 617 LINE SMOOTH",
"66 637 OFFCURVE",
"37 660 OFFCURVE",
"20 666 QCURVE",
"20 679 LINE",
"339 679 LINE"
);
},
{
nodes = (
"315 -203 LINE",
"285 -194 OFFCURVE",
"239 -149 OFFCURVE",
"239 -116 QCURVE SMOOTH",
"239 -94 OFFCURVE",
"259 -59 OFFCURVE",
"292 -35 OFFCURVE",
"332 -23 OFFCURVE",
"352 -23 QCURVE SMOOTH",
"372 -23 OFFCURVE",
"412 -35 OFFCURVE",
"445 -59 OFFCURVE",
"466 -94 OFFCURVE",
"466 -116 QCURVE SMOOTH",
"466 -143 OFFCURVE",
"448 -189 OFFCURVE",
"416 -227 OFFCURVE",
"375 -258 OFFCURVE",
"353 -270 QCURVE",
"315 -270 LINE"
);
}
);
width = 738;
}
);
unicode = 0137;
},
{
glyphname = uni0123;
layers = (
{
layerId = "CD1C2F27-7B64-400F-B9B0-689659144D44";
paths = (
{
nodes = (
"315 401 LINE",
"656 401 LINE",
"656 93 LINE SMOOTH",
"656 63 OFFCURVE",
"626 26 OFFCURVE",
"581 6 OFFCURVE",
"528 0 OFFCURVE",
"504 0 QCURVE SMOOTH",
"201 0 LINE SMOOTH",
"177 0 OFFCURVE",
"124 6 OFFCURVE",
"79 26 OFFCURVE",
"50 63 OFFCURVE",
"50 93 QCURVE SMOOTH",
"50 587 LINE SMOOTH",
"50 617 OFFCURVE",
"80 654 OFFCURVE",
"125 673 OFFCURVE",
"178 679 OFFCURVE",
"201 679 QCURVE SMOOTH",
"504 679 LINE SMOOTH",
"527 679 OFFCURVE",
"581 673 OFFCURVE",
"626 654 OFFCURVE",
"656 617 OFFCURVE",
"656 587 QCURVE SMOOTH",
"656 432 LINE",
"382 432 LINE",
"382 445 LINE",
"398 451 OFFCURVE",
"429 474 OFFCURVE",
"429 494 QCURVE",
"277 494 LINE",
"277 185 LINE",
"429 185 LINE",
"429 278 LINE",
"391 278 LINE SMOOTH",
"371 278 OFFCURVE",
"342 257 OFFCURVE",
"331 240 QCURVE",
"315 240 LINE"
);
},
{
nodes = (
"315 -203 LINE",
"285 -194 OFFCURVE",
"239 -149 OFFCURVE",
"239 -116 QCURVE SMOOTH",
"239 -94 OFFCURVE",
"259 -59 OFFCURVE",
"292 -35 OFFCURVE",
"332 -23 OFFCURVE",
"352 -23 QCURVE SMOOTH",
"372 -23 OFFCURVE",
"412 -35 OFFCURVE",
"445 -59 OFFCURVE",
"466 -94 OFFCURVE",
"466 -116 QCURVE SMOOTH",
"466 -143 OFFCURVE",
"448 -189 OFFCURVE",
"416 -227 OFFCURVE",
"375 -258 OFFCURVE",
"353 -270 QCURVE",
"315 -270 LINE"
);
}
);
width = 705;
}
);
unicode = 0123;
},
{
glyphname = uni013B;
layers = (
{
layerId = "CD1C2F27-7B64-400F-B9B0-689659144D44";
paths = (
{
nodes = (
"540 222 LINE",
"540 0 LINE",
"17 0 LINE",
"17 13 LINE",
"32 19 OFFCURVE",
"63 42 OFFCURVE",
"63 61 QCURVE SMOOTH",
"63 617 LINE SMOOTH",
"63 636 OFFCURVE",
"33 660 OFFCURVE",
"17 666 QCURVE",
"17 679 LINE",
"336 679 LINE",
"336 666 LINE",
"320 660 OFFCURVE",
"290 637 OFFCURVE",
"290 617 QCURVE SMOOTH",
"290 185 LINE",
"464 185 LINE SMOOTH",
"484 185 OFFCURVE",
"513 205 OFFCURVE",
"524 222 QCURVE"
);
},
{
nodes = (
"230 -203 LINE",
"200 -194 OFFCURVE",
"154 -149 OFFCURVE",
"154 -116 QCURVE SMOOTH",
"154 -94 OFFCURVE",
"174 -59 OFFCURVE",
"207 -35 OFFCURVE",
"247 -23 OFFCURVE",
"267 -23 QCURVE SMOOTH",
"287 -23 OFFCURVE",
"327 -35 OFFCURVE",
"360 -59 OFFCURVE",
"381 -94 OFFCURVE",
"381 -116 QCURVE SMOOTH",
"381 -143 OFFCURVE",
"363 -189 OFFCURVE",
"331 -227 OFFCURVE",
"290 -258 OFFCURVE",
"268 -270 QCURVE",
"230 -270 LINE"
);
}
);
width = 574;
}
);
unicode = 013B;
},
{
glyphname = uni013C;
layers = (
{
layerId = "CD1C2F27-7B64-400F-B9B0-689659144D44";
paths = (
{
nodes = (
"540 222 LINE",
"540 0 LINE",
"17 0 LINE",
"17 13 LINE",
"32 19 OFFCURVE",
"63 42 OFFCURVE",
"63 61 QCURVE SMOOTH",
"63 617 LINE SMOOTH",
"63 636 OFFCURVE",
"33 660 OFFCURVE",
"17 666 QCURVE",
"17 679 LINE",
"336 679 LINE",
"336 666 LINE",
"320 660 OFFCURVE",
"290 637 OFFCURVE",
"290 617 QCURVE SMOOTH",
"290 185 LINE",
"464 185 LINE SMOOTH",
"484 185 OFFCURVE",
"513 205 OFFCURVE",
"524 222 QCURVE"
);
},
{
nodes = (
"230 -203 LINE",
"200 -194 OFFCURVE",
"154 -149 OFFCURVE",
"154 -116 QCURVE SMOOTH",
"154 -94 OFFCURVE",
"174 -59 OFFCURVE",
"207 -35 OFFCURVE",
"247 -23 OFFCURVE",
"267 -23 QCURVE SMOOTH",
"287 -23 OFFCURVE",
"327 -35 OFFCURVE",
"360 -59 OFFCURVE",
"381 -94 OFFCURVE",
"381 -116 QCURVE SMOOTH",
"381 -143 OFFCURVE",
"363 -189 OFFCURVE",
"331 -227 OFFCURVE",
"290 -258 OFFCURVE",
"268 -270 QCURVE",
"230 -270 LINE"
);
}
);
width = 574;
}
);
unicode = 013C;
},
{
glyphname = Oslash.001;
layers = (
{
layerId = "CD1C2F27-7B64-400F-B9B0-689659144D44";
paths = (
{
nodes = (
"537 772 LINE",
"507 678 LINE",
"529 677 OFFCURVE",
"552 675 QCURVE SMOOTH",
"579 672 OFFCURVE",
"624 653 OFFCURVE",
"654 616 OFFCURVE",
"654 586 QCURVE SMOOTH",
"654 92 LINE SMOOTH",
"654 62 OFFCURVE",
"624 25 OFFCURVE",
"579 6 OFFCURVE",
"526 0 OFFCURVE",
"502 0 QCURVE SMOOTH",
"295 0 LINE",
"262 -107 LINE",
"166 -107 LINE",
"199 0 LINE",
"175 0 OFFCURVE",
"122 6 OFFCURVE",
"77 25 OFFCURVE",
"48 62 OFFCURVE",
"48 92 QCURVE SMOOTH",
"48 586 LINE SMOOTH",
"48 616 OFFCURVE",
"77 653 OFFCURVE",
"122 672 OFFCURVE",
"175 678 OFFCURVE",
"199 678 QCURVE SMOOTH",
"411 678 LINE",
"441 772 LINE"
);
},
{
nodes = (
"275 241 LINE",
"353 493 LINE",
"275 493 LINE"
);
},
{
nodes = (
"426 185 LINE",
"426 417 LINE",
"353 185 LINE"
);
}
);
width = 700;
}
);
},
{
glyphname = dollar;
layers = (
{
layerId = "CD1C2F27-7B64-400F-B9B0-689659144D44";
paths = (
{
nodes = (
"427 772 LINE",
"427 678 LINE",
"471 678 LINE SMOOTH",
"495 678 OFFCURVE",
"548 672 OFFCURVE",
"593 653 OFFCURVE",
"622 616 OFFCURVE",
"622 586 QCURVE SMOOTH",
"622 431 LINE",
"349 431 LINE",
"349 445 LINE",
"365 451 OFFCURVE",
"395 474 OFFCURVE",
"395 493 QCURVE",
"273 493 LINE",
"273 401 LINE",
"395 401 LINE SMOOTH",
"422 401 OFFCURVE",
"499 403 OFFCURVE",
"571 389 OFFCURVE",
"622 349 OFFCURVE",
"622 308 QCURVE SMOOTH",
"622 92 LINE SMOOTH",
"622 62 OFFCURVE",
"593 25 OFFCURVE",
"548 6 OFFCURVE",
"495 0 OFFCURVE",
"471 0 QCURVE SMOOTH",
"427 0 LINE",
"427 -85 LINE",
"245 -85 LINE",
"245 0 LINE",
"197 0 LINE SMOOTH",
"173 0 OFFCURVE",
"120 6 OFFCURVE",
"75 25 OFFCURVE",
"46 62 OFFCURVE",
"46 92 QCURVE SMOOTH",
"46 246 LINE",
"319 246 LINE",
"319 233 LINE",
"303 228 OFFCURVE",
"273 205 OFFCURVE",
"273 185 QCURVE",
"395 185 LINE",
"395 277 LINE",
"273 277 LINE SMOOTH",
"246 277 OFFCURVE",
"169 275 OFFCURVE",
"97 289 OFFCURVE",
"46 329 OFFCURVE",
"46 370 QCURVE SMOOTH",
"46 586 LINE SMOOTH",
"46 616 OFFCURVE",
"75 653 OFFCURVE",
"120 672 OFFCURVE",
"173 678 OFFCURVE",
"197 678 QCURVE SMOOTH",
"245 678 LINE",
"245 772 LINE"
);
}
);
width = 673;
}
);
unicode = 0024;
},
{
glyphname = Omacron;
layers = (
{
layerId = "CD1C2F27-7B64-400F-B9B0-689659144D44";
paths = (
{
nodes = (
"654 92 LINE SMOOTH",
"654 62 OFFCURVE",
"624 25 OFFCURVE",
"579 6 OFFCURVE",
"526 0 OFFCURVE",
"502 0 QCURVE SMOOTH",
"199 0 LINE SMOOTH",
"175 0 OFFCURVE",
"122 6 OFFCURVE",
"77 25 OFFCURVE",
"48 62 OFFCURVE",
"48 92 QCURVE SMOOTH",
"48 586 LINE SMOOTH",
"48 616 OFFCURVE",
"77 653 OFFCURVE",
"122 672 OFFCURVE",
"175 678 OFFCURVE",
"199 678 QCURVE SMOOTH",
"502 678 LINE SMOOTH",
"526 678 OFFCURVE",
"579 672 OFFCURVE",
"624 653 OFFCURVE",
"654 616 OFFCURVE",
"654 586 QCURVE SMOOTH"
);
},
{
nodes = (
"426 185 LINE",
"426 493 LINE",
"275 493 LINE",
"275 185 LINE"
);
},
{
nodes = (
"193 851 LINE",
"509 851 LINE",
"509 713 LINE",
"193 713 LINE"
);
}
);
width = 700;
}
);
unicode = 014C;
},
{
glyphname = omacron;
layers = (
{
layerId = "CD1C2F27-7B64-400F-B9B0-689659144D44";
paths = (
{
nodes = (
"654 92 LINE SMOOTH",
"654 62 OFFCURVE",
"624 25 OFFCURVE",
"579 6 OFFCURVE",
"526 0 OFFCURVE",
"502 0 QCURVE SMOOTH",
"199 0 LINE SMOOTH",
"175 0 OFFCURVE",
"122 6 OFFCURVE",
"77 25 OFFCURVE",
"48 62 OFFCURVE",
"48 92 QCURVE SMOOTH",
"48 586 LINE SMOOTH",
"48 616 OFFCURVE",
"77 653 OFFCURVE",
"122 672 OFFCURVE",
"175 678 OFFCURVE",
"199 678 QCURVE SMOOTH",
"502 678 LINE SMOOTH",
"526 678 OFFCURVE",
"579 672 OFFCURVE",
"624 653 OFFCURVE",
"654 616 OFFCURVE",
"654 586 QCURVE SMOOTH"
);
},
{
nodes = (
"426 185 LINE",
"426 493 LINE",
"275 493 LINE",
"275 185 LINE"
);
},
{
nodes = (
"193 851 LINE",
"509 851 LINE",
"509 713 LINE",
"193 713 LINE"
);
}
);
width = 700;
}
);
unicode = 014D;
},
{
glyphname = uni0145;
layers = (
{
layerId = "CD1C2F27-7B64-400F-B9B0-689659144D44";
paths = (
{
nodes = (
"17 13 LINE",
"34 19 OFFCURVE",
"63 42 OFFCURVE",
"63 62 QCURVE SMOOTH",
"63 617 LINE SMOOTH",
"63 637 OFFCURVE",
"34 660 OFFCURVE",
"17 666 QCURVE",
"17 679 LINE",
"336 679 LINE",
"336 666 LINE",
"320 660 OFFCURVE",
"290 637 OFFCURVE",
"290 617 QCURVE SMOOTH",
"290 494 LINE",
"442 344 LINE",
"442 617 LINE SMOOTH",
"442 637 OFFCURVE",
"413 660 OFFCURVE",
"396 666 QCURVE",
"396 679 LINE",
"715 679 LINE",
"715 666 LINE",
"698 660 OFFCURVE",
"669 637 OFFCURVE",
"669 617 QCURVE SMOOTH",
"669 62 LINE SMOOTH",
"669 42 OFFCURVE",
"698 19 OFFCURVE",
"715 13 QCURVE",
"715 0 LINE",
"396 0 LINE",
"396 13 LINE",
"413 19 OFFCURVE",
"442 42 OFFCURVE",
"442 62 QCURVE SMOOTH",
"442 150 LINE",
"290 300 LINE",
"290 62 LINE SMOOTH",
"290 42 OFFCURVE",
"320 19 OFFCURVE",
"336 13 QCURVE",
"336 0 LINE",
"17 0 LINE"
);
},
{
nodes = (
"327 -203 LINE",
"297 -194 OFFCURVE",
"251 -149 OFFCURVE",
"251 -116 QCURVE SMOOTH",
"251 -94 OFFCURVE",
"271 -59 OFFCURVE",
"304 -35 OFFCURVE",
"344 -23 OFFCURVE",
"364 -23 QCURVE SMOOTH",
"384 -23 OFFCURVE",
"424 -35 OFFCURVE",
"457 -59 OFFCURVE",
"478 -94 OFFCURVE",
"478 -116 QCURVE SMOOTH",
"478 -143 OFFCURVE",
"460 -189 OFFCURVE",
"428 -227 OFFCURVE",
"387 -258 OFFCURVE",
"365 -270 QCURVE",
"327 -270 LINE"
);
}
);
width = 727;
}
);
unicode = 0145;
},
{
glyphname = uni0146;
layers = (
{
layerId = "CD1C2F27-7B64-400F-B9B0-689659144D44";
paths = (
{
nodes = (
"17 13 LINE",
"34 19 OFFCURVE",
"63 42 OFFCURVE",
"63 62 QCURVE SMOOTH",
"63 617 LINE SMOOTH",
"63 637 OFFCURVE",
"34 660 OFFCURVE",
"17 666 QCURVE",
"17 679 LINE",
"336 679 LINE",
"336 666 LINE",
"320 660 OFFCURVE",
"290 637 OFFCURVE",
"290 617 QCURVE SMOOTH",
"290 494 LINE",
"442 344 LINE",
"442 617 LINE SMOOTH",
"442 637 OFFCURVE",
"413 660 OFFCURVE",
"396 666 QCURVE",
"396 679 LINE",
"715 679 LINE",
"715 666 LINE",
"698 660 OFFCURVE",
"669 637 OFFCURVE",
"669 617 QCURVE SMOOTH",
"669 62 LINE SMOOTH",
"669 42 OFFCURVE",
"698 19 OFFCURVE",
"715 13 QCURVE",
"715 0 LINE",
"396 0 LINE",
"396 13 LINE",
"413 19 OFFCURVE",
"442 42 OFFCURVE",
"442 62 QCURVE SMOOTH",
"442 150 LINE",
"290 300 LINE",
"290 62 LINE SMOOTH",
"290 42 OFFCURVE",
"320 19 OFFCURVE",
"336 13 QCURVE",
"336 0 LINE",
"17 0 LINE"
);
},
{
nodes = (
"327 -203 LINE",
"297 -194 OFFCURVE",
"251 -149 OFFCURVE",
"251 -116 QCURVE SMOOTH",
"251 -94 OFFCURVE",
"271 -59 OFFCURVE",
"304 -35 OFFCURVE",
"344 -23 OFFCURVE",
"364 -23 QCURVE SMOOTH",
"384 -23 OFFCURVE",
"424 -35 OFFCURVE",
"457 -59 OFFCURVE",
"478 -94 OFFCURVE",
"478 -116 QCURVE SMOOTH",
"478 -143 OFFCURVE",
"460 -189 OFFCURVE",
"428 -227 OFFCURVE",
"387 -258 OFFCURVE",
"365 -270 QCURVE",
"327 -270 LINE"
);
}
);
width = 727;
}
);
unicode = 0146;
},
{
glyphname = Umacron;
layers = (
{
layerId = "CD1C2F27-7B64-400F-B9B0-689659144D44";
paths = (
{
nodes = (
"331 679 LINE",
"331 666 LINE",
"315 660 OFFCURVE",
"285 637 OFFCURVE",
"285 617 QCURVE SMOOTH",
"285 185 LINE",
"413 185 LINE",
"413 617 LINE SMOOTH",
"413 637 OFFCURVE",
"383 660 OFFCURVE",
"367 666 QCURVE",
"367 679 LINE",
"687 679 LINE",
"687 666 LINE",
"671 660 OFFCURVE",
"640 637 OFFCURVE",
"640 617 QCURVE SMOOTH",
"640 97 LINE SMOOTH",
"640 67 OFFCURVE",
"611 29 OFFCURVE",
"566 8 OFFCURVE",
"513 0 OFFCURVE",
"489 0 QCURVE SMOOTH",
"209 0 LINE SMOOTH",
"185 0 OFFCURVE",
"131 8 OFFCURVE",
"87 30 OFFCURVE",
"58 68 OFFCURVE",
"58 99 QCURVE SMOOTH",
"58 617 LINE SMOOTH",
"58 636 OFFCURVE",
"28 660 OFFCURVE",
"12 666 QCURVE",
"12 679 LINE"
);
},
{
nodes = (
"193 851 LINE",
"509 851 LINE",
"509 713 LINE",
"193 713 LINE"
);
}
);
width = 704;
}
);
unicode = 016A;
},
{
glyphname = umacron;
layers = (
{
layerId = "CD1C2F27-7B64-400F-B9B0-689659144D44";
paths = (
{
nodes = (
"331 679 LINE",
"331 666 LINE",
"315 660 OFFCURVE",
"285 637 OFFCURVE",
"285 617 QCURVE SMOOTH",
"285 185 LINE",
"413 185 LINE",
"413 617 LINE SMOOTH",
"413 637 OFFCURVE",
"383 660 OFFCURVE",
"367 666 QCURVE",
"367 679 LINE",
"687 679 LINE",
"687 666 LINE",
"671 660 OFFCURVE",
"640 637 OFFCURVE",
"640 617 QCURVE SMOOTH",
"640 97 LINE SMOOTH",
"640 67 OFFCURVE",
"611 29 OFFCURVE",
"566 8 OFFCURVE",
"513 0 OFFCURVE",
"489 0 QCURVE SMOOTH",
"209 0 LINE SMOOTH",
"185 0 OFFCURVE",
"131 8 OFFCURVE",
"87 30 OFFCURVE",
"58 68 OFFCURVE",
"58 99 QCURVE SMOOTH",
"58 617 LINE SMOOTH",
"58 636 OFFCURVE",
"28 660 OFFCURVE",
"12 666 QCURVE",
"12 679 LINE"
);
},
{
nodes = (
"193 851 LINE",
"509 851 LINE",
"509 713 LINE",
"193 713 LINE"
);
}
);
width = 704;
}
);
unicode = 016B;
},
{
glyphname = gdotaccent;
layers = (
{
layerId = "CD1C2F27-7B64-400F-B9B0-689659144D44";
paths = (
{
nodes = (
"315 401 LINE",
"656 401 LINE",
"656 93 LINE SMOOTH",
"656 63 OFFCURVE",
"626 26 OFFCURVE",
"581 6 OFFCURVE",
"528 0 OFFCURVE",
"504 0 QCURVE SMOOTH",
"201 0 LINE SMOOTH",
"177 0 OFFCURVE",
"124 6 OFFCURVE",
"79 26 OFFCURVE",
"50 63 OFFCURVE",
"50 93 QCURVE SMOOTH",
"50 587 LINE SMOOTH",
"50 617 OFFCURVE",
"80 654 OFFCURVE",
"125 673 OFFCURVE",
"178 679 OFFCURVE",
"201 679 QCURVE SMOOTH",
"504 679 LINE SMOOTH",
"527 679 OFFCURVE",
"581 673 OFFCURVE",
"626 654 OFFCURVE",
"656 617 OFFCURVE",
"656 587 QCURVE SMOOTH",
"656 432 LINE",
"382 432 LINE",
"382 445 LINE",
"398 451 OFFCURVE",
"429 474 OFFCURVE",
"429 494 QCURVE",
"277 494 LINE",
"277 185 LINE",
"429 185 LINE",
"429 278 LINE",
"391 278 LINE SMOOTH",
"371 278 OFFCURVE",
"342 257 OFFCURVE",
"331 240 QCURVE",
"315 240 LINE"
);
},
{
nodes = (
"370 870 OFFCURVE",
"407 858 OFFCURVE",
"435 837 OFFCURVE",
"454 807 OFFCURVE",
"454 787 QCURVE SMOOTH",
"454 768 OFFCURVE",
"435 738 OFFCURVE",
"407 717 OFFCURVE",
"370 706 OFFCURVE",
"353 706 QCURVE SMOOTH",
"335 706 OFFCURVE",
"299 717 OFFCURVE",
"270 738 OFFCURVE",
"251 768 OFFCURVE",
"251 787 QCURVE SMOOTH",
"251 807 OFFCURVE",
"270 838 OFFCURVE",
"299 859 OFFCURVE",
"335 870 OFFCURVE",
"353 870 QCURVE SMOOTH"
);
}
);
width = 705;
}
);
unicode = 0121;
},
{
glyphname = Gdotaccent;
layers = (
{
layerId = "CD1C2F27-7B64-400F-B9B0-689659144D44";
paths = (
{
nodes = (
"315 401 LINE",
"656 401 LINE",
"656 93 LINE SMOOTH",
"656 63 OFFCURVE",
"626 26 OFFCURVE",
"581 6 OFFCURVE",
"528 0 OFFCURVE",
"504 0 QCURVE SMOOTH",
"201 0 LINE SMOOTH",
"177 0 OFFCURVE",
"124 6 OFFCURVE",
"79 26 OFFCURVE",
"50 63 OFFCURVE",
"50 93 QCURVE SMOOTH",
"50 587 LINE SMOOTH",
"50 617 OFFCURVE",
"80 654 OFFCURVE",
"125 673 OFFCURVE",
"178 679 OFFCURVE",
"201 679 QCURVE SMOOTH",
"504 679 LINE SMOOTH",
"527 679 OFFCURVE",
"581 673 OFFCURVE",
"626 654 OFFCURVE",
"656 617 OFFCURVE",
"656 587 QCURVE SMOOTH",
"656 432 LINE",
"382 432 LINE",
"382 445 LINE",
"398 451 OFFCURVE",
"429 474 OFFCURVE",
"429 494 QCURVE",
"277 494 LINE",
"277 185 LINE",
"429 185 LINE",
"429 278 LINE",
"391 278 LINE SMOOTH",
"371 278 OFFCURVE",
"342 257 OFFCURVE",
"331 240 QCURVE",
"315 240 LINE"
);
},
{
nodes = (
"370 870 OFFCURVE",
"407 858 OFFCURVE",
"435 837 OFFCURVE",
"454 807 OFFCURVE",
"454 787 QCURVE SMOOTH",
"454 768 OFFCURVE",
"435 738 OFFCURVE",
"407 717 OFFCURVE",
"370 706 OFFCURVE",
"353 706 QCURVE SMOOTH",
"335 706 OFFCURVE",
"299 717 OFFCURVE",
"270 738 OFFCURVE",
"251 768 OFFCURVE",
"251 787 QCURVE SMOOTH",
"251 807 OFFCURVE",
"270 838 OFFCURVE",
"299 859 OFFCURVE",
"335 870 OFFCURVE",
"353 870 QCURVE SMOOTH"
);
}
);
width = 705;
}
);
unicode = 0120;
},
{
glyphname = Hcircumflex;
layers = (
{
layerId = "CD1C2F27-7B64-400F-B9B0-689659144D44";
paths = (
{
nodes = (
"338 666 LINE",
"322 660 OFFCURVE",
"292 636 OFFCURVE",
"292 617 QCURVE SMOOTH",
"292 401 LINE",
"444 401 LINE",
"444 617 LINE SMOOTH",
"444 637 OFFCURVE",
"414 660 OFFCURVE",
"398 666 QCURVE",
"398 679 LINE",
"717 679 LINE",
"717 666 LINE",
"701 660 OFFCURVE",
"671 637 OFFCURVE",
"671 617 QCURVE SMOOTH",
"671 61 LINE SMOOTH",
"671 41 OFFCURVE",
"701 19 OFFCURVE",
"717 13 QCURVE",
"717 0 LINE",
"398 0 LINE",
"398 13 LINE",
"414 19 OFFCURVE",
"444 41 OFFCURVE",
"444 61 QCURVE SMOOTH",
"444 278 LINE",
"292 278 LINE",
"292 61 LINE SMOOTH",
"292 42 OFFCURVE",
"323 19 OFFCURVE",
"338 13 QCURVE",
"338 0 LINE",
"19 0 LINE",
"19 13 LINE",
"35 19 OFFCURVE",
"65 41 OFFCURVE",
"65 61 QCURVE SMOOTH",
"65 617 LINE SMOOTH",
"65 637 OFFCURVE",
"35 660 OFFCURVE",
"19 666 QCURVE",
"19 679 LINE",
"338 679 LINE"
);
},
{
nodes = (
"600 716 LINE",
"422 716 LINE",
"370 796 LINE",
"319 716 LINE",
"141 716 LINE",
"244 884 LINE",
"497 884 LINE"
);
}
);
width = 733;
}
);
unicode = 0124;
},
{
glyphname = hcircumflex;
layers = (
{
layerId = "CD1C2F27-7B64-400F-B9B0-689659144D44";
paths = (
{
nodes = (
"338 666 LINE",
"322 660 OFFCURVE",
"292 636 OFFCURVE",
"292 617 QCURVE SMOOTH",
"292 401 LINE",
"444 401 LINE",
"444 617 LINE SMOOTH",
"444 637 OFFCURVE",
"414 660 OFFCURVE",
"398 666 QCURVE",
"398 679 LINE",
"717 679 LINE",
"717 666 LINE",
"701 660 OFFCURVE",
"671 637 OFFCURVE",
"671 617 QCURVE SMOOTH",
"671 61 LINE SMOOTH",
"671 41 OFFCURVE",
"701 19 OFFCURVE",
"717 13 QCURVE",
"717 0 LINE",
"398 0 LINE",
"398 13 LINE",
"414 19 OFFCURVE",
"444 41 OFFCURVE",
"444 61 QCURVE SMOOTH",
"444 278 LINE",
"292 278 LINE",
"292 61 LINE SMOOTH",
"292 42 OFFCURVE",
"323 19 OFFCURVE",
"338 13 QCURVE",
"338 0 LINE",
"19 0 LINE",
"19 13 LINE",
"35 19 OFFCURVE",
"65 41 OFFCURVE",
"65 61 QCURVE SMOOTH",
"65 617 LINE SMOOTH",
"65 637 OFFCURVE",
"35 660 OFFCURVE",
"19 666 QCURVE",
"19 679 LINE",
"338 679 LINE"
);
},
{
nodes = (
"600 716 LINE",
"422 716 LINE",
"370 796 LINE",
"319 716 LINE",
"141 716 LINE",
"244 884 LINE",
"497 884 LINE"
);
}
);
width = 733;
}
);
unicode = 0125;
},
{
glyphname = Hbar;
layers = (
{
layerId = "CD1C2F27-7B64-400F-B9B0-689659144D44";
paths = (
{
nodes = (
"353 666 LINE",
"337 660 OFFCURVE",
"307 636 OFFCURVE",
"307 617 QCURVE SMOOTH",
"307 401 LINE",
"459 401 LINE",
"459 617 LINE SMOOTH",
"459 637 OFFCURVE",
"429 660 OFFCURVE",
"413 666 QCURVE",
"413 679 LINE",
"732 679 LINE",
"732 666 LINE",
"716 660 OFFCURVE",
"686 637 OFFCURVE",
"686 617 QCURVE SMOOTH",
"686 61 LINE SMOOTH",
"686 41 OFFCURVE",
"716 19 OFFCURVE",
"732 13 QCURVE",
"732 0 LINE",
"413 0 LINE",
"413 13 LINE",
"429 19 OFFCURVE",
"459 41 OFFCURVE",
"459 61 QCURVE SMOOTH",
"459 278 LINE",
"307 278 LINE",
"307 61 LINE SMOOTH",
"307 42 OFFCURVE",
"338 19 OFFCURVE",
"353 13 QCURVE",
"353 0 LINE",
"34 0 LINE",
"34 13 LINE",
"50 19 OFFCURVE",
"80 41 OFFCURVE",
"80 61 QCURVE SMOOTH",
"80 617 LINE SMOOTH",
"80 637 OFFCURVE",
"50 660 OFFCURVE",
"34 666 QCURVE",
"34 679 LINE",
"353 679 LINE"
);
},
{
nodes = (
"15 546 LINE",
"738 546 LINE",
"738 455 LINE",
"15 455 LINE"
);
}
);
width = 770;
}
);
unicode = 0126;
},
{
glyphname = hbar;
layers = (
{
layerId = "CD1C2F27-7B64-400F-B9B0-689659144D44";
paths = (
{
nodes = (
"353 666 LINE",
"337 660 OFFCURVE",
"307 636 OFFCURVE",
"307 617 QCURVE SMOOTH",
"307 401 LINE",
"459 401 LINE",
"459 617 LINE SMOOTH",
"459 637 OFFCURVE",
"429 660 OFFCURVE",
"413 666 QCURVE",
"413 679 LINE",
"732 679 LINE",
"732 666 LINE",
"716 660 OFFCURVE",
"686 637 OFFCURVE",
"686 617 QCURVE SMOOTH",
"686 61 LINE SMOOTH",
"686 41 OFFCURVE",
"716 19 OFFCURVE",
"732 13 QCURVE",
"732 0 LINE",
"413 0 LINE",
"413 13 LINE",
"429 19 OFFCURVE",
"459 41 OFFCURVE",
"459 61 QCURVE SMOOTH",
"459 278 LINE",
"307 278 LINE",
"307 61 LINE SMOOTH",
"307 42 OFFCURVE",
"338 19 OFFCURVE",
"353 13 QCURVE",
"353 0 LINE",
"34 0 LINE",
"34 13 LINE",
"50 19 OFFCURVE",
"80 41 OFFCURVE",
"80 61 QCURVE SMOOTH",
"80 617 LINE SMOOTH",
"80 637 OFFCURVE",
"50 660 OFFCURVE",
"34 666 QCURVE",
"34 679 LINE",
"353 679 LINE"
);
},
{
nodes = (
"15 546 LINE",
"738 546 LINE",
"738 455 LINE",
"15 455 LINE"
);
}
);
width = 770;
}
);
unicode = 0127;
},
{
glyphname = itilde;
layers = (
{
layerId = "CD1C2F27-7B64-400F-B9B0-689659144D44";
paths = (
{
nodes = (
"342 679 LINE",
"342 666 LINE",
"326 660 OFFCURVE",
"296 638 OFFCURVE",
"296 618 QCURVE SMOOTH",
"296 62 LINE SMOOTH",
"296 42 OFFCURVE",
"326 20 OFFCURVE",
"342 14 QCURVE",
"342 0 LINE",
"22 0 LINE",
"22 14 LINE",
"38 20 OFFCURVE",
"68 42 OFFCURVE",
"68 62 QCURVE SMOOTH",
"68 618 LINE SMOOTH",
"68 638 OFFCURVE",
"38 660 OFFCURVE",
"22 666 QCURVE",
"22 679 LINE"
);
},
{
nodes = (
"426 833 LINE",
"425 831 OFFCURVE",
"408 801 OFFCURVE",
"392 783 QCURVE SMOOTH",
"382 772 OFFCURVE",
"361 752 OFFCURVE",
"350 744 QCURVE SMOOTH",
"319 722 OFFCURVE",
"285 715 QCURVE",
"252 706 OFFCURVE",
"215 716 QCURVE",
"177 724 OFFCURVE",
"143 750 QCURVE SMOOTH",
"132 758 OFFCURVE",
"120 760 OFFCURVE",
"118 759 QCURVE SMOOTH",
"111 757 OFFCURVE",
"95 746 OFFCURVE",
"87 736 QCURVE",
"77 726 OFFCURVE",
"73 719 QCURVE SMOOTH",
"70 715 OFFCURVE",
"68 711 QCURVE",
"-45 774 LINE",
"-44 776 OFFCURVE",
"-27 804 OFFCURVE",
"-12 822 QCURVE SMOOTH",
"-3 833 OFFCURVE",
"17 851 OFFCURVE",
"28 859 QCURVE SMOOTH",
"60 882 OFFCURVE",
"89 887 QCURVE",
"112 893 OFFCURVE",
"181 886 OFFCURVE",
"220 857 QCURVE SMOOTH",
"236 844 OFFCURVE",
"254 843 OFFCURVE",
"257 844 QCURVE SMOOTH",
"274 847 OFFCURVE",
"295 871 QCURVE SMOOTH",
"301 879 OFFCURVE",
"307 888 QCURVE SMOOTH",
"310 892 OFFCURVE",
"312 896 QCURVE",
"369 863 LINE"
);
}
);
width = 381;
}
);
unicode = 0129;
},
{
glyphname = Ibreve;
layers = (
{
layerId = "CD1C2F27-7B64-400F-B9B0-689659144D44";
paths = (
{
nodes = (
"342 679 LINE",
"342 666 LINE",
"326 660 OFFCURVE",
"296 638 OFFCURVE",
"296 618 QCURVE SMOOTH",
"296 62 LINE SMOOTH",
"296 42 OFFCURVE",
"326 20 OFFCURVE",
"342 14 QCURVE",
"342 0 LINE",
"22 0 LINE",
"22 14 LINE",
"38 20 OFFCURVE",
"68 42 OFFCURVE",
"68 62 QCURVE SMOOTH",
"68 618 LINE SMOOTH",
"68 638 OFFCURVE",
"38 660 OFFCURVE",
"22 666 QCURVE",
"22 679 LINE"
);
},
{
nodes = (
"311 716 LINE",
"58 716 LINE",
"-45 884 LINE",
"133 884 LINE",
"184 804 LINE",
"236 884 LINE",
"414 884 LINE"
);
}
);
width = 359;
}
);
unicode = 012C;
},
{
glyphname = ibreve;
layers = (
{
layerId = "CD1C2F27-7B64-400F-B9B0-689659144D44";
paths = (
{
nodes = (
"342 679 LINE",
"342 666 LINE",
"326 660 OFFCURVE",
"296 638 OFFCURVE",
"296 618 QCURVE SMOOTH",
"296 62 LINE SMOOTH",
"296 42 OFFCURVE",
"326 20 OFFCURVE",
"342 14 QCURVE",
"342 0 LINE",
"22 0 LINE",
"22 14 LINE",
"38 20 OFFCURVE",
"68 42 OFFCURVE",
"68 62 QCURVE SMOOTH",
"68 618 LINE SMOOTH",
"68 638 OFFCURVE",
"38 660 OFFCURVE",
"22 666 QCURVE",
"22 679 LINE"
);
},
{
nodes = (
"311 716 LINE",
"58 716 LINE",
"-45 884 LINE",
"133 884 LINE",
"184 804 LINE",
"236 884 LINE",
"414 884 LINE"
);
}
);
width = 359;
}
);
unicode = 012D;
},
{
glyphname = ij;
layers = (
{
layerId = "CD1C2F27-7B64-400F-B9B0-689659144D44";
paths = (
{
nodes = (
"342 679 LINE",
"342 666 LINE",
"326 660 OFFCURVE",
"296 638 OFFCURVE",
"296 618 QCURVE SMOOTH",
"296 62 LINE SMOOTH",
"296 42 OFFCURVE",
"326 20 OFFCURVE",
"342 14 QCURVE",
"342 0 LINE",
"22 0 LINE",
"22 14 LINE",
"38 20 OFFCURVE",
"68 42 OFFCURVE",
"68 62 QCURVE SMOOTH",
"68 618 LINE SMOOTH",
"68 638 OFFCURVE",
"38 660 OFFCURVE",
"22 666 QCURVE",
"22 679 LINE"
);
},
{
nodes = (
"447 493 LINE SMOOTH",
"427 493 OFFCURVE",
"397 473 OFFCURVE",
"387 456 QCURVE",
"371 456 LINE",
"371 678 LINE",
"944 678 LINE",
"944 92 LINE SMOOTH",
"944 62 OFFCURVE",
"915 25 OFFCURVE",
"870 6 OFFCURVE",
"817 0 OFFCURVE",
"793 0 QCURVE SMOOTH",
"522 0 LINE SMOOTH",
"498 0 OFFCURVE",
"445 6 OFFCURVE",
"400 25 OFFCURVE",
"371 61 OFFCURVE",
"371 92 QCURVE SMOOTH",
"371 246 LINE",
"644 246 LINE",
"644 233 LINE",
"628 227 OFFCURVE",
"598 205 OFFCURVE",
"598 185 QCURVE",
"717 185 LINE",
"717 493 LINE"
);
}
);
width = 978;
}
);
unicode = 0133;
},
{
glyphname = Jcircumflex;
layers = (
{
layerId = "CD1C2F27-7B64-400F-B9B0-689659144D44";
paths = (
{
nodes = (
"124 493 LINE SMOOTH",
"104 493 OFFCURVE",
"74 473 OFFCURVE",
"64 456 QCURVE",
"48 456 LINE",
"48 678 LINE",
"621 678 LINE",
"621 92 LINE SMOOTH",
"621 62 OFFCURVE",
"592 25 OFFCURVE",
"547 6 OFFCURVE",
"494 0 OFFCURVE",
"470 0 QCURVE SMOOTH",
"199 0 LINE SMOOTH",
"175 0 OFFCURVE",
"122 6 OFFCURVE",
"77 25 OFFCURVE",
"48 61 OFFCURVE",
"48 92 QCURVE SMOOTH",
"48 246 LINE",
"321 246 LINE",
"321 233 LINE",
"305 227 OFFCURVE",
"275 205 OFFCURVE",
"275 185 QCURVE",
"394 185 LINE",
"394 493 LINE"
);
},
{
nodes = (
"557 716 LINE",
"379 716 LINE",
"327 796 LINE",
"276 716 LINE",
"98 716 LINE",
"201 884 LINE",
"454 884 LINE"
);
}
);
width = 683;
}
);
unicode = 0134;
},
{
glyphname = jcircumflex;
layers = (
{
layerId = "CD1C2F27-7B64-400F-B9B0-689659144D44";
paths = (
{
nodes = (
"124 493 LINE SMOOTH",
"104 493 OFFCURVE",
"74 473 OFFCURVE",
"64 456 QCURVE",
"48 456 LINE",
"48 678 LINE",
"621 678 LINE",
"621 92 LINE SMOOTH",
"621 62 OFFCURVE",
"592 25 OFFCURVE",
"547 6 OFFCURVE",
"494 0 OFFCURVE",
"470 0 QCURVE SMOOTH",
"199 0 LINE SMOOTH",
"175 0 OFFCURVE",
"122 6 OFFCURVE",
"77 25 OFFCURVE",
"48 61 OFFCURVE",
"48 92 QCURVE SMOOTH",
"48 246 LINE",
"321 246 LINE",
"321 233 LINE",
"305 227 OFFCURVE",
"275 205 OFFCURVE",
"275 185 QCURVE",
"394 185 LINE",
"394 493 LINE"
);
},
{
nodes = (
"557 716 LINE",
"379 716 LINE",
"327 796 LINE",
"276 716 LINE",
"98 716 LINE",
"201 884 LINE",
"454 884 LINE"
);
}
);
width = 683;
}
);
unicode = 0135;
},
{
glyphname = ebreve;
layers = (
{
layerId = "CD1C2F27-7B64-400F-B9B0-689659144D44";
paths = (
{
nodes = (
"445 401 LINE SMOOTH",
"465 401 OFFCURVE",
"495 421 OFFCURVE",
"505 438 QCURVE",
"521 438 LINE",
"521 240 LINE",
"505 240 LINE",
"495 257 OFFCURVE",
"465 278 OFFCURVE",
"445 278 QCURVE SMOOTH",
"294 278 LINE",
"294 185 LINE",
"559 185 LINE SMOOTH",
"579 185 OFFCURVE",
"609 205 OFFCURVE",
"619 222 QCURVE",
"635 222 LINE",
"635 0 LINE",
"21 0 LINE",
"21 13 LINE",
"37 19 OFFCURVE",
"67 41 OFFCURVE",
"67 61 QCURVE SMOOTH",
"67 617 LINE SMOOTH",
"67 637 OFFCURVE",
"37 660 OFFCURVE",
"21 666 QCURVE",
"21 679 LINE",
"635 679 LINE",
"635 456 LINE",
"619 456 LINE",
"609 473 OFFCURVE",
"579 494 OFFCURVE",
"559 494 QCURVE SMOOTH",
"294 494 LINE",
"294 401 LINE"
);
},
{
nodes = (
"551 884 LINE",
"546 846 OFFCURVE",
"512 780 OFFCURVE",
"460 732 OFFCURVE",
"394 704 OFFCURVE",
"357 704 QCURVE SMOOTH",
"319 704 OFFCURVE",
"253 732 OFFCURVE",
"202 780 OFFCURVE",
"168 846 OFFCURVE",
"163 884 QCURVE",
"271 884 LINE",
"279 855 OFFCURVE",
"326 817 OFFCURVE",
"357 817 QCURVE SMOOTH",
"388 817 OFFCURVE",
"434 855 OFFCURVE",
"443 884 QCURVE"
);
}
);
width = 673;
}
);
unicode = 0115;
},
{
glyphname = Ebreve;
layers = (
{
layerId = "CD1C2F27-7B64-400F-B9B0-689659144D44";
paths = (
{
nodes = (
"445 401 LINE SMOOTH",
"465 401 OFFCURVE",
"495 421 OFFCURVE",
"505 438 QCURVE",
"521 438 LINE",
"521 240 LINE",
"505 240 LINE",
"495 257 OFFCURVE",
"465 278 OFFCURVE",
"445 278 QCURVE SMOOTH",
"294 278 LINE",
"294 185 LINE",
"559 185 LINE SMOOTH",
"579 185 OFFCURVE",
"609 205 OFFCURVE",
"619 222 QCURVE",
"635 222 LINE",
"635 0 LINE",
"21 0 LINE",
"21 13 LINE",
"37 19 OFFCURVE",
"67 41 OFFCURVE",
"67 61 QCURVE SMOOTH",
"67 617 LINE SMOOTH",
"67 637 OFFCURVE",
"37 660 OFFCURVE",
"21 666 QCURVE",
"21 679 LINE",
"635 679 LINE",
"635 456 LINE",
"619 456 LINE",
"609 473 OFFCURVE",
"579 494 OFFCURVE",
"559 494 QCURVE SMOOTH",
"294 494 LINE",
"294 401 LINE"
);
},
{
nodes = (
"551 884 LINE",
"546 846 OFFCURVE",
"512 780 OFFCURVE",
"460 732 OFFCURVE",
"394 704 OFFCURVE",
"357 704 QCURVE SMOOTH",
"319 704 OFFCURVE",
"253 732 OFFCURVE",
"202 780 OFFCURVE",
"168 846 OFFCURVE",
"163 884 QCURVE",
"271 884 LINE",
"279 855 OFFCURVE",
"326 817 OFFCURVE",
"357 817 QCURVE SMOOTH",
"388 817 OFFCURVE",
"434 855 OFFCURVE",
"443 884 QCURVE"
);
}
);
width = 673;
}
);
unicode = 0114;
},
{
glyphname = Gcircumflex;
layers = (
{
layerId = "CD1C2F27-7B64-400F-B9B0-689659144D44";
paths = (
{
nodes = (
"315 401 LINE",
"656 401 LINE",
"656 93 LINE SMOOTH",
"656 63 OFFCURVE",
"626 26 OFFCURVE",
"581 6 OFFCURVE",
"528 0 OFFCURVE",
"504 0 QCURVE SMOOTH",
"201 0 LINE SMOOTH",
"177 0 OFFCURVE",
"124 6 OFFCURVE",
"79 26 OFFCURVE",
"50 63 OFFCURVE",
"50 93 QCURVE SMOOTH",
"50 587 LINE SMOOTH",
"50 617 OFFCURVE",
"80 654 OFFCURVE",
"125 673 OFFCURVE",
"178 679 OFFCURVE",
"201 679 QCURVE SMOOTH",
"504 679 LINE SMOOTH",
"527 679 OFFCURVE",
"581 673 OFFCURVE",
"626 654 OFFCURVE",
"656 617 OFFCURVE",
"656 587 QCURVE SMOOTH",
"656 432 LINE",
"382 432 LINE",
"382 445 LINE",
"398 451 OFFCURVE",
"429 474 OFFCURVE",
"429 494 QCURVE",
"277 494 LINE",
"277 185 LINE",
"429 185 LINE",
"429 278 LINE",
"391 278 LINE SMOOTH",
"371 278 OFFCURVE",
"342 257 OFFCURVE",
"331 240 QCURVE",
"315 240 LINE"
);
},
{
nodes = (
"577 716 LINE",
"399 716 LINE",
"347 796 LINE",
"296 716 LINE",
"118 716 LINE",
"221 884 LINE",
"474 884 LINE"
);
}
);
width = 702;
}
);
unicode = 011C;
},
{
glyphname = obreve;
layers = (
{
layerId = "CD1C2F27-7B64-400F-B9B0-689659144D44";
paths = (
{
nodes = (
"654 92 LINE SMOOTH",
"654 62 OFFCURVE",
"624 25 OFFCURVE",
"579 6 OFFCURVE",
"526 0 OFFCURVE",
"502 0 QCURVE SMOOTH",
"199 0 LINE SMOOTH",
"175 0 OFFCURVE",
"122 6 OFFCURVE",
"77 25 OFFCURVE",
"48 62 OFFCURVE",
"48 92 QCURVE SMOOTH",
"48 586 LINE SMOOTH",
"48 616 OFFCURVE",
"77 653 OFFCURVE",
"122 672 OFFCURVE",
"175 678 OFFCURVE",
"199 678 QCURVE SMOOTH",
"502 678 LINE SMOOTH",
"526 678 OFFCURVE",
"579 672 OFFCURVE",
"624 653 OFFCURVE",
"654 616 OFFCURVE",
"654 586 QCURVE SMOOTH"
);
},
{
nodes = (
"426 185 LINE",
"426 493 LINE",
"275 493 LINE",
"275 185 LINE"
);
},
{
nodes = (
"535 884 LINE",
"530 846 OFFCURVE",
"496 780 OFFCURVE",
"444 732 OFFCURVE",
"378 704 OFFCURVE",
"341 704 QCURVE SMOOTH",
"303 704 OFFCURVE",
"237 732 OFFCURVE",
"186 780 OFFCURVE",
"152 846 OFFCURVE",
"147 884 QCURVE",
"255 884 LINE",
"263 855 OFFCURVE",
"310 817 OFFCURVE",
"341 817 QCURVE SMOOTH",
"372 817 OFFCURVE",
"418 855 OFFCURVE",
"427 884 QCURVE"
);
}
);
width = 700;
}
);
unicode = 014F;
},
{
glyphname = utilde;
layers = (
{
layerId = "CD1C2F27-7B64-400F-B9B0-689659144D44";
paths = (
{
nodes = (
"331 679 LINE",
"331 666 LINE",
"315 660 OFFCURVE",
"285 637 OFFCURVE",
"285 617 QCURVE SMOOTH",
"285 185 LINE",
"413 185 LINE",
"413 617 LINE SMOOTH",
"413 637 OFFCURVE",
"383 660 OFFCURVE",
"367 666 QCURVE",
"367 679 LINE",
"687 679 LINE",
"687 666 LINE",
"671 660 OFFCURVE",
"640 637 OFFCURVE",
"640 617 QCURVE SMOOTH",
"640 97 LINE SMOOTH",
"640 67 OFFCURVE",
"611 29 OFFCURVE",
"566 8 OFFCURVE",
"513 0 OFFCURVE",
"489 0 QCURVE SMOOTH",
"209 0 LINE SMOOTH",
"185 0 OFFCURVE",
"131 8 OFFCURVE",
"87 30 OFFCURVE",
"58 68 OFFCURVE",
"58 99 QCURVE SMOOTH",
"58 617 LINE SMOOTH",
"58 636 OFFCURVE",
"28 660 OFFCURVE",
"12 666 QCURVE",
"12 679 LINE"
);
},
{
nodes = (
"583 829 LINE",
"582 827 OFFCURVE",
"565 797 OFFCURVE",
"549 779 QCURVE SMOOTH",
"539 768 OFFCURVE",
"518 748 OFFCURVE",
"507 740 QCURVE SMOOTH",
"476 718 OFFCURVE",
"442 711 QCURVE",
"409 702 OFFCURVE",
"372 712 QCURVE",
"334 720 OFFCURVE",
"300 746 QCURVE SMOOTH",
"289 754 OFFCURVE",
"277 756 OFFCURVE",
"275 755 QCURVE SMOOTH",
"268 753 OFFCURVE",
"252 742 OFFCURVE",
"244 732 QCURVE",
"234 722 OFFCURVE",
"230 715 QCURVE SMOOTH",
"227 711 OFFCURVE",
"225 707 QCURVE",
"112 770 LINE",
"113 772 OFFCURVE",
"130 800 OFFCURVE",
"145 818 QCURVE SMOOTH",
"154 829 OFFCURVE",
"174 847 OFFCURVE",
"185 855 QCURVE SMOOTH",
"217 878 OFFCURVE",
"246 883 QCURVE",
"269 889 OFFCURVE",
"338 882 OFFCURVE",
"377 853 QCURVE SMOOTH",
"393 840 OFFCURVE",
"411 839 OFFCURVE",
"414 840 QCURVE SMOOTH",
"431 843 OFFCURVE",
"452 867 QCURVE SMOOTH",
"458 875 OFFCURVE",
"464 884 QCURVE SMOOTH",
"467 888 OFFCURVE",
"469 892 QCURVE",
"526 859 LINE"
);
}
);
width = 704;
}
);
unicode = 0169;
},
{
glyphname = Utilde;
layers = (
{
layerId = "CD1C2F27-7B64-400F-B9B0-689659144D44";
paths = (
{
nodes = (
"331 679 LINE",
"331 666 LINE",
"315 660 OFFCURVE",
"285 637 OFFCURVE",
"285 617 QCURVE SMOOTH",
"285 185 LINE",
"413 185 LINE",
"413 617 LINE SMOOTH",
"413 637 OFFCURVE",
"383 660 OFFCURVE",
"367 666 QCURVE",
"367 679 LINE",
"687 679 LINE",
"687 666 LINE",
"671 660 OFFCURVE",
"640 637 OFFCURVE",
"640 617 QCURVE SMOOTH",
"640 97 LINE SMOOTH",
"640 67 OFFCURVE",
"611 29 OFFCURVE",
"566 8 OFFCURVE",
"513 0 OFFCURVE",
"489 0 QCURVE SMOOTH",
"209 0 LINE SMOOTH",
"185 0 OFFCURVE",
"131 8 OFFCURVE",
"87 30 OFFCURVE",
"58 68 OFFCURVE",
"58 99 QCURVE SMOOTH",
"58 617 LINE SMOOTH",
"58 636 OFFCURVE",
"28 660 OFFCURVE",
"12 666 QCURVE",
"12 679 LINE"
);
},
{
nodes = (
"583 829 LINE",
"582 827 OFFCURVE",
"565 797 OFFCURVE",
"549 779 QCURVE SMOOTH",
"539 768 OFFCURVE",
"518 748 OFFCURVE",
"507 740 QCURVE SMOOTH",
"476 718 OFFCURVE",
"442 711 QCURVE",
"409 702 OFFCURVE",
"372 712 QCURVE",
"334 720 OFFCURVE",
"300 746 QCURVE SMOOTH",
"289 754 OFFCURVE",
"277 756 OFFCURVE",
"275 755 QCURVE SMOOTH",
"268 753 OFFCURVE",
"252 742 OFFCURVE",
"244 732 QCURVE",
"234 722 OFFCURVE",
"230 715 QCURVE SMOOTH",
"227 711 OFFCURVE",
"225 707 QCURVE",
"112 770 LINE",
"113 772 OFFCURVE",
"130 800 OFFCURVE",
"145 818 QCURVE SMOOTH",
"154 829 OFFCURVE",
"174 847 OFFCURVE",
"185 855 QCURVE SMOOTH",
"217 878 OFFCURVE",
"246 883 QCURVE",
"269 889 OFFCURVE",
"338 882 OFFCURVE",
"377 853 QCURVE SMOOTH",
"393 840 OFFCURVE",
"411 839 OFFCURVE",
"414 840 QCURVE SMOOTH",
"431 843 OFFCURVE",
"452 867 QCURVE SMOOTH",
"458 875 OFFCURVE",
"464 884 QCURVE SMOOTH",
"467 888 OFFCURVE",
"469 892 QCURVE",
"526 859 LINE"
);
}
);
width = 704;
}
);
unicode = 0168;
},
{
glyphname = uni021B;
layers = (
{
layerId = "CD1C2F27-7B64-400F-B9B0-689659144D44";
paths = (
{
nodes = (
"19 679 LINE",
"544 679 LINE",
"544 456 LINE",
"528 456 LINE",
"518 473 OFFCURVE",
"489 494 OFFCURVE",
"469 494 QCURVE SMOOTH",
"396 494 LINE",
"396 62 LINE SMOOTH",
"396 42 OFFCURVE",
"425 19 OFFCURVE",
"442 13 QCURVE",
"442 0 LINE",
"123 0 LINE",
"123 13 LINE",
"139 19 OFFCURVE",
"169 42 OFFCURVE",
"169 62 QCURVE SMOOTH",
"169 494 LINE",
"95 494 LINE SMOOTH",
"75 494 OFFCURVE",
"46 473 OFFCURVE",
"36 456 QCURVE",
"19 456 LINE"
);
},
{
nodes = (
"234 -203 LINE",
"204 -194 OFFCURVE",
"158 -149 OFFCURVE",
"158 -116 QCURVE SMOOTH",
"158 -94 OFFCURVE",
"178 -59 OFFCURVE",
"211 -35 OFFCURVE",
"251 -23 OFFCURVE",
"271 -23 QCURVE SMOOTH",
"291 -23 OFFCURVE",
"331 -35 OFFCURVE",
"364 -59 OFFCURVE",
"385 -94 OFFCURVE",
"385 -116 QCURVE SMOOTH",
"385 -143 OFFCURVE",
"367 -189 OFFCURVE",
"335 -227 OFFCURVE",
"294 -258 OFFCURVE",
"272 -270 QCURVE",
"234 -270 LINE"
);
}
);
width = 565;
}
);
unicode = 021B;
},
{
glyphname = uni021A;
layers = (
{
layerId = "CD1C2F27-7B64-400F-B9B0-689659144D44";
paths = (
{
nodes = (
"19 679 LINE",
"544 679 LINE",
"544 456 LINE",
"528 456 LINE",
"518 473 OFFCURVE",
"489 494 OFFCURVE",
"469 494 QCURVE SMOOTH",
"396 494 LINE",
"396 62 LINE SMOOTH",
"396 42 OFFCURVE",
"425 19 OFFCURVE",
"442 13 QCURVE",
"442 0 LINE",
"123 0 LINE",
"123 13 LINE",
"139 19 OFFCURVE",
"169 42 OFFCURVE",
"169 62 QCURVE SMOOTH",
"169 494 LINE",
"95 494 LINE SMOOTH",
"75 494 OFFCURVE",
"46 473 OFFCURVE",
"36 456 QCURVE",
"19 456 LINE"
);
},
{
nodes = (
"234 -203 LINE",
"204 -194 OFFCURVE",
"158 -149 OFFCURVE",
"158 -116 QCURVE SMOOTH",
"158 -94 OFFCURVE",
"178 -59 OFFCURVE",
"211 -35 OFFCURVE",
"251 -23 OFFCURVE",
"271 -23 QCURVE SMOOTH",
"291 -23 OFFCURVE",
"331 -35 OFFCURVE",
"364 -59 OFFCURVE",
"385 -94 OFFCURVE",
"385 -116 QCURVE SMOOTH",
"385 -143 OFFCURVE",
"367 -189 OFFCURVE",
"335 -227 OFFCURVE",
"294 -258 OFFCURVE",
"272 -270 QCURVE",
"234 -270 LINE"
);
}
);
width = 565;
}
);
unicode = 021A;
},
{
glyphname = tbar;
layers = (
{
layerId = "CD1C2F27-7B64-400F-B9B0-689659144D44";
paths = (
{
nodes = (
"19 679 LINE",
"544 679 LINE",
"544 456 LINE",
"528 456 LINE",
"518 473 OFFCURVE",
"489 494 OFFCURVE",
"469 494 QCURVE SMOOTH",
"396 494 LINE",
"396 62 LINE SMOOTH",
"396 42 OFFCURVE",
"425 19 OFFCURVE",
"442 13 QCURVE",
"442 0 LINE",
"123 0 LINE",
"123 13 LINE",
"139 19 OFFCURVE",
"169 42 OFFCURVE",
"169 62 QCURVE SMOOTH",
"169 494 LINE",
"95 494 LINE SMOOTH",
"75 494 OFFCURVE",
"46 473 OFFCURVE",
"36 456 QCURVE",
"19 456 LINE"
);
},
{
nodes = (
"27 358 LINE",
"545 358 LINE",
"545 190 LINE",
"27 190 LINE"
);
}
);
width = 565;
}
);
unicode = 0167;
},
{
glyphname = Tbar;
layers = (
{
layerId = "CD1C2F27-7B64-400F-B9B0-689659144D44";
paths = (
{
nodes = (
"19 679 LINE",
"544 679 LINE",
"544 456 LINE",
"528 456 LINE",
"518 473 OFFCURVE",
"489 494 OFFCURVE",
"469 494 QCURVE SMOOTH",
"396 494 LINE",
"396 62 LINE SMOOTH",
"396 42 OFFCURVE",
"425 19 OFFCURVE",
"442 13 QCURVE",
"442 0 LINE",
"123 0 LINE",
"123 13 LINE",
"139 19 OFFCURVE",
"169 42 OFFCURVE",
"169 62 QCURVE SMOOTH",
"169 494 LINE",
"95 494 LINE SMOOTH",
"75 494 OFFCURVE",
"46 473 OFFCURVE",
"36 456 QCURVE",
"19 456 LINE"
);
},
{
nodes = (
"27 358 LINE",
"545 358 LINE",
"545 190 LINE",
"27 190 LINE"
);
}
);
width = 565;
}
);
unicode = 0166;
},
{
glyphname = florin;
layers = (
{
layerId = "CD1C2F27-7B64-400F-B9B0-689659144D44";
paths = (
{
nodes = (
"342 -86 LINE",
"342 0 LINE",
"284 0 LINE",
"284 -86 LINE",
"157 -86 LINE",
"157 0 LINE",
"18 0 LINE",
"18 13 LINE",
"34 19 OFFCURVE",
"64 42 OFFCURVE",
"64 62 QCURVE SMOOTH",
"64 617 LINE SMOOTH",
"64 637 OFFCURVE",
"34 660 OFFCURVE",
"18 666 QCURVE",
"18 679 LINE",
"157 679 LINE",
"157 740 LINE",
"284 740 LINE",
"284 679 LINE",
"342 679 LINE",
"342 740 LINE",
"469 740 LINE",
"469 679 LINE",
"475 679 LINE SMOOTH",
"498 679 OFFCURVE",
"552 673 OFFCURVE",
"597 654 OFFCURVE",
"627 617 OFFCURVE",
"627 587 QCURVE SMOOTH",
"627 432 LINE SMOOTH",
"627 405 OFFCURVE",
"609 370 OFFCURVE",
"578 349 OFFCURVE",
"557 344 QCURVE SMOOTH",
"541 341 OFFCURVE",
"524 340 QCURVE",
"542 339 OFFCURVE",
"558 335 QCURVE",
"579 331 OFFCURVE",
"609 309 OFFCURVE",
"627 274 OFFCURVE",
"627 247 QCURVE SMOOTH",
"627 93 LINE SMOOTH",
"627 63 OFFCURVE",
"597 26 OFFCURVE",
"552 6 OFFCURVE",
"499 0 OFFCURVE",
"475 0 QCURVE SMOOTH",
"469 0 LINE",
"469 -86 LINE"
);
},
{
nodes = (
"399 401 LINE",
"399 494 LINE",
"291 494 LINE",
"291 401 LINE"
);
},
{
nodes = (
"399 186 LINE",
"399 278 LINE",
"291 278 LINE",
"291 186 LINE"
);
}
);
width = 668;
}
);
unicode = 0192;
},
{
glyphname = kgreenlandic;
layers = (
{
layerId = "CD1C2F27-7B64-400F-B9B0-689659144D44";
paths = (
{
nodes = (
"339 666 LINE",
"323 660 OFFCURVE",
"293 637 OFFCURVE",
"293 617 QCURVE SMOOTH",
"293 401 LINE",
"445 401 LINE",
"445 617 LINE SMOOTH",
"445 637 OFFCURVE",
"414 660 OFFCURVE",
"398 666 QCURVE",
"398 679 LINE",
"718 679 LINE",
"718 666 LINE",
"701 660 OFFCURVE",
"672 637 OFFCURVE",
"672 617 QCURVE SMOOTH",
"672 489 LINE SMOOTH",
"672 464 OFFCURVE",
"653 411 OFFCURVE",
"620 368 OFFCURVE",
"574 340 OFFCURVE",
"547 340 QCURVE",
"575 340 OFFCURVE",
"621 308 OFFCURVE",
"654 260 OFFCURVE",
"672 203 OFFCURVE",
"672 179 QCURVE SMOOTH",
"672 62 LINE SMOOTH",
"672 42 OFFCURVE",
"701 19 OFFCURVE",
"718 13 QCURVE",
"718 0 LINE",
"398 0 LINE",
"398 13 LINE",
"414 19 OFFCURVE",
"445 42 OFFCURVE",
"445 62 QCURVE SMOOTH",
"445 278 LINE",
"293 278 LINE",
"293 62 LINE SMOOTH",
"293 42 OFFCURVE",
"323 19 OFFCURVE",
"339 13 QCURVE",
"339 0 LINE",
"20 0 LINE",
"20 13 LINE",
"37 19 OFFCURVE",
"66 42 OFFCURVE",
"66 62 QCURVE SMOOTH",
"66 617 LINE SMOOTH",
"66 637 OFFCURVE",
"37 660 OFFCURVE",
"20 666 QCURVE",
"20 679 LINE",
"339 679 LINE"
);
}
);
width = 738;
}
);
unicode = 0138;
},
{
glyphname = cdotaccent;
layers = (
{
layerId = "CD1C2F27-7B64-400F-B9B0-689659144D44";
paths = (
{
nodes = (
"618 247 LINE",
"618 93 LINE SMOOTH",
"618 63 OFFCURVE",
"589 26 OFFCURVE",
"544 6 OFFCURVE",
"491 0 OFFCURVE",
"467 0 QCURVE SMOOTH",
"203 0 LINE SMOOTH",
"179 0 OFFCURVE",
"126 6 OFFCURVE",
"81 26 OFFCURVE",
"52 63 OFFCURVE",
"52 93 QCURVE SMOOTH",
"52 586 LINE SMOOTH",
"52 616 OFFCURVE",
"81 653 OFFCURVE",
"126 673 OFFCURVE",
"179 679 OFFCURVE",
"203 679 QCURVE SMOOTH",
"467 679 LINE SMOOTH",
"491 679 OFFCURVE",
"544 673 OFFCURVE",
"589 653 OFFCURVE",
"618 616 OFFCURVE",
"618 586 QCURVE SMOOTH",
"618 432 LINE",
"354 432 LINE",
"354 445 LINE",
"371 451 OFFCURVE",
"400 474 OFFCURVE",
"400 494 QCURVE",
"279 494 LINE",
"279 185 LINE",
"400 185 LINE",
"400 205 OFFCURVE",
"371 228 OFFCURVE",
"354 234 QCURVE",
"354 247 LINE"
);
},
{
nodes = (
"350 870 OFFCURVE",
"387 858 OFFCURVE",
"415 837 OFFCURVE",
"434 807 OFFCURVE",
"434 787 QCURVE SMOOTH",
"434 768 OFFCURVE",
"415 738 OFFCURVE",
"387 717 OFFCURVE",
"350 706 OFFCURVE",
"333 706 QCURVE SMOOTH",
"315 706 OFFCURVE",
"279 717 OFFCURVE",
"250 738 OFFCURVE",
"231 768 OFFCURVE",
"231 787 QCURVE SMOOTH",
"231 807 OFFCURVE",
"250 838 OFFCURVE",
"279 859 OFFCURVE",
"315 870 OFFCURVE",
"333 870 QCURVE SMOOTH"
);
}
);
width = 670;
}
);
unicode = 010B;
},
{
glyphname = Cdotaccent;
layers = (
{
layerId = "CD1C2F27-7B64-400F-B9B0-689659144D44";
paths = (
{
nodes = (
"618 247 LINE",
"618 93 LINE SMOOTH",
"618 63 OFFCURVE",
"589 26 OFFCURVE",
"544 6 OFFCURVE",
"491 0 OFFCURVE",
"467 0 QCURVE SMOOTH",
"203 0 LINE SMOOTH",
"179 0 OFFCURVE",
"126 6 OFFCURVE",
"81 26 OFFCURVE",
"52 63 OFFCURVE",
"52 93 QCURVE SMOOTH",
"52 586 LINE SMOOTH",
"52 616 OFFCURVE",
"81 653 OFFCURVE",
"126 673 OFFCURVE",
"179 679 OFFCURVE",
"203 679 QCURVE SMOOTH",
"467 679 LINE SMOOTH",
"491 679 OFFCURVE",
"544 673 OFFCURVE",
"589 653 OFFCURVE",
"618 616 OFFCURVE",
"618 586 QCURVE SMOOTH",
"618 432 LINE",
"354 432 LINE",
"354 445 LINE",
"371 451 OFFCURVE",
"400 474 OFFCURVE",
"400 494 QCURVE",
"279 494 LINE",
"279 185 LINE",
"400 185 LINE",
"400 205 OFFCURVE",
"371 228 OFFCURVE",
"354 234 QCURVE",
"354 247 LINE"
);
},
{
nodes = (
"350 870 OFFCURVE",
"387 858 OFFCURVE",
"415 837 OFFCURVE",
"434 807 OFFCURVE",
"434 787 QCURVE SMOOTH",
"434 768 OFFCURVE",
"415 738 OFFCURVE",
"387 717 OFFCURVE",
"350 706 OFFCURVE",
"333 706 QCURVE SMOOTH",
"315 706 OFFCURVE",
"279 717 OFFCURVE",
"250 738 OFFCURVE",
"231 768 OFFCURVE",
"231 787 QCURVE SMOOTH",
"231 807 OFFCURVE",
"250 838 OFFCURVE",
"279 859 OFFCURVE",
"315 870 OFFCURVE",
"333 870 QCURVE SMOOTH"
);
}
);
width = 670;
}
);
unicode = 010A;
},
{
glyphname = ccircumflex;
layers = (
{
layerId = "CD1C2F27-7B64-400F-B9B0-689659144D44";
paths = (
{
nodes = (
"618 247 LINE",
"618 93 LINE SMOOTH",
"618 63 OFFCURVE",
"589 26 OFFCURVE",
"544 6 OFFCURVE",
"491 0 OFFCURVE",
"467 0 QCURVE SMOOTH",
"203 0 LINE SMOOTH",
"179 0 OFFCURVE",
"126 6 OFFCURVE",
"81 26 OFFCURVE",
"52 63 OFFCURVE",
"52 93 QCURVE SMOOTH",
"52 586 LINE SMOOTH",
"52 616 OFFCURVE",
"81 653 OFFCURVE",
"126 673 OFFCURVE",
"179 679 OFFCURVE",
"203 679 QCURVE SMOOTH",
"467 679 LINE SMOOTH",
"491 679 OFFCURVE",
"544 673 OFFCURVE",
"589 653 OFFCURVE",
"618 616 OFFCURVE",
"618 586 QCURVE SMOOTH",
"618 432 LINE",
"354 432 LINE",
"354 445 LINE",
"371 451 OFFCURVE",
"400 474 OFFCURVE",
"400 494 QCURVE",
"279 494 LINE",
"279 185 LINE",
"400 185 LINE",
"400 205 OFFCURVE",
"371 228 OFFCURVE",
"354 234 QCURVE",
"354 247 LINE"
);
},
{
nodes = (
"563 716 LINE",
"385 716 LINE",
"333 796 LINE",
"282 716 LINE",
"104 716 LINE",
"207 884 LINE",
"460 884 LINE"
);
}
);
width = 670;
}
);
unicode = 0109;
},
{
glyphname = Ccircumflex;
layers = (
{
layerId = "CD1C2F27-7B64-400F-B9B0-689659144D44";
paths = (
{
nodes = (
"618 247 LINE",
"618 93 LINE SMOOTH",
"618 63 OFFCURVE",
"589 26 OFFCURVE",
"544 6 OFFCURVE",
"491 0 OFFCURVE",
"467 0 QCURVE SMOOTH",
"203 0 LINE SMOOTH",
"179 0 OFFCURVE",
"126 6 OFFCURVE",
"81 26 OFFCURVE",
"52 63 OFFCURVE",
"52 93 QCURVE SMOOTH",
"52 586 LINE SMOOTH",
"52 616 OFFCURVE",
"81 653 OFFCURVE",
"126 673 OFFCURVE",
"179 679 OFFCURVE",
"203 679 QCURVE SMOOTH",
"467 679 LINE SMOOTH",
"491 679 OFFCURVE",
"544 673 OFFCURVE",
"589 653 OFFCURVE",
"618 616 OFFCURVE",
"618 586 QCURVE SMOOTH",
"618 432 LINE",
"354 432 LINE",
"354 445 LINE",
"371 451 OFFCURVE",
"400 474 OFFCURVE",
"400 494 QCURVE",
"279 494 LINE",
"279 185 LINE",
"400 185 LINE",
"400 205 OFFCURVE",
"371 228 OFFCURVE",
"354 234 QCURVE",
"354 247 LINE"
);
},
{
nodes = (
"563 716 LINE",
"385 716 LINE",
"333 796 LINE",
"282 716 LINE",
"104 716 LINE",
"207 884 LINE",
"460 884 LINE"
);
}
);
width = 670;
}
);
unicode = 0108;
},
{
glyphname = napostrophe;
layers = (
{
layerId = "CD1C2F27-7B64-400F-B9B0-689659144D44";
paths = (
{
nodes = (
"241 13 LINE",
"258 19 OFFCURVE",
"287 42 OFFCURVE",
"287 62 QCURVE SMOOTH",
"287 617 LINE SMOOTH",
"287 637 OFFCURVE",
"258 660 OFFCURVE",
"241 666 QCURVE",
"241 679 LINE",
"560 679 LINE",
"560 666 LINE",
"544 660 OFFCURVE",
"514 637 OFFCURVE",
"514 617 QCURVE SMOOTH",
"514 494 LINE",
"666 344 LINE",
"666 617 LINE SMOOTH",
"666 637 OFFCURVE",
"637 660 OFFCURVE",
"620 666 QCURVE",
"620 679 LINE",
"939 679 LINE",
"939 666 LINE",
"922 660 OFFCURVE",
"893 637 OFFCURVE",
"893 617 QCURVE SMOOTH",
"893 62 LINE SMOOTH",
"893 42 OFFCURVE",
"922 19 OFFCURVE",
"939 13 QCURVE",
"939 0 LINE",
"620 0 LINE",
"620 13 LINE",
"637 19 OFFCURVE",
"666 42 OFFCURVE",
"666 62 QCURVE SMOOTH",
"666 150 LINE",
"514 300 LINE",
"514 62 LINE SMOOTH",
"514 42 OFFCURVE",
"544 19 OFFCURVE",
"560 13 QCURVE",
"560 0 LINE",
"241 0 LINE"
);
},
{
nodes = (
"100 498 LINE",
"70 507 OFFCURVE",
"24 552 OFFCURVE",
"24 585 QCURVE SMOOTH",
"24 607 OFFCURVE",
"44 642 OFFCURVE",
"77 666 OFFCURVE",
"117 678 OFFCURVE",
"137 678 QCURVE SMOOTH",
"157 678 OFFCURVE",
"197 666 OFFCURVE",
"230 642 OFFCURVE",
"251 607 OFFCURVE",
"251 585 QCURVE SMOOTH",
"251 558 OFFCURVE",
"233 512 OFFCURVE",
"201 474 OFFCURVE",
"160 443 OFFCURVE",
"138 431 QCURVE",
"100 431 LINE"
);
}
);
width = 960;
}
);
unicode = 0149;
},
{
glyphname = rcommaaccent;
layers = (
{
layerId = "CD1C2F27-7B64-400F-B9B0-689659144D44";
paths = (
{
nodes = (
"15 678 LINE",
"493 678 LINE SMOOTH",
"520 678 OFFCURVE",
"573 666 OFFCURVE",
"617 640 OFFCURVE",
"644 597 OFFCURVE",
"644 566 QCURVE SMOOTH",
"644 455 LINE SMOOTH",
"644 429 OFFCURVE",
"624 386 OFFCURVE",
"589 356 OFFCURVE",
"544 339 OFFCURVE",
"519 339 QCURVE",
"544 339 OFFCURVE",
"590 321 OFFCURVE",
"624 289 OFFCURVE",
"644 245 OFFCURVE",
"644 219 QCURVE SMOOTH",
"644 189 LINE",
"644 61 LINE SMOOTH",
"644 41 OFFCURVE",
"675 18 OFFCURVE",
"691 13 QCURVE",
"691 0 LINE",
"371 0 LINE",
"371 13 LINE",
"387 19 OFFCURVE",
"417 41 OFFCURVE",
"417 61 QCURVE SMOOTH",
"417 277 LINE",
"288 277 LINE",
"288 61 LINE SMOOTH",
"288 41 OFFCURVE",
"318 19 OFFCURVE",
"334 13 QCURVE",
"334 0 LINE",
"15 0 LINE",
"15 13 LINE",
"31 19 OFFCURVE",
"61 42 OFFCURVE",
"61 61 QCURVE SMOOTH",
"61 617 LINE SMOOTH",
"61 636 OFFCURVE",
"30 659 OFFCURVE",
"15 665 QCURVE"
);
},
{
nodes = (
"417 401 LINE",
"417 493 LINE",
"288 493 LINE",
"288 401 LINE"
);
},
{
nodes = (
"315 -203 LINE",
"285 -194 OFFCURVE",
"239 -149 OFFCURVE",
"239 -116 QCURVE SMOOTH",
"239 -94 OFFCURVE",
"259 -59 OFFCURVE",
"292 -35 OFFCURVE",
"332 -23 OFFCURVE",
"352 -23 QCURVE SMOOTH",
"372 -23 OFFCURVE",
"412 -35 OFFCURVE",
"445 -59 OFFCURVE",
"466 -94 OFFCURVE",
"466 -116 QCURVE SMOOTH",
"466 -143 OFFCURVE",
"448 -189 OFFCURVE",
"416 -227 OFFCURVE",
"375 -258 OFFCURVE",
"353 -270 QCURVE",
"315 -270 LINE"
);
}
);
width = 685;
}
);
unicode = 0157;
},
{
glyphname = Wgrave;
layers = (
{
layerId = "CD1C2F27-7B64-400F-B9B0-689659144D44";
paths = (
{
nodes = (
"1084 679 LINE",
"1084 666 LINE",
"1062 657 OFFCURVE",
"1042 637 OFFCURVE",
"1036 611 OFFCURVE",
"1038 578 OFFCURVE",
"1038 556 QCURVE SMOOTH",
"1038 326 LINE SMOOTH",
"1038 278 OFFCURVE",
"1010 236 QCURVE SMOOTH",
"1005 229 OFFCURVE",
"984 199 OFFCURVE",
"956 159 OFFCURVE",
"926 116 OFFCURVE",
"902 78 OFFCURVE",
"886 49 OFFCURVE",
"886 45 QCURVE SMOOTH",
"886 32 OFFCURVE",
"908 17 OFFCURVE",
"919 13 QCURVE",
"919 0 LINE",
"552 0 LINE",
"552 13 LINE",
"563 17 OFFCURVE",
"585 32 OFFCURVE",
"585 45 QCURVE SMOOTH",
"585 51 OFFCURVE",
"576 70 OFFCURVE",
"563 89 OFFCURVE",
"550 106 OFFCURVE",
"546 111 QCURVE",
"542 106 OFFCURVE",
"529 89 OFFCURVE",
"516 70 OFFCURVE",
"507 51 OFFCURVE",
"507 45 QCURVE SMOOTH",
"507 32 OFFCURVE",
"529 17 OFFCURVE",
"540 13 QCURVE",
"540 0 LINE",
"174 0 LINE",
"174 13 LINE",
"184 17 OFFCURVE",
"207 32 OFFCURVE",
"207 45 QCURVE SMOOTH",
"207 51 OFFCURVE",
"173 105 OFFCURVE",
"130 169 OFFCURVE",
"89 226 OFFCURVE",
"83 236 QCURVE SMOOTH",
"69 257 OFFCURVE",
"54 300 OFFCURVE",
"54 326 QCURVE SMOOTH",
"54 556 LINE SMOOTH",
"54 578 OFFCURVE",
"56 611 OFFCURVE",
"50 637 OFFCURVE",
"30 657 OFFCURVE",
"8 666 QCURVE",
"8 679 LINE",
"327 679 LINE",
"327 666 LINE",
"310 660 OFFCURVE",
"281 637 OFFCURVE",
"281 617 QCURVE SMOOTH",
"281 357 LINE SMOOTH",
"281 334 OFFCURVE",
"295 292 OFFCURVE",
"317 253 OFFCURVE",
"344 216 OFFCURVE",
"357 198 QCURVE",
"370 217 OFFCURVE",
"396 253 OFFCURVE",
"418 292 OFFCURVE",
"432 333 OFFCURVE",
"432 357 QCURVE SMOOTH",
"432 617 LINE SMOOTH",
"432 637 OFFCURVE",
"403 659 OFFCURVE",
"387 666 QCURVE",
"387 679 LINE",
"706 679 LINE",
"706 666 LINE",
"689 660 OFFCURVE",
"660 637 OFFCURVE",
"660 617 QCURVE SMOOTH",
"660 357 LINE SMOOTH",
"660 333 OFFCURVE",
"674 291 OFFCURVE",
"696 253 OFFCURVE",
"722 217 OFFCURVE",
"735 198 QCURVE",
"748 217 OFFCURVE",
"775 254 OFFCURVE",
"797 292 OFFCURVE",
"811 333 OFFCURVE",
"811 357 QCURVE SMOOTH",
"811 617 LINE SMOOTH",
"811 637 OFFCURVE",
"782 660 OFFCURVE",
"765 666 QCURVE",
"765 679 LINE"
);
},
{
nodes = (
"360 884 LINE",
"538 884 LINE",
"646 716 LINE",
"463 716 LINE"
);
}
);
width = 1091;
}
);
unicode = 1E80;
},
{
glyphname = wgrave;
layers = (
{
layerId = "CD1C2F27-7B64-400F-B9B0-689659144D44";
paths = (
{
nodes = (
"1084 679 LINE",
"1084 666 LINE",
"1062 657 OFFCURVE",
"1042 637 OFFCURVE",
"1036 611 OFFCURVE",
"1038 578 OFFCURVE",
"1038 556 QCURVE SMOOTH",
"1038 326 LINE SMOOTH",
"1038 278 OFFCURVE",
"1010 236 QCURVE SMOOTH",
"1005 229 OFFCURVE",
"984 199 OFFCURVE",
"956 159 OFFCURVE",
"926 116 OFFCURVE",
"902 78 OFFCURVE",
"886 49 OFFCURVE",
"886 45 QCURVE SMOOTH",
"886 32 OFFCURVE",
"908 17 OFFCURVE",
"919 13 QCURVE",
"919 0 LINE",
"552 0 LINE",
"552 13 LINE",
"563 17 OFFCURVE",
"585 32 OFFCURVE",
"585 45 QCURVE SMOOTH",
"585 51 OFFCURVE",
"576 70 OFFCURVE",
"563 89 OFFCURVE",
"550 106 OFFCURVE",
"546 111 QCURVE",
"542 106 OFFCURVE",
"529 89 OFFCURVE",
"516 70 OFFCURVE",
"507 51 OFFCURVE",
"507 45 QCURVE SMOOTH",
"507 32 OFFCURVE",
"529 17 OFFCURVE",
"540 13 QCURVE",
"540 0 LINE",
"174 0 LINE",
"174 13 LINE",
"184 17 OFFCURVE",
"207 32 OFFCURVE",
"207 45 QCURVE SMOOTH",
"207 51 OFFCURVE",
"173 105 OFFCURVE",
"130 169 OFFCURVE",
"89 226 OFFCURVE",
"83 236 QCURVE SMOOTH",
"69 257 OFFCURVE",
"54 300 OFFCURVE",
"54 326 QCURVE SMOOTH",
"54 556 LINE SMOOTH",
"54 578 OFFCURVE",
"56 611 OFFCURVE",
"50 637 OFFCURVE",
"30 657 OFFCURVE",
"8 666 QCURVE",
"8 679 LINE",
"327 679 LINE",
"327 666 LINE",
"310 660 OFFCURVE",
"281 637 OFFCURVE",
"281 617 QCURVE SMOOTH",
"281 357 LINE SMOOTH",
"281 334 OFFCURVE",
"295 292 OFFCURVE",
"317 253 OFFCURVE",
"344 216 OFFCURVE",
"357 198 QCURVE",
"370 217 OFFCURVE",
"396 253 OFFCURVE",
"418 292 OFFCURVE",
"432 333 OFFCURVE",
"432 357 QCURVE SMOOTH",
"432 617 LINE SMOOTH",
"432 637 OFFCURVE",
"403 659 OFFCURVE",
"387 666 QCURVE",
"387 679 LINE",
"706 679 LINE",
"706 666 LINE",
"689 660 OFFCURVE",
"660 637 OFFCURVE",
"660 617 QCURVE SMOOTH",
"660 357 LINE SMOOTH",
"660 333 OFFCURVE",
"674 291 OFFCURVE",
"696 253 OFFCURVE",
"722 217 OFFCURVE",
"735 198 QCURVE",
"748 217 OFFCURVE",
"775 254 OFFCURVE",
"797 292 OFFCURVE",
"811 333 OFFCURVE",
"811 357 QCURVE SMOOTH",
"811 617 LINE SMOOTH",
"811 637 OFFCURVE",
"782 660 OFFCURVE",
"765 666 QCURVE",
"765 679 LINE"
);
},
{
nodes = (
"360 884 LINE",
"538 884 LINE",
"646 716 LINE",
"463 716 LINE"
);
}
);
width = 1091;
}
);
unicode = 1E81;
},
